<mxfile host="65bd71144e" scale="5" border="0" disableSvgWarning="true">
    <diagram id="3271Gc9gElnyx4fTgd_W" name="第 1 页">
        <mxGraphModel dx="-1146.46" dy="-237.01" grid="0" gridSize="16" guides="1" tooltips="1" connect="0" arrows="1" fold="1" page="1" pageScale="1" pageWidth="827" pageHeight="1169" background="#FFFFFF" math="0" shadow="0">
            <root>
                <mxCell id="0"/>
                <mxCell id="1" parent="0"/>
                <mxCell id="14" value="" style="edgeStyle=none;html=1;fontSize=18;strokeWidth=2;fontStyle=1;fillColor=#f5f5f5;strokeColor=#666666;" parent="1" source="2" target="13" edge="1">
                    <mxGeometry relative="1" as="geometry"/>
                </mxCell>
                <mxCell id="2" value="创建监听socket以及绑定IP" style="rounded=0;whiteSpace=wrap;html=1;fontSize=18;strokeWidth=2;fontStyle=1;fillColor=#f5f5f5;fontColor=#333333;strokeColor=#666666;" parent="1" vertex="1">
                    <mxGeometry x="204" y="283" width="129" height="67" as="geometry"/>
                </mxCell>
                <mxCell id="16" value="" style="edgeStyle=none;html=1;fontSize=18;strokeWidth=2;fontStyle=1;fillColor=#f5f5f5;strokeColor=#666666;" parent="1" source="13" target="15" edge="1">
                    <mxGeometry relative="1" as="geometry"/>
                </mxCell>
                <mxCell id="13" value="循环开始？" style="rhombus;whiteSpace=wrap;html=1;rounded=0;fontSize=18;strokeWidth=2;fontStyle=1;fillColor=#f5f5f5;fontColor=#333333;strokeColor=#666666;" parent="1" vertex="1">
                    <mxGeometry x="184" y="390" width="160" height="60" as="geometry"/>
                </mxCell>
                <mxCell id="20" value="" style="edgeStyle=none;html=1;fontSize=18;strokeWidth=2;fontStyle=1;fillColor=#f5f5f5;strokeColor=#666666;" parent="1" source="15" target="19" edge="1">
                    <mxGeometry relative="1" as="geometry"/>
                </mxCell>
                <mxCell id="15" value="更新拷贝fds_set" style="whiteSpace=wrap;html=1;rounded=0;fontSize=18;strokeWidth=2;fontStyle=1;fillColor=#f5f5f5;fontColor=#333333;strokeColor=#666666;" parent="1" vertex="1">
                    <mxGeometry x="204" y="510" width="120" height="60" as="geometry"/>
                </mxCell>
                <mxCell id="22" value="" style="edgeStyle=none;html=1;fontSize=18;strokeWidth=2;fontStyle=1;fillColor=#f5f5f5;strokeColor=#666666;" parent="1" source="19" target="21" edge="1">
                    <mxGeometry relative="1" as="geometry"/>
                </mxCell>
                <mxCell id="19" value="启用select监听创建的&lt;br&gt;socket(非阻塞）" style="rhombus;whiteSpace=wrap;html=1;rounded=0;fontSize=18;strokeWidth=2;fontStyle=1;fillColor=#f5f5f5;fontColor=#333333;strokeColor=#666666;" parent="1" vertex="1">
                    <mxGeometry x="124" y="625" width="280" height="112" as="geometry"/>
                </mxCell>
                <mxCell id="25" value="" style="edgeStyle=none;html=1;fontSize=18;strokeWidth=2;fontStyle=1;fillColor=#f5f5f5;strokeColor=#666666;" parent="1" source="21" target="24" edge="1">
                    <mxGeometry relative="1" as="geometry"/>
                </mxCell>
                <mxCell id="21" value="accept客户的请求，更新用户表信息，分配FIFO" style="whiteSpace=wrap;html=1;rounded=0;fontSize=18;strokeWidth=2;fontStyle=1;fillColor=#f5f5f5;fontColor=#333333;strokeColor=#666666;" parent="1" vertex="1">
                    <mxGeometry x="204" y="790" width="116" height="90" as="geometry"/>
                </mxCell>
                <mxCell id="23" value="有新客户连接" style="text;html=1;align=center;verticalAlign=middle;resizable=0;points=[];autosize=1;strokeColor=#666666;fillColor=#f5f5f5;fontSize=18;strokeWidth=2;fontStyle=1;fontColor=#333333;" parent="1" vertex="1">
                    <mxGeometry x="271" y="739" width="118" height="26" as="geometry"/>
                </mxCell>
                <mxCell id="24" value="开启线程同客户端通信" style="shape=step;perimeter=stepPerimeter;whiteSpace=wrap;html=1;fixedSize=1;rounded=0;fontSize=18;strokeWidth=2;fontStyle=1;fillColor=#f5f5f5;fontColor=#333333;strokeColor=#666666;" parent="1" vertex="1">
                    <mxGeometry x="174" y="910" width="180" height="60" as="geometry"/>
                </mxCell>
                <mxCell id="31" value="" style="endArrow=none;html=1;entryX=1;entryY=0.5;entryDx=0;entryDy=0;exitX=0.5;exitY=1;exitDx=0;exitDy=0;fontSize=18;strokeWidth=2;fontStyle=1;fillColor=#f5f5f5;strokeColor=#666666;" parent="1" source="33" target="19" edge="1">
                    <mxGeometry width="50" height="50" relative="1" as="geometry">
                        <mxPoint x="64" y="960" as="sourcePoint"/>
                        <mxPoint x="424" y="650" as="targetPoint"/>
                        <Array as="points">
                            <mxPoint x="49" y="1040"/>
                            <mxPoint x="464" y="1040"/>
                            <mxPoint x="464" y="680"/>
                        </Array>
                    </mxGeometry>
                </mxCell>
                <mxCell id="32" value="" style="endArrow=none;html=1;entryX=0.5;entryY=1;entryDx=0;entryDy=0;fontSize=18;strokeWidth=2;fontStyle=1;fillColor=#f5f5f5;strokeColor=#666666;" parent="1" target="24" edge="1">
                    <mxGeometry width="50" height="50" relative="1" as="geometry">
                        <mxPoint x="264" y="1040" as="sourcePoint"/>
                        <mxPoint x="424" y="650" as="targetPoint"/>
                    </mxGeometry>
                </mxCell>
                <mxCell id="35" value="" style="edgeStyle=none;html=1;fontSize=18;strokeWidth=2;fontStyle=1;fillColor=#f5f5f5;strokeColor=#666666;" parent="1" source="33" target="34" edge="1">
                    <mxGeometry relative="1" as="geometry"/>
                </mxCell>
                <mxCell id="33" value="具体的客户端sock变化" style="rhombus;whiteSpace=wrap;html=1;fontSize=18;strokeWidth=2;fontStyle=1;fillColor=#f5f5f5;fontColor=#333333;strokeColor=#666666;" parent="1" vertex="1">
                    <mxGeometry x="-46" y="900" width="190" height="92" as="geometry"/>
                </mxCell>
                <mxCell id="34" value="接受一封装好的HIP数据，放入sFIFLO" style="whiteSpace=wrap;html=1;fontSize=18;strokeWidth=2;fontStyle=1;fillColor=#f5f5f5;fontColor=#333333;strokeColor=#666666;" parent="1" vertex="1">
                    <mxGeometry x="-11" y="780" width="123" height="68" as="geometry"/>
                </mxCell>
                <mxCell id="36" value="是" style="text;html=1;align=center;verticalAlign=middle;resizable=0;points=[];autosize=1;strokeColor=#666666;fillColor=#f5f5f5;fontSize=18;strokeWidth=2;fontStyle=1;fontColor=#333333;" parent="1" vertex="1">
                    <mxGeometry x="55" y="867" width="28" height="26" as="geometry"/>
                </mxCell>
                <mxCell id="37" value="否" style="text;html=1;align=center;verticalAlign=middle;resizable=0;points=[];autosize=1;strokeColor=#666666;fillColor=#f5f5f5;fontSize=18;strokeWidth=2;fontStyle=1;fontColor=#333333;" parent="1" vertex="1">
                    <mxGeometry x="-80" y="917" width="28" height="26" as="geometry"/>
                </mxCell>
                <mxCell id="38" value="" style="endArrow=none;html=1;exitX=-0.013;exitY=0.522;exitDx=0;exitDy=0;exitPerimeter=0;entryX=0;entryY=0.5;entryDx=0;entryDy=0;fontSize=18;strokeWidth=2;fontStyle=1;fillColor=#f5f5f5;strokeColor=#666666;" parent="1" target="13" edge="1">
                    <mxGeometry width="50" height="50" relative="1" as="geometry">
                        <mxPoint x="-48.470000000000255" y="946.1119999999996" as="sourcePoint"/>
                        <mxPoint x="-116" y="942" as="targetPoint"/>
                        <Array as="points">
                            <mxPoint x="-47" y="420"/>
                        </Array>
                    </mxGeometry>
                </mxCell>
                <mxCell id="39" value="" style="endArrow=none;html=1;exitX=0.5;exitY=0;exitDx=0;exitDy=0;fontSize=18;strokeWidth=2;fontStyle=1;fillColor=#f5f5f5;strokeColor=#666666;" parent="1" source="34" edge="1">
                    <mxGeometry width="50" height="50" relative="1" as="geometry">
                        <mxPoint x="374" y="690" as="sourcePoint"/>
                        <mxPoint x="49" y="420" as="targetPoint"/>
                    </mxGeometry>
                </mxCell>
                <mxCell id="40" value="是" style="text;html=1;align=center;verticalAlign=middle;resizable=0;points=[];autosize=1;strokeColor=#666666;fillColor=#f5f5f5;fontSize=18;strokeWidth=2;fontStyle=1;fontColor=#333333;" parent="1" vertex="1">
                    <mxGeometry x="275" y="467" width="28" height="26" as="geometry"/>
                </mxCell>
                <mxCell id="41" value="无新客户连接" style="text;html=1;align=center;verticalAlign=middle;resizable=0;points=[];autosize=1;strokeColor=#666666;fillColor=#f5f5f5;fontSize=18;strokeWidth=2;fontStyle=1;fontColor=#333333;" parent="1" vertex="1">
                    <mxGeometry x="374" y="634" width="118" height="26" as="geometry"/>
                </mxCell>
                <mxCell id="44" value="Linux网络编程 服务端思路" style="text;html=1;strokeColor=#666666;fillColor=#f5f5f5;align=center;verticalAlign=middle;whiteSpace=wrap;rounded=0;fontSize=21;fontStyle=1;fontColor=#333333;" parent="1" vertex="1">
                    <mxGeometry x="-96" y="115" width="300" height="70" as="geometry"/>
                </mxCell>
                <mxCell id="47" value="&lt;span style=&quot;font-size: 18px;&quot;&gt;线程一，管理新连接及接受HIP数据&lt;/span&gt;" style="text;html=1;strokeColor=#666666;fillColor=#f5f5f5;align=center;verticalAlign=middle;whiteSpace=wrap;rounded=0;fontSize=18;strokeWidth=2;fontStyle=1;fontColor=#333333;" parent="1" vertex="1">
                    <mxGeometry x="223" y="169" width="131" height="66" as="geometry"/>
                </mxCell>
                <mxCell id="48" value="线程二，管理心跳" style="text;html=1;strokeColor=#666666;fillColor=#f5f5f5;align=center;verticalAlign=middle;whiteSpace=wrap;rounded=0;fontSize=18;strokeWidth=2;fontStyle=1;fontColor=#333333;" parent="1" vertex="1">
                    <mxGeometry x="596" y="368" width="144" height="44" as="geometry"/>
                </mxCell>
                <mxCell id="54" value="" style="edgeStyle=none;html=1;fontSize=18;strokeWidth=2;fontStyle=1;fillColor=#f5f5f5;strokeColor=#666666;" parent="1" target="53" edge="1">
                    <mxGeometry relative="1" as="geometry">
                        <mxPoint x="666" y="543" as="sourcePoint"/>
                    </mxGeometry>
                </mxCell>
                <mxCell id="69" style="edgeStyle=none;html=1;exitX=1;exitY=0.5;exitDx=0;exitDy=0;fontSize=18;strokeWidth=2;fontStyle=1;fillColor=#f5f5f5;strokeColor=#666666;" parent="1" edge="1">
                    <mxGeometry relative="1" as="geometry">
                        <mxPoint x="674" y="1120" as="targetPoint"/>
                        <mxPoint x="734" y="503" as="sourcePoint"/>
                        <Array as="points">
                            <mxPoint x="894" y="503"/>
                            <mxPoint x="894" y="1120"/>
                        </Array>
                    </mxGeometry>
                </mxCell>
                <mxCell id="52" value="&lt;font style=&quot;font-size: 18px;&quot;&gt;循环开始？&lt;/font&gt;" style="rhombus;whiteSpace=wrap;html=1;fontSize=18;strokeWidth=2;fontStyle=1;fillColor=#f5f5f5;fontColor=#333333;strokeColor=#666666;" parent="1" vertex="1">
                    <mxGeometry x="576" y="463" width="180" height="80" as="geometry"/>
                </mxCell>
                <mxCell id="57" value="" style="edgeStyle=none;html=1;fontSize=18;strokeWidth=2;fontStyle=1;fillColor=#f5f5f5;strokeColor=#666666;" parent="1" source="53" edge="1">
                    <mxGeometry relative="1" as="geometry">
                        <mxPoint x="665.9999999999999" y="703" as="targetPoint"/>
                    </mxGeometry>
                </mxCell>
                <mxCell id="53" value="&lt;font style=&quot;font-size: 18px;&quot;&gt;获取当前的时间戳&lt;/font&gt;" style="whiteSpace=wrap;html=1;fontSize=18;strokeWidth=2;fontStyle=1;fillColor=#f5f5f5;fontColor=#333333;strokeColor=#666666;" parent="1" vertex="1">
                    <mxGeometry x="606" y="593" width="120" height="60" as="geometry"/>
                </mxCell>
                <mxCell id="55" value="是" style="text;html=1;align=center;verticalAlign=middle;resizable=0;points=[];autosize=1;strokeColor=#666666;fillColor=#f5f5f5;fontSize=18;strokeWidth=2;fontStyle=1;fontColor=#333333;" parent="1" vertex="1">
                    <mxGeometry x="672" y="550" width="28" height="26" as="geometry"/>
                </mxCell>
                <mxCell id="66" value="" style="edgeStyle=none;html=1;fontSize=18;strokeWidth=2;fontStyle=1;fillColor=#f5f5f5;strokeColor=#666666;" parent="1" target="65" edge="1">
                    <mxGeometry relative="1" as="geometry">
                        <mxPoint x="665.9999999999999" y="783" as="sourcePoint"/>
                    </mxGeometry>
                </mxCell>
                <mxCell id="58" value="" style="endArrow=none;html=1;fontSize=18;entryX=1;entryY=0.5;entryDx=0;entryDy=0;strokeWidth=2;fontStyle=1;fillColor=#f5f5f5;strokeColor=#666666;" parent="1" target="13" edge="1">
                    <mxGeometry width="50" height="50" relative="1" as="geometry">
                        <mxPoint x="264" y="1122" as="sourcePoint"/>
                        <mxPoint x="394" y="420" as="targetPoint"/>
                        <Array as="points">
                            <mxPoint x="484" y="1120"/>
                            <mxPoint x="484" y="740"/>
                            <mxPoint x="484" y="420"/>
                        </Array>
                    </mxGeometry>
                </mxCell>
                <mxCell id="59" value="" style="ellipse;whiteSpace=wrap;html=1;aspect=fixed;fontSize=18;fillColor=#f5f5f5;strokeWidth=2;fontStyle=1;fontColor=#333333;strokeColor=#666666;" parent="1" vertex="1">
                    <mxGeometry x="244" y="1100" width="40" height="40" as="geometry"/>
                </mxCell>
                <mxCell id="61" value="线程关闭" style="text;html=1;align=center;verticalAlign=middle;resizable=0;points=[];autosize=1;strokeColor=#666666;fillColor=#f5f5f5;fontSize=18;strokeWidth=2;fontStyle=1;fontColor=#333333;" parent="1" vertex="1">
                    <mxGeometry x="294" y="1127" width="82" height="26" as="geometry"/>
                </mxCell>
                <mxCell id="62" value="" style="endArrow=none;html=1;fontSize=18;entryX=1;entryY=0.5;entryDx=0;entryDy=0;exitX=0.5;exitY=0;exitDx=0;exitDy=0;strokeWidth=2;fontStyle=1;fillColor=#f5f5f5;strokeColor=#666666;" parent="1" source="67" edge="1">
                    <mxGeometry width="50" height="50" relative="1" as="geometry">
                        <mxPoint x="806" y="833" as="sourcePoint"/>
                        <mxPoint x="765.9999999999999" y="743" as="targetPoint"/>
                        <Array as="points">
                            <mxPoint x="816" y="743"/>
                        </Array>
                    </mxGeometry>
                </mxCell>
                <mxCell id="63" value="" style="endArrow=none;html=1;fontSize=18;entryX=0.5;entryY=1;entryDx=0;entryDy=0;strokeWidth=2;fontStyle=1;fillColor=#f5f5f5;strokeColor=#666666;" parent="1" edge="1">
                    <mxGeometry width="50" height="50" relative="1" as="geometry">
                        <mxPoint x="666" y="853" as="sourcePoint"/>
                        <mxPoint x="665.9999999999999" y="783" as="targetPoint"/>
                    </mxGeometry>
                </mxCell>
                <mxCell id="64" value="是" style="text;html=1;align=center;verticalAlign=middle;resizable=0;points=[];autosize=1;strokeColor=#666666;fillColor=#f5f5f5;fontSize=18;strokeWidth=2;fontStyle=1;fontColor=#333333;" parent="1" vertex="1">
                    <mxGeometry x="672" y="800" width="28" height="26" as="geometry"/>
                </mxCell>
                <mxCell id="65" value="用户表中删除客户端" style="whiteSpace=wrap;html=1;fontSize=18;strokeWidth=2;fontStyle=1;fillColor=#f5f5f5;fontColor=#333333;strokeColor=#666666;" parent="1" vertex="1">
                    <mxGeometry x="606" y="833" width="120" height="60" as="geometry"/>
                </mxCell>
                <mxCell id="67" value="发送正常心跳包" style="rounded=0;whiteSpace=wrap;html=1;fontSize=18;strokeWidth=2;fontStyle=1;fillColor=#f5f5f5;fontColor=#333333;strokeColor=#666666;" parent="1" vertex="1">
                    <mxGeometry x="756" y="833" width="120" height="60" as="geometry"/>
                </mxCell>
                <mxCell id="70" value="否" style="text;html=1;align=center;verticalAlign=middle;resizable=0;points=[];autosize=1;strokeColor=#666666;fillColor=#f5f5f5;fontSize=18;strokeWidth=2;fontStyle=1;fontColor=#333333;" parent="1" vertex="1">
                    <mxGeometry x="827" y="800" width="28" height="26" as="geometry"/>
                </mxCell>
                <mxCell id="71" value="" style="ellipse;whiteSpace=wrap;html=1;aspect=fixed;fontSize=18;fillColor=#f5f5f5;strokeWidth=2;fontStyle=1;fontColor=#333333;strokeColor=#666666;" parent="1" vertex="1">
                    <mxGeometry x="643.25" y="1097.25" width="42.75" height="42.75" as="geometry"/>
                </mxCell>
                <mxCell id="72" value="线程关闭" style="text;html=1;align=center;verticalAlign=middle;resizable=0;points=[];autosize=1;strokeColor=#666666;fillColor=#f5f5f5;fontSize=18;strokeWidth=2;fontStyle=1;fontColor=#333333;" parent="1" vertex="1">
                    <mxGeometry x="680" y="1127" width="82" height="26" as="geometry"/>
                </mxCell>
                <mxCell id="73" value="否" style="text;html=1;align=center;verticalAlign=middle;resizable=0;points=[];autosize=1;strokeColor=#666666;fillColor=#f5f5f5;fontSize=18;strokeWidth=2;fontStyle=1;fontColor=#333333;" parent="1" vertex="1">
                    <mxGeometry x="345" y="393" width="28" height="26" as="geometry"/>
                </mxCell>
                <mxCell id="74" value="否" style="text;html=1;align=center;verticalAlign=middle;resizable=0;points=[];autosize=1;strokeColor=#666666;fillColor=#f5f5f5;fontSize=18;strokeWidth=2;fontStyle=1;fontColor=#333333;" parent="1" vertex="1">
                    <mxGeometry x="758" y="476" width="28" height="26" as="geometry"/>
                </mxCell>
                <mxCell id="77" value="" style="endArrow=none;html=1;fontSize=18;entryX=0.5;entryY=1;entryDx=0;entryDy=0;strokeWidth=2;fontStyle=1;fillColor=#f5f5f5;strokeColor=#666666;" parent="1" target="65" edge="1">
                    <mxGeometry width="50" height="50" relative="1" as="geometry">
                        <mxPoint x="666" y="963" as="sourcePoint"/>
                        <mxPoint x="476" y="843" as="targetPoint"/>
                    </mxGeometry>
                </mxCell>
                <mxCell id="78" value="" style="endArrow=none;html=1;fontSize=18;exitX=0.5;exitY=1;exitDx=0;exitDy=0;entryX=0;entryY=0.5;entryDx=0;entryDy=0;strokeWidth=2;fontStyle=1;fillColor=#f5f5f5;strokeColor=#666666;" parent="1" source="67" edge="1">
                    <mxGeometry width="50" height="50" relative="1" as="geometry">
                        <mxPoint x="426" y="893" as="sourcePoint"/>
                        <mxPoint x="576" y="503" as="targetPoint"/>
                        <Array as="points">
                            <mxPoint x="816" y="963"/>
                            <mxPoint x="546" y="963"/>
                            <mxPoint x="546" y="503"/>
                        </Array>
                    </mxGeometry>
                </mxCell>
                <mxCell id="83" value="" style="edgeStyle=none;html=1;fontSize=18;strokeWidth=2;fontStyle=1;fillColor=#f5f5f5;strokeColor=#666666;" parent="1" source="81" target="82" edge="1">
                    <mxGeometry relative="1" as="geometry"/>
                </mxCell>
                <mxCell id="81" value="循环开始？" style="rhombus;whiteSpace=wrap;html=1;fontSize=18;fillColor=#f5f5f5;strokeWidth=2;fontStyle=1;fontColor=#333333;strokeColor=#666666;" parent="1" vertex="1">
                    <mxGeometry x="984" y="533" width="160" height="70" as="geometry"/>
                </mxCell>
                <mxCell id="91" value="" style="edgeStyle=none;html=1;fontSize=18;strokeWidth=2;fontStyle=1;fillColor=#f5f5f5;strokeColor=#666666;" parent="1" source="82" target="328" edge="1">
                    <mxGeometry relative="1" as="geometry">
                        <mxPoint x="1064" y="770" as="targetPoint"/>
                    </mxGeometry>
                </mxCell>
                <mxCell id="82" value="读取sFIFO数据" style="whiteSpace=wrap;html=1;fontSize=18;fillColor=#f5f5f5;strokeWidth=2;fontStyle=1;fontColor=#333333;strokeColor=#666666;" parent="1" vertex="1">
                    <mxGeometry x="1004" y="640" width="120" height="60" as="geometry"/>
                </mxCell>
                <mxCell id="84" value="" style="endArrow=none;dashed=1;html=1;fontSize=18;exitX=1;exitY=0.5;exitDx=0;exitDy=0;entryX=0.5;entryY=0;entryDx=0;entryDy=0;strokeWidth=2;fontStyle=1;fillColor=#f5f5f5;strokeColor=#666666;" parent="1" edge="1">
                    <mxGeometry width="50" height="50" relative="1" as="geometry">
                        <mxPoint x="320" y="828.9999999999995" as="sourcePoint"/>
                        <mxPoint x="665.9999999999995" y="465" as="targetPoint"/>
                        <Array as="points">
                            <mxPoint x="512" y="829"/>
                            <mxPoint x="512" y="442"/>
                            <mxPoint x="666" y="442"/>
                        </Array>
                    </mxGeometry>
                </mxCell>
                <mxCell id="85" value="是" style="text;html=1;align=center;verticalAlign=middle;resizable=0;points=[];autosize=1;strokeColor=#666666;fillColor=#f5f5f5;fontSize=18;strokeWidth=2;fontStyle=1;fontColor=#333333;" parent="1" vertex="1">
                    <mxGeometry x="1080" y="600" width="28" height="26" as="geometry"/>
                </mxCell>
                <mxCell id="86" value="" style="endArrow=none;html=1;fontSize=18;strokeWidth=2;entryX=1;entryY=0.5;entryDx=0;entryDy=0;fontStyle=1;fillColor=#f5f5f5;strokeColor=#666666;" parent="1" target="81" edge="1">
                    <mxGeometry width="50" height="50" relative="1" as="geometry">
                        <mxPoint x="1064" y="1120" as="sourcePoint"/>
                        <mxPoint x="694" y="760" as="targetPoint"/>
                        <Array as="points">
                            <mxPoint x="1224" y="1120"/>
                            <mxPoint x="1224" y="568"/>
                        </Array>
                    </mxGeometry>
                </mxCell>
                <mxCell id="87" value="" style="ellipse;whiteSpace=wrap;html=1;aspect=fixed;fontSize=18;fillColor=#f5f5f5;strokeWidth=2;fontStyle=1;fontColor=#333333;strokeColor=#666666;" parent="1" vertex="1">
                    <mxGeometry x="1039" y="1095" width="45" height="45" as="geometry"/>
                </mxCell>
                <mxCell id="93" value="" style="edgeStyle=none;html=1;fontSize=18;strokeWidth=2;fontStyle=1;exitX=0.509;exitY=0.988;exitDx=0;exitDy=0;exitPerimeter=0;fillColor=#f5f5f5;strokeColor=#666666;" parent="1" source="328" target="92" edge="1">
                    <mxGeometry relative="1" as="geometry">
                        <mxPoint x="1055.6176470588234" y="868" as="sourcePoint"/>
                    </mxGeometry>
                </mxCell>
                <mxCell id="92" value="上报消息队列&lt;br&gt;是心跳包的话，更新心跳时间" style="whiteSpace=wrap;html=1;fontSize=18;fillColor=#f5f5f5;strokeWidth=2;fontStyle=1;fontColor=#333333;strokeColor=#666666;" parent="1" vertex="1">
                    <mxGeometry x="1004" y="846.5" width="118" height="102.5" as="geometry"/>
                </mxCell>
                <mxCell id="94" value="" style="endArrow=none;html=1;fontSize=18;strokeWidth=2;exitX=0.5;exitY=1;exitDx=0;exitDy=0;entryX=0;entryY=0.5;entryDx=0;entryDy=0;fontStyle=1;fillColor=#f5f5f5;strokeColor=#666666;" parent="1" source="92" target="81" edge="1">
                    <mxGeometry width="50" height="50" relative="1" as="geometry">
                        <mxPoint x="644" y="800" as="sourcePoint"/>
                        <mxPoint x="694" y="750" as="targetPoint"/>
                        <Array as="points">
                            <mxPoint x="1064" y="980"/>
                            <mxPoint x="944" y="980"/>
                            <mxPoint x="944" y="568"/>
                        </Array>
                    </mxGeometry>
                </mxCell>
                <mxCell id="95" value="线程关闭" style="text;html=1;align=center;verticalAlign=middle;resizable=0;points=[];autosize=1;strokeColor=#666666;fillColor=#f5f5f5;fontSize=18;strokeWidth=2;fontStyle=1;fontColor=#333333;" parent="1" vertex="1">
                    <mxGeometry x="1168" y="1127" width="82" height="26" as="geometry"/>
                </mxCell>
                <mxCell id="96" value="&lt;font style=&quot;font-size: 21px&quot;&gt;&lt;span&gt;Linux网络编程 客户端思路&lt;/span&gt;&lt;/font&gt;" style="text;html=1;align=center;verticalAlign=middle;resizable=0;points=[];autosize=1;strokeColor=#666666;fillColor=#f5f5f5;fontSize=15;fontColor=#333333;fontStyle=1" parent="1" vertex="1">
                    <mxGeometry x="1334" y="262" width="261" height="24" as="geometry"/>
                </mxCell>
                <mxCell id="97" value="" style="ellipse;whiteSpace=wrap;html=1;aspect=fixed;fontSize=18;strokeWidth=2;fillColor=#f5f5f5;fontStyle=1;fontColor=#333333;strokeColor=#666666;" parent="1" vertex="1">
                    <mxGeometry x="356" y="124" width="52" height="52" as="geometry"/>
                </mxCell>
                <mxCell id="98" value="&lt;font style=&quot;font-size: 18px;&quot;&gt;开始&lt;/font&gt;" style="text;html=1;align=center;verticalAlign=middle;resizable=0;points=[];autosize=1;strokeColor=#666666;fillColor=#f5f5f5;fontSize=18;fontStyle=1;fontColor=#333333;" parent="1" vertex="1">
                    <mxGeometry x="411" y="137" width="46" height="26" as="geometry"/>
                </mxCell>
                <mxCell id="99" value="" style="endArrow=none;html=1;fontSize=18;strokeWidth=2;fontStyle=1;fillColor=#f5f5f5;strokeColor=#666666;" parent="1" source="97" edge="1">
                    <mxGeometry width="50" height="50" relative="1" as="geometry">
                        <mxPoint x="592" y="514" as="sourcePoint"/>
                        <mxPoint x="264" y="288" as="targetPoint"/>
                        <Array as="points">
                            <mxPoint x="384" y="256"/>
                            <mxPoint x="264" y="256"/>
                        </Array>
                    </mxGeometry>
                </mxCell>
                <mxCell id="105" value="" style="edgeStyle=none;html=1;fontSize=18;strokeWidth=2;fontStyle=1;fillColor=#f5f5f5;strokeColor=#666666;" parent="1" source="103" target="104" edge="1">
                    <mxGeometry relative="1" as="geometry"/>
                </mxCell>
                <mxCell id="103" value="循环开始？" style="rhombus;whiteSpace=wrap;html=1;fontSize=18;strokeWidth=2;fillColor=#f5f5f5;fontStyle=1;fontColor=#333333;strokeColor=#666666;" parent="1" vertex="1">
                    <mxGeometry x="1341" y="475" width="208" height="80" as="geometry"/>
                </mxCell>
                <mxCell id="107" value="" style="edgeStyle=none;html=1;fontSize=18;strokeWidth=2;fontStyle=1;fillColor=#f5f5f5;strokeColor=#666666;" parent="1" source="104" target="106" edge="1">
                    <mxGeometry relative="1" as="geometry"/>
                </mxCell>
                <mxCell id="104" value="更新拷贝fds_set" style="rounded=0;whiteSpace=wrap;html=1;fontSize=18;fillColor=#f5f5f5;strokeWidth=2;glass=0;shadow=0;fontStyle=1;fontColor=#333333;strokeColor=#666666;" parent="1" vertex="1">
                    <mxGeometry x="1385" y="603" width="120" height="60" as="geometry"/>
                </mxCell>
                <mxCell id="111" value="" style="edgeStyle=none;html=1;fontSize=18;strokeWidth=2;fontStyle=1;fillColor=#f5f5f5;strokeColor=#666666;" parent="1" source="106" target="110" edge="1">
                    <mxGeometry relative="1" as="geometry"/>
                </mxCell>
                <mxCell id="106" value="select监听服务端fd读事件" style="whiteSpace=wrap;html=1;fontSize=18;fillColor=#f5f5f5;rounded=0;strokeWidth=2;glass=0;shadow=0;fontStyle=1;fontColor=#333333;strokeColor=#666666;" parent="1" vertex="1">
                    <mxGeometry x="1385" y="712" width="120" height="60" as="geometry"/>
                </mxCell>
                <mxCell id="113" value="" style="edgeStyle=none;html=1;fontSize=18;strokeWidth=2;fontStyle=1;fillColor=#f5f5f5;strokeColor=#666666;" parent="1" source="110" target="112" edge="1">
                    <mxGeometry relative="1" as="geometry"/>
                </mxCell>
                <mxCell id="110" value="fd可读？" style="rhombus;whiteSpace=wrap;html=1;fontSize=18;fillColor=#f5f5f5;rounded=0;strokeWidth=2;glass=0;shadow=0;fontStyle=1;fontColor=#333333;strokeColor=#666666;" parent="1" vertex="1">
                    <mxGeometry x="1349" y="811" width="192" height="80" as="geometry"/>
                </mxCell>
                <mxCell id="112" value="读取数据，放入cFIFO" style="rounded=0;whiteSpace=wrap;html=1;fontSize=18;fillColor=#f5f5f5;strokeWidth=2;glass=0;shadow=0;fontStyle=1;fontColor=#333333;strokeColor=#666666;" parent="1" vertex="1">
                    <mxGeometry x="1385" y="922" width="120" height="60" as="geometry"/>
                </mxCell>
                <mxCell id="115" value="是" style="text;html=1;align=center;verticalAlign=middle;resizable=0;points=[];autosize=1;strokeColor=#666666;fillColor=#f5f5f5;fontSize=18;fontStyle=1;fontColor=#333333;" parent="1" vertex="1">
                    <mxGeometry x="1451" y="888" width="28" height="26" as="geometry"/>
                </mxCell>
                <mxCell id="116" value="" style="endArrow=none;html=1;fontSize=18;strokeWidth=2;exitX=1;exitY=0.5;exitDx=0;exitDy=0;fontStyle=1;fillColor=#f5f5f5;strokeColor=#666666;" parent="1" source="110" edge="1">
                    <mxGeometry width="50" height="50" relative="1" as="geometry">
                        <mxPoint x="1381" y="701" as="sourcePoint"/>
                        <mxPoint x="1445" y="1051" as="targetPoint"/>
                        <Array as="points">
                            <mxPoint x="1573" y="851"/>
                            <mxPoint x="1573" y="955"/>
                            <mxPoint x="1573" y="1051"/>
                            <mxPoint x="1541" y="1051"/>
                        </Array>
                    </mxGeometry>
                </mxCell>
                <mxCell id="118" value="否" style="text;html=1;align=center;verticalAlign=middle;resizable=0;points=[];autosize=1;strokeColor=#666666;fillColor=#f5f5f5;fontSize=18;fontStyle=1;fontColor=#333333;" parent="1" vertex="1">
                    <mxGeometry x="1551" y="825" width="28" height="26" as="geometry"/>
                </mxCell>
                <mxCell id="119" value="是" style="text;html=1;align=center;verticalAlign=middle;resizable=0;points=[];autosize=1;strokeColor=#666666;fillColor=#f5f5f5;fontSize=18;fontStyle=1;fontColor=#333333;" parent="1" vertex="1">
                    <mxGeometry x="1451" y="552" width="28" height="26" as="geometry"/>
                </mxCell>
                <mxCell id="120" value="" style="endArrow=none;html=1;fontSize=18;strokeWidth=2;entryX=1;entryY=0.5;entryDx=0;entryDy=0;fontStyle=1;fillColor=#f5f5f5;strokeColor=#666666;" parent="1" target="103" edge="1">
                    <mxGeometry width="50" height="50" relative="1" as="geometry">
                        <mxPoint x="1445" y="1115" as="sourcePoint"/>
                        <mxPoint x="1431" y="651" as="targetPoint"/>
                        <Array as="points">
                            <mxPoint x="1605" y="1115"/>
                            <mxPoint x="1605" y="515"/>
                        </Array>
                    </mxGeometry>
                </mxCell>
                <mxCell id="121" value="" style="ellipse;whiteSpace=wrap;html=1;aspect=fixed;rounded=0;shadow=0;glass=0;fontSize=18;strokeWidth=2;fillColor=#f5f5f5;fontStyle=1;fontColor=#333333;strokeColor=#666666;" parent="1" vertex="1">
                    <mxGeometry x="1414" y="1087" width="60" height="60" as="geometry"/>
                </mxCell>
                <mxCell id="122" value="线程结束" style="text;html=1;align=center;verticalAlign=middle;resizable=0;points=[];autosize=1;strokeColor=#666666;fillColor=#f5f5f5;fontSize=18;fontStyle=1;fontColor=#333333;" parent="1" vertex="1">
                    <mxGeometry x="1468" y="1130" width="82" height="26" as="geometry"/>
                </mxCell>
                <mxCell id="132" value="" style="edgeStyle=none;html=1;fontSize=18;strokeWidth=2;entryX=0.5;entryY=0;entryDx=0;entryDy=0;fontStyle=1;fillColor=#f5f5f5;strokeColor=#666666;" parent="1" source="123" target="131" edge="1">
                    <mxGeometry relative="1" as="geometry">
                        <mxPoint x="1781" y="715" as="targetPoint"/>
                    </mxGeometry>
                </mxCell>
                <mxCell id="123" value="获取当前时间戳" style="whiteSpace=wrap;html=1;rounded=0;shadow=0;glass=0;fontSize=18;strokeWidth=2;fillColor=#f5f5f5;fontStyle=1;fontColor=#333333;strokeColor=#666666;" parent="1" vertex="1">
                    <mxGeometry x="1735" y="609" width="120" height="60" as="geometry"/>
                </mxCell>
                <mxCell id="124" value="循环开始？" style="rhombus;whiteSpace=wrap;html=1;rounded=0;shadow=0;glass=0;fontSize=18;strokeWidth=2;fillColor=#f5f5f5;fontStyle=1;fontColor=#333333;strokeColor=#666666;" parent="1" vertex="1">
                    <mxGeometry x="1691" y="475" width="208" height="80" as="geometry"/>
                </mxCell>
                <mxCell id="128" value="" style="edgeStyle=none;html=1;fontSize=18;strokeWidth=2;entryX=0.5;entryY=0;entryDx=0;entryDy=0;fontStyle=1;fillColor=#f5f5f5;strokeColor=#666666;" parent="1" source="126" target="103" edge="1">
                    <mxGeometry relative="1" as="geometry"/>
                </mxCell>
                <mxCell id="126" value="connect服务端" style="whiteSpace=wrap;html=1;fontSize=18;fillColor=#f5f5f5;strokeWidth=2;fontStyle=1;fontColor=#333333;strokeColor=#666666;" parent="1" vertex="1">
                    <mxGeometry x="1385" y="385" width="120" height="60" as="geometry"/>
                </mxCell>
                <mxCell id="135" value="" style="edgeStyle=none;html=1;fontSize=18;strokeWidth=2;fontStyle=1;fillColor=#f5f5f5;strokeColor=#666666;" parent="1" source="131" target="134" edge="1">
                    <mxGeometry relative="1" as="geometry"/>
                </mxCell>
                <mxCell id="131" value="对比服务端上一&lt;br&gt;心跳时间，超时？" style="rhombus;whiteSpace=wrap;html=1;fontSize=18;fillColor=#f5f5f5;rounded=0;shadow=0;glass=0;strokeWidth=2;fontStyle=1;fontColor=#333333;strokeColor=#666666;" parent="1" vertex="1">
                    <mxGeometry x="1682" y="717" width="229" height="80" as="geometry"/>
                </mxCell>
                <mxCell id="134" value="重新连接服务端" style="whiteSpace=wrap;html=1;fontSize=18;fillColor=#f5f5f5;rounded=0;shadow=0;glass=0;strokeWidth=2;fontStyle=1;fontColor=#333333;strokeColor=#666666;" parent="1" vertex="1">
                    <mxGeometry x="1736.5" y="842" width="120" height="60" as="geometry"/>
                </mxCell>
                <mxCell id="136" value="是" style="text;html=1;align=center;verticalAlign=middle;resizable=0;points=[];autosize=1;strokeColor=#666666;fillColor=#f5f5f5;fontSize=18;fontStyle=1;fontColor=#333333;" parent="1" vertex="1">
                    <mxGeometry x="1807" y="800" width="28" height="26" as="geometry"/>
                </mxCell>
                <mxCell id="138" value="" style="endArrow=none;html=1;fontSize=18;strokeWidth=2;entryX=0.5;entryY=1;entryDx=0;entryDy=0;exitX=0;exitY=0.5;exitDx=0;exitDy=0;fontStyle=1;fillColor=#f5f5f5;strokeColor=#666666;" parent="1" source="124" target="134" edge="1">
                    <mxGeometry width="50" height="50" relative="1" as="geometry">
                        <mxPoint x="1653" y="507" as="sourcePoint"/>
                        <mxPoint x="1303" y="843" as="targetPoint"/>
                        <Array as="points">
                            <mxPoint x="1653" y="515"/>
                            <mxPoint x="1653" y="1019"/>
                            <mxPoint x="1797" y="1019"/>
                        </Array>
                    </mxGeometry>
                </mxCell>
                <mxCell id="140" value="是" style="text;html=1;align=center;verticalAlign=middle;resizable=0;points=[];autosize=1;strokeColor=#666666;fillColor=#f5f5f5;fontSize=18;fontStyle=1;fontColor=#333333;" parent="1" vertex="1">
                    <mxGeometry x="1817" y="552" width="28" height="26" as="geometry"/>
                </mxCell>
                <mxCell id="141" value="否" style="text;html=1;align=center;verticalAlign=middle;resizable=0;points=[];autosize=1;strokeColor=#666666;fillColor=#f5f5f5;fontSize=18;fontStyle=1;fontColor=#333333;" parent="1" vertex="1">
                    <mxGeometry x="1547" y="488" width="28" height="26" as="geometry"/>
                </mxCell>
                <mxCell id="143" value="" style="ellipse;whiteSpace=wrap;html=1;aspect=fixed;rounded=0;shadow=0;glass=0;fontSize=18;strokeWidth=2;fillColor=#f5f5f5;fontStyle=1;fontColor=#333333;strokeColor=#666666;" parent="1" vertex="1">
                    <mxGeometry x="1765" y="1087" width="60" height="60" as="geometry"/>
                </mxCell>
                <mxCell id="145" value="线程结束" style="text;html=1;align=center;verticalAlign=middle;resizable=0;points=[];autosize=1;strokeColor=#666666;fillColor=#f5f5f5;fontSize=18;fontStyle=1;fontColor=#333333;" parent="1" vertex="1">
                    <mxGeometry x="1832" y="1130" width="82" height="26" as="geometry"/>
                </mxCell>
                <mxCell id="149" value="" style="edgeStyle=none;html=1;fontSize=18;strokeWidth=2;fontStyle=1;fillColor=#f5f5f5;strokeColor=#666666;" parent="1" source="147" target="148" edge="1">
                    <mxGeometry relative="1" as="geometry"/>
                </mxCell>
                <mxCell id="147" value="循环开始？" style="rhombus;whiteSpace=wrap;html=1;rounded=0;shadow=0;glass=0;fontSize=18;strokeWidth=2;fillColor=#f5f5f5;fontStyle=1;fontColor=#333333;strokeColor=#666666;" parent="1" vertex="1">
                    <mxGeometry x="2074" y="489" width="192" height="96" as="geometry"/>
                </mxCell>
                <mxCell id="151" value="" style="edgeStyle=none;html=1;fontSize=18;strokeWidth=2;fontStyle=1;fillColor=#f5f5f5;strokeColor=#666666;" parent="1" source="148" edge="1">
                    <mxGeometry relative="1" as="geometry">
                        <mxPoint x="2170" y="717" as="targetPoint"/>
                    </mxGeometry>
                </mxCell>
                <mxCell id="148" value="从cFIFO中读取负载数据" style="whiteSpace=wrap;html=1;fontSize=18;fillColor=#f5f5f5;rounded=0;shadow=0;glass=0;strokeWidth=2;fontStyle=1;fontColor=#333333;strokeColor=#666666;" parent="1" vertex="1">
                    <mxGeometry x="2110" y="625" width="120" height="60" as="geometry"/>
                </mxCell>
                <mxCell id="152" value="是" style="text;html=1;align=center;verticalAlign=middle;resizable=0;points=[];autosize=1;strokeColor=#666666;fillColor=#f5f5f5;fontSize=18;fontStyle=1;fontColor=#333333;" parent="1" vertex="1">
                    <mxGeometry x="2176" y="580" width="28" height="26" as="geometry"/>
                </mxCell>
                <mxCell id="155" value="否" style="text;html=1;align=center;verticalAlign=middle;resizable=0;points=[];autosize=1;strokeColor=#666666;fillColor=#f5f5f5;fontSize=18;fontStyle=1;fontColor=#333333;" parent="1" vertex="1">
                    <mxGeometry x="2272" y="508" width="28" height="26" as="geometry"/>
                </mxCell>
                <mxCell id="156" value="" style="ellipse;whiteSpace=wrap;html=1;aspect=fixed;rounded=0;shadow=0;glass=0;fontSize=18;strokeWidth=2;fillColor=#f5f5f5;fontStyle=1;fontColor=#333333;strokeColor=#666666;" parent="1" vertex="1">
                    <mxGeometry x="2151" y="1037.25" width="60" height="60" as="geometry"/>
                </mxCell>
                <mxCell id="161" value="否" style="text;html=1;align=center;verticalAlign=middle;resizable=0;points=[];autosize=1;strokeColor=#666666;fillColor=#f5f5f5;fontSize=18;fontStyle=1;fontColor=#333333;" parent="1" vertex="1">
                    <mxGeometry x="1899" y="488" width="28" height="26" as="geometry"/>
                </mxCell>
                <mxCell id="162" value="否" style="text;html=1;align=center;verticalAlign=middle;resizable=0;points=[];autosize=1;strokeColor=#666666;fillColor=#f5f5f5;fontSize=18;fontStyle=1;fontColor=#333333;" parent="1" vertex="1">
                    <mxGeometry x="1142" y="539" width="28" height="26" as="geometry"/>
                </mxCell>
                <mxCell id="165" value="" style="edgeStyle=none;html=1;fontSize=18;strokeWidth=2;fontStyle=1;fillColor=#f5f5f5;strokeColor=#666666;" parent="1" edge="1">
                    <mxGeometry relative="1" as="geometry">
                        <mxPoint x="264" y="450" as="sourcePoint"/>
                        <mxPoint x="264" y="510" as="targetPoint"/>
                    </mxGeometry>
                </mxCell>
                <mxCell id="167" value="" style="edgeStyle=none;html=1;fontSize=18;strokeWidth=2;fontStyle=1;fillColor=#f5f5f5;strokeColor=#666666;" parent="1" edge="1">
                    <mxGeometry relative="1" as="geometry">
                        <mxPoint x="264" y="570" as="sourcePoint"/>
                        <mxPoint x="264" y="624" as="targetPoint"/>
                    </mxGeometry>
                </mxCell>
                <mxCell id="169" value="" style="edgeStyle=none;html=1;fontSize=18;strokeWidth=2;fontStyle=1;fillColor=#f5f5f5;strokeColor=#666666;" parent="1" edge="1">
                    <mxGeometry relative="1" as="geometry">
                        <mxPoint x="264" y="736" as="sourcePoint"/>
                        <mxPoint x="264" y="790" as="targetPoint"/>
                    </mxGeometry>
                </mxCell>
                <mxCell id="174" value="开启一个线程读取fifo" style="shape=step;perimeter=stepPerimeter;whiteSpace=wrap;html=1;fixedSize=1;rounded=0;fontSize=18;strokeWidth=2;fontStyle=1;fillColor=#f5f5f5;fontColor=#333333;strokeColor=#666666;" parent="1" vertex="1">
                    <mxGeometry x="174" y="910" width="180" height="60" as="geometry"/>
                </mxCell>
                <mxCell id="175" value="" style="endArrow=none;dashed=1;html=1;strokeWidth=2;exitX=1;exitY=0.5;exitDx=0;exitDy=0;fontSize=18;fontStyle=1;entryX=0.492;entryY=-0.006;entryDx=0;entryDy=0;entryPerimeter=0;fillColor=#f5f5f5;strokeColor=#666666;" parent="1" source="174" target="81" edge="1">
                    <mxGeometry width="50" height="50" relative="1" as="geometry">
                        <mxPoint x="374" y="700" as="sourcePoint"/>
                        <mxPoint x="1144" y="530" as="targetPoint"/>
                        <Array as="points">
                            <mxPoint x="924" y="940"/>
                            <mxPoint x="924" y="500"/>
                            <mxPoint x="1063" y="500"/>
                        </Array>
                    </mxGeometry>
                </mxCell>
                <mxCell id="176" value="" style="endArrow=none;html=1;entryX=1;entryY=0.5;entryDx=0;entryDy=0;exitX=0.5;exitY=1;exitDx=0;exitDy=0;fontSize=18;strokeWidth=2;fontStyle=1;fillColor=#f5f5f5;strokeColor=#666666;" parent="1" edge="1">
                    <mxGeometry width="50" height="50" relative="1" as="geometry">
                        <mxPoint x="49" y="992" as="sourcePoint"/>
                        <mxPoint x="404" y="680" as="targetPoint"/>
                        <Array as="points">
                            <mxPoint x="49" y="1040"/>
                            <mxPoint x="464" y="1040"/>
                            <mxPoint x="464" y="680"/>
                        </Array>
                    </mxGeometry>
                </mxCell>
                <mxCell id="177" value="" style="endArrow=none;html=1;entryX=0.5;entryY=1;entryDx=0;entryDy=0;fontSize=18;strokeWidth=2;fontStyle=1;fillColor=#f5f5f5;strokeColor=#666666;" parent="1" target="174" edge="1">
                    <mxGeometry width="50" height="50" relative="1" as="geometry">
                        <mxPoint x="264" y="1040" as="sourcePoint"/>
                        <mxPoint x="424" y="650" as="targetPoint"/>
                    </mxGeometry>
                </mxCell>
                <mxCell id="181" value="是" style="text;html=1;align=center;verticalAlign=middle;resizable=0;points=[];autosize=1;strokeColor=#666666;fillColor=#f5f5f5;fontSize=18;strokeWidth=2;fontStyle=1;fontColor=#333333;" parent="1" vertex="1">
                    <mxGeometry x="55" y="867" width="28" height="26" as="geometry"/>
                </mxCell>
                <mxCell id="182" value="否" style="text;html=1;align=center;verticalAlign=middle;resizable=0;points=[];autosize=1;strokeColor=#666666;fillColor=#f5f5f5;fontSize=18;strokeWidth=2;fontStyle=1;fontColor=#333333;" parent="1" vertex="1">
                    <mxGeometry x="-80" y="917" width="28" height="26" as="geometry"/>
                </mxCell>
                <mxCell id="184" value="" style="endArrow=none;html=1;exitX=0.5;exitY=0;exitDx=0;exitDy=0;fontSize=18;strokeWidth=2;fontStyle=1;fillColor=#f5f5f5;strokeColor=#666666;" parent="1" edge="1">
                    <mxGeometry width="50" height="50" relative="1" as="geometry">
                        <mxPoint x="49" y="780" as="sourcePoint"/>
                        <mxPoint x="49" y="420" as="targetPoint"/>
                    </mxGeometry>
                </mxCell>
                <mxCell id="185" value="是" style="text;html=1;align=center;verticalAlign=middle;resizable=0;points=[];autosize=1;strokeColor=#666666;fillColor=#f5f5f5;fontSize=18;strokeWidth=2;fontStyle=1;fontColor=#333333;" parent="1" vertex="1">
                    <mxGeometry x="275" y="467" width="28" height="26" as="geometry"/>
                </mxCell>
                <mxCell id="190" value="线程三，处理客户端发来的数据，并将负载数据，报给消息队列" style="text;html=1;strokeColor=#666666;fillColor=#f5f5f5;align=center;verticalAlign=middle;whiteSpace=wrap;rounded=0;fontSize=18;strokeWidth=2;fontStyle=1;fontColor=#333333;" parent="1" vertex="1">
                    <mxGeometry x="944" y="366" width="191" height="84" as="geometry"/>
                </mxCell>
                <mxCell id="191" value="" style="edgeStyle=none;html=1;fontSize=18;strokeWidth=2;fontStyle=1;fillColor=#f5f5f5;strokeColor=#666666;" parent="1" target="195" edge="1">
                    <mxGeometry relative="1" as="geometry">
                        <mxPoint x="666" y="543" as="sourcePoint"/>
                    </mxGeometry>
                </mxCell>
                <mxCell id="192" style="edgeStyle=none;html=1;exitX=-0.021;exitY=0.951;exitDx=0;exitDy=0;fontSize=18;strokeWidth=2;fontStyle=1;exitPerimeter=0;fillColor=#f5f5f5;strokeColor=#666666;" parent="1" source="211" edge="1">
                    <mxGeometry relative="1" as="geometry">
                        <mxPoint x="674" y="1120" as="targetPoint"/>
                        <mxPoint x="734" y="503" as="sourcePoint"/>
                        <Array as="points">
                            <mxPoint x="894" y="503"/>
                            <mxPoint x="894" y="1120"/>
                        </Array>
                    </mxGeometry>
                </mxCell>
                <mxCell id="194" value="" style="edgeStyle=none;html=1;fontSize=18;strokeWidth=2;fontStyle=1;fillColor=#f5f5f5;strokeColor=#666666;" parent="1" source="195" target="198" edge="1">
                    <mxGeometry relative="1" as="geometry"/>
                </mxCell>
                <mxCell id="195" value="&lt;font style=&quot;font-size: 18px;&quot;&gt;获取当前的时间戳&lt;/font&gt;" style="whiteSpace=wrap;html=1;fontSize=18;strokeWidth=2;fontStyle=1;fillColor=#f5f5f5;fontColor=#333333;strokeColor=#666666;" parent="1" vertex="1">
                    <mxGeometry x="606" y="593" width="120" height="60" as="geometry"/>
                </mxCell>
                <mxCell id="197" value="" style="edgeStyle=none;html=1;fontSize=18;strokeWidth=2;fontStyle=1;fillColor=#f5f5f5;strokeColor=#666666;" parent="1" source="198" target="205" edge="1">
                    <mxGeometry relative="1" as="geometry"/>
                </mxCell>
                <mxCell id="198" value="逐个对比客户端&lt;br&gt;上一心跳，超时？" style="rhombus;whiteSpace=wrap;html=1;fontSize=18;strokeWidth=2;fontStyle=1;fillColor=#f5f5f5;fontColor=#333333;strokeColor=#666666;" parent="1" vertex="1">
                    <mxGeometry x="566" y="688" width="200" height="112" as="geometry"/>
                </mxCell>
                <mxCell id="199" value="" style="endArrow=none;html=1;fontSize=18;entryX=1;entryY=0.5;entryDx=0;entryDy=0;strokeWidth=2;fontStyle=1;fillColor=#f5f5f5;strokeColor=#666666;" parent="1" edge="1">
                    <mxGeometry width="50" height="50" relative="1" as="geometry">
                        <mxPoint x="264" y="1122" as="sourcePoint"/>
                        <mxPoint x="344" y="420" as="targetPoint"/>
                        <Array as="points">
                            <mxPoint x="484" y="1120"/>
                            <mxPoint x="484" y="740"/>
                            <mxPoint x="484" y="420"/>
                        </Array>
                    </mxGeometry>
                </mxCell>
                <mxCell id="200" value="" style="ellipse;whiteSpace=wrap;html=1;aspect=fixed;fontSize=18;fillColor=#f5f5f5;strokeWidth=2;fontStyle=1;fontColor=#333333;strokeColor=#666666;" parent="1" vertex="1">
                    <mxGeometry x="244" y="1100" width="40" height="40" as="geometry"/>
                </mxCell>
                <mxCell id="202" value="" style="endArrow=none;html=1;fontSize=18;entryX=1;entryY=0.5;entryDx=0;entryDy=0;exitX=0.5;exitY=0;exitDx=0;exitDy=0;strokeWidth=2;fontStyle=1;fillColor=#f5f5f5;strokeColor=#666666;" parent="1" source="206" target="198" edge="1">
                    <mxGeometry width="50" height="50" relative="1" as="geometry">
                        <mxPoint x="806" y="833" as="sourcePoint"/>
                        <mxPoint x="476" y="873" as="targetPoint"/>
                        <Array as="points">
                            <mxPoint x="816" y="743"/>
                        </Array>
                    </mxGeometry>
                </mxCell>
                <mxCell id="203" value="" style="endArrow=none;html=1;fontSize=18;entryX=0.5;entryY=1;entryDx=0;entryDy=0;strokeWidth=2;fontStyle=1;fillColor=#f5f5f5;strokeColor=#666666;" parent="1" target="198" edge="1">
                    <mxGeometry width="50" height="50" relative="1" as="geometry">
                        <mxPoint x="666" y="853" as="sourcePoint"/>
                        <mxPoint x="476" y="873" as="targetPoint"/>
                    </mxGeometry>
                </mxCell>
                <mxCell id="204" value="是" style="text;html=1;align=center;verticalAlign=middle;resizable=0;points=[];autosize=1;strokeColor=#666666;fillColor=#f5f5f5;fontSize=18;strokeWidth=2;fontStyle=1;fontColor=#333333;" parent="1" vertex="1">
                    <mxGeometry x="672" y="800" width="28" height="26" as="geometry"/>
                </mxCell>
                <mxCell id="205" value="用户表中删除客户端" style="whiteSpace=wrap;html=1;fontSize=18;strokeWidth=2;fontStyle=1;fillColor=#f5f5f5;fontColor=#333333;strokeColor=#666666;" parent="1" vertex="1">
                    <mxGeometry x="606" y="833" width="120" height="60" as="geometry"/>
                </mxCell>
                <mxCell id="206" value="根据间隔发送正常心跳包" style="rounded=0;whiteSpace=wrap;html=1;fontSize=18;strokeWidth=2;fontStyle=1;fillColor=#f5f5f5;fontColor=#333333;strokeColor=#666666;" parent="1" vertex="1">
                    <mxGeometry x="756" y="833" width="120" height="60" as="geometry"/>
                </mxCell>
                <mxCell id="207" value="否" style="text;html=1;align=center;verticalAlign=middle;resizable=0;points=[];autosize=1;strokeColor=#666666;fillColor=#f5f5f5;fontSize=18;strokeWidth=2;fontStyle=1;fontColor=#333333;" parent="1" vertex="1">
                    <mxGeometry x="827" y="800" width="28" height="26" as="geometry"/>
                </mxCell>
                <mxCell id="208" value="" style="ellipse;whiteSpace=wrap;html=1;aspect=fixed;fontSize=18;fillColor=#f5f5f5;strokeWidth=2;fontStyle=1;fontColor=#333333;strokeColor=#666666;" parent="1" vertex="1">
                    <mxGeometry x="643.25" y="1097.25" width="42.75" height="42.75" as="geometry"/>
                </mxCell>
                <mxCell id="210" value="否" style="text;html=1;align=center;verticalAlign=middle;resizable=0;points=[];autosize=1;strokeColor=#666666;fillColor=#f5f5f5;fontSize=18;strokeWidth=2;fontStyle=1;fontColor=#333333;" parent="1" vertex="1">
                    <mxGeometry x="345" y="393" width="28" height="26" as="geometry"/>
                </mxCell>
                <mxCell id="211" value="否" style="text;html=1;align=center;verticalAlign=middle;resizable=0;points=[];autosize=1;strokeColor=#666666;fillColor=#f5f5f5;fontSize=18;strokeWidth=2;fontStyle=1;fontColor=#333333;" parent="1" vertex="1">
                    <mxGeometry x="758" y="476" width="28" height="26" as="geometry"/>
                </mxCell>
                <mxCell id="212" value="" style="endArrow=none;html=1;fontSize=18;entryX=0.5;entryY=1;entryDx=0;entryDy=0;strokeWidth=2;fontStyle=1;fillColor=#f5f5f5;strokeColor=#666666;" parent="1" target="205" edge="1">
                    <mxGeometry width="50" height="50" relative="1" as="geometry">
                        <mxPoint x="666" y="963" as="sourcePoint"/>
                        <mxPoint x="476" y="843" as="targetPoint"/>
                    </mxGeometry>
                </mxCell>
                <mxCell id="213" value="" style="endArrow=none;html=1;fontSize=18;exitX=0.5;exitY=1;exitDx=0;exitDy=0;entryX=0;entryY=0.5;entryDx=0;entryDy=0;strokeWidth=2;fontStyle=1;fillColor=#f5f5f5;strokeColor=#666666;" parent="1" source="206" edge="1">
                    <mxGeometry width="50" height="50" relative="1" as="geometry">
                        <mxPoint x="426" y="893" as="sourcePoint"/>
                        <mxPoint x="576" y="503" as="targetPoint"/>
                        <Array as="points">
                            <mxPoint x="816" y="963"/>
                            <mxPoint x="546" y="963"/>
                            <mxPoint x="546" y="503"/>
                        </Array>
                    </mxGeometry>
                </mxCell>
                <mxCell id="214" value="" style="edgeStyle=none;html=1;fontSize=18;strokeWidth=2;fontStyle=1;fillColor=#f5f5f5;strokeColor=#666666;" parent="1" edge="1">
                    <mxGeometry relative="1" as="geometry">
                        <mxPoint x="1064" y="602.9999999999998" as="sourcePoint"/>
                        <mxPoint x="1064" y="640" as="targetPoint"/>
                    </mxGeometry>
                </mxCell>
                <mxCell id="220" value="" style="endArrow=none;html=1;fontSize=18;strokeWidth=2;entryX=1;entryY=0.5;entryDx=0;entryDy=0;fontStyle=1;fillColor=#f5f5f5;strokeColor=#666666;" parent="1" edge="1">
                    <mxGeometry width="50" height="50" relative="1" as="geometry">
                        <mxPoint x="1064" y="1120" as="sourcePoint"/>
                        <mxPoint x="1144" y="567.9999999999998" as="targetPoint"/>
                        <Array as="points">
                            <mxPoint x="1224" y="1120"/>
                            <mxPoint x="1224" y="568"/>
                        </Array>
                    </mxGeometry>
                </mxCell>
                <mxCell id="221" value="" style="ellipse;whiteSpace=wrap;html=1;aspect=fixed;fontSize=18;fillColor=#f5f5f5;strokeWidth=2;fontStyle=1;fontColor=#333333;strokeColor=#666666;" parent="1" vertex="1">
                    <mxGeometry x="1039" y="1095" width="45" height="45" as="geometry"/>
                </mxCell>
                <mxCell id="230" value="" style="endArrow=none;html=1;fontSize=18;strokeWidth=2;fontStyle=1;fillColor=#f5f5f5;strokeColor=#666666;" parent="1" edge="1">
                    <mxGeometry width="50" height="50" relative="1" as="geometry">
                        <mxPoint x="382.3095018780364" y="175.99815775504976" as="sourcePoint"/>
                        <mxPoint x="264" y="288" as="targetPoint"/>
                        <Array as="points">
                            <mxPoint x="384" y="256"/>
                            <mxPoint x="264" y="256"/>
                        </Array>
                    </mxGeometry>
                </mxCell>
                <mxCell id="232" value="" style="edgeStyle=none;html=1;fontSize=18;strokeWidth=2;fontStyle=1;fillColor=#f5f5f5;strokeColor=#666666;" parent="1" edge="1">
                    <mxGeometry relative="1" as="geometry">
                        <mxPoint x="1445" y="555" as="sourcePoint"/>
                        <mxPoint x="1445" y="603.0000000000002" as="targetPoint"/>
                    </mxGeometry>
                </mxCell>
                <mxCell id="234" value="" style="edgeStyle=none;html=1;fontSize=18;strokeWidth=2;fontStyle=1;fillColor=#f5f5f5;strokeColor=#666666;" parent="1" edge="1">
                    <mxGeometry relative="1" as="geometry">
                        <mxPoint x="1445" y="663.0000000000002" as="sourcePoint"/>
                        <mxPoint x="1445" y="712" as="targetPoint"/>
                    </mxGeometry>
                </mxCell>
                <mxCell id="236" value="" style="edgeStyle=none;html=1;fontSize=18;strokeWidth=2;fontStyle=1;fillColor=#f5f5f5;strokeColor=#666666;" parent="1" edge="1">
                    <mxGeometry relative="1" as="geometry">
                        <mxPoint x="1445" y="772" as="sourcePoint"/>
                        <mxPoint x="1445" y="811" as="targetPoint"/>
                    </mxGeometry>
                </mxCell>
                <mxCell id="238" value="" style="edgeStyle=none;html=1;fontSize=18;strokeWidth=2;fontStyle=1;fillColor=#f5f5f5;strokeColor=#666666;" parent="1" edge="1">
                    <mxGeometry relative="1" as="geometry">
                        <mxPoint x="1445" y="891" as="sourcePoint"/>
                        <mxPoint x="1445" y="922" as="targetPoint"/>
                    </mxGeometry>
                </mxCell>
                <mxCell id="241" value="" style="endArrow=none;html=1;fontSize=18;strokeWidth=2;exitX=0.5;exitY=1;exitDx=0;exitDy=0;entryX=0.004;entryY=0.495;entryDx=0;entryDy=0;fontStyle=1;entryPerimeter=0;fillColor=#f5f5f5;strokeColor=#666666;" parent="1" target="110" edge="1">
                    <mxGeometry width="50" height="50" relative="1" as="geometry">
                        <mxPoint x="1445" y="982" as="sourcePoint"/>
                        <mxPoint x="1341.0000000000005" y="515" as="targetPoint"/>
                        <Array as="points">
                            <mxPoint x="1445" y="1019"/>
                            <mxPoint x="1445" y="1051"/>
                            <mxPoint x="1317" y="1051"/>
                            <mxPoint x="1317" y="851"/>
                        </Array>
                    </mxGeometry>
                </mxCell>
                <mxCell id="242" value="是" style="text;html=1;align=center;verticalAlign=middle;resizable=0;points=[];autosize=1;strokeColor=#666666;fillColor=#f5f5f5;fontSize=18;fontStyle=1;fontColor=#333333;" parent="1" vertex="1">
                    <mxGeometry x="1451" y="888" width="28" height="26" as="geometry"/>
                </mxCell>
                <mxCell id="243" value="" style="endArrow=none;html=1;fontSize=18;strokeWidth=2;exitX=1;exitY=0.5;exitDx=0;exitDy=0;fontStyle=1;fillColor=#f5f5f5;strokeColor=#666666;" parent="1" edge="1">
                    <mxGeometry width="50" height="50" relative="1" as="geometry">
                        <mxPoint x="1540.9999999999995" y="851" as="sourcePoint"/>
                        <mxPoint x="1403" y="1051" as="targetPoint"/>
                        <Array as="points">
                            <mxPoint x="1573" y="851"/>
                            <mxPoint x="1573" y="955"/>
                            <mxPoint x="1573" y="1051"/>
                            <mxPoint x="1541" y="1051"/>
                        </Array>
                    </mxGeometry>
                </mxCell>
                <mxCell id="244" value="否" style="text;html=1;align=center;verticalAlign=middle;resizable=0;points=[];autosize=1;strokeColor=#666666;fillColor=#f5f5f5;fontSize=18;fontStyle=1;fontColor=#333333;" parent="1" vertex="1">
                    <mxGeometry x="1551" y="825" width="28" height="26" as="geometry"/>
                </mxCell>
                <mxCell id="245" value="是" style="text;html=1;align=center;verticalAlign=middle;resizable=0;points=[];autosize=1;strokeColor=#666666;fillColor=#f5f5f5;fontSize=18;fontStyle=1;fontColor=#333333;" parent="1" vertex="1">
                    <mxGeometry x="1451" y="552" width="28" height="26" as="geometry"/>
                </mxCell>
                <mxCell id="246" value="" style="endArrow=none;html=1;fontSize=18;strokeWidth=2;entryX=1;entryY=0.5;entryDx=0;entryDy=0;fontStyle=1;fillColor=#f5f5f5;strokeColor=#666666;" parent="1" edge="1">
                    <mxGeometry width="50" height="50" relative="1" as="geometry">
                        <mxPoint x="1445" y="1115" as="sourcePoint"/>
                        <mxPoint x="1549.0000000000005" y="515" as="targetPoint"/>
                        <Array as="points">
                            <mxPoint x="1605" y="1115"/>
                            <mxPoint x="1605" y="515"/>
                        </Array>
                    </mxGeometry>
                </mxCell>
                <mxCell id="247" value="" style="ellipse;whiteSpace=wrap;html=1;aspect=fixed;rounded=0;shadow=0;glass=0;fontSize=18;strokeWidth=2;fillColor=#f5f5f5;fontStyle=1;fontColor=#333333;strokeColor=#666666;" parent="1" vertex="1">
                    <mxGeometry x="1414" y="1087" width="60" height="60" as="geometry"/>
                </mxCell>
                <mxCell id="251" value="" style="edgeStyle=none;html=1;fontSize=18;strokeWidth=2;fontStyle=1;entryX=0.505;entryY=0.026;entryDx=0;entryDy=0;entryPerimeter=0;fillColor=#f5f5f5;strokeColor=#666666;" parent="1" target="123" edge="1">
                    <mxGeometry relative="1" as="geometry">
                        <mxPoint x="1795" y="555" as="sourcePoint"/>
                        <mxPoint x="1795" y="587" as="targetPoint"/>
                    </mxGeometry>
                </mxCell>
                <mxCell id="253" value="" style="edgeStyle=none;html=1;fontSize=18;strokeWidth=2;entryX=0.5;entryY=0;entryDx=0;entryDy=0;fontStyle=1;fillColor=#f5f5f5;strokeColor=#666666;" parent="1" edge="1">
                    <mxGeometry relative="1" as="geometry">
                        <mxPoint x="1445" y="445" as="sourcePoint"/>
                        <mxPoint x="1445" y="475" as="targetPoint"/>
                    </mxGeometry>
                </mxCell>
                <mxCell id="255" value="线程二，管理心跳" style="text;html=1;align=center;verticalAlign=middle;resizable=0;points=[];autosize=1;strokeColor=#666666;fillColor=#f5f5f5;fontSize=18;fontStyle=1;fontColor=#333333;" parent="1" vertex="1">
                    <mxGeometry x="1718" y="421" width="154" height="26" as="geometry"/>
                </mxCell>
                <mxCell id="256" value="" style="edgeStyle=none;html=1;fontSize=18;strokeWidth=2;fontStyle=1;fillColor=#f5f5f5;strokeColor=#666666;" parent="1" edge="1">
                    <mxGeometry relative="1" as="geometry">
                        <mxPoint x="1796.5" y="797" as="sourcePoint"/>
                        <mxPoint x="1796.5" y="842" as="targetPoint"/>
                    </mxGeometry>
                </mxCell>
                <mxCell id="259" value="是" style="text;html=1;align=center;verticalAlign=middle;resizable=0;points=[];autosize=1;strokeColor=#666666;fillColor=#f5f5f5;fontSize=18;fontStyle=1;fontColor=#333333;" parent="1" vertex="1">
                    <mxGeometry x="1807" y="800" width="28" height="26" as="geometry"/>
                </mxCell>
                <mxCell id="261" value="" style="endArrow=none;html=1;fontSize=18;strokeWidth=2;entryX=0.5;entryY=1;entryDx=0;entryDy=0;exitX=0;exitY=0.5;exitDx=0;exitDy=0;fontStyle=1;fillColor=#f5f5f5;strokeColor=#666666;" parent="1" edge="1">
                    <mxGeometry width="50" height="50" relative="1" as="geometry">
                        <mxPoint x="1691" y="515" as="sourcePoint"/>
                        <mxPoint x="1796.5" y="902" as="targetPoint"/>
                        <Array as="points">
                            <mxPoint x="1653" y="515"/>
                            <mxPoint x="1653" y="1019"/>
                            <mxPoint x="1797" y="1019"/>
                        </Array>
                    </mxGeometry>
                </mxCell>
                <mxCell id="262" value="否" style="text;html=1;align=center;verticalAlign=middle;resizable=0;points=[];autosize=1;strokeColor=#666666;fillColor=#f5f5f5;fontSize=18;fontStyle=1;fontColor=#333333;" parent="1" vertex="1">
                    <mxGeometry x="1899" y="698" width="28" height="26" as="geometry"/>
                </mxCell>
                <mxCell id="264" value="否" style="text;html=1;align=center;verticalAlign=middle;resizable=0;points=[];autosize=1;strokeColor=#666666;fillColor=#f5f5f5;fontSize=18;fontStyle=1;fontColor=#333333;" parent="1" vertex="1">
                    <mxGeometry x="1547" y="488" width="28" height="26" as="geometry"/>
                </mxCell>
                <mxCell id="265" value="" style="endArrow=none;html=1;fontSize=18;strokeWidth=2;entryX=1;entryY=0.5;entryDx=0;entryDy=0;fontStyle=1;fillColor=#f5f5f5;strokeColor=#666666;" parent="1" edge="1">
                    <mxGeometry width="50" height="50" relative="1" as="geometry">
                        <mxPoint x="1795" y="1115" as="sourcePoint"/>
                        <mxPoint x="1899" y="515" as="targetPoint"/>
                        <Array as="points">
                            <mxPoint x="2012" y="1115"/>
                            <mxPoint x="2012" y="515"/>
                        </Array>
                    </mxGeometry>
                </mxCell>
                <mxCell id="266" value="" style="ellipse;whiteSpace=wrap;html=1;aspect=fixed;rounded=0;shadow=0;glass=0;fontSize=18;strokeWidth=2;fillColor=#f5f5f5;fontStyle=1;fontColor=#333333;strokeColor=#666666;" parent="1" vertex="1">
                    <mxGeometry x="1765" y="1087" width="60" height="60" as="geometry"/>
                </mxCell>
                <mxCell id="268" value="线程三，处理服务端发来的数据" style="text;html=1;align=center;verticalAlign=middle;resizable=0;points=[];autosize=1;strokeColor=#666666;fillColor=#f5f5f5;fontSize=18;fontStyle=1;fontColor=#333333;" parent="1" vertex="1">
                    <mxGeometry x="2058" y="448" width="262" height="26" as="geometry"/>
                </mxCell>
                <mxCell id="269" value="" style="edgeStyle=none;html=1;fontSize=18;strokeWidth=2;fontStyle=1;fillColor=#f5f5f5;strokeColor=#666666;" parent="1" edge="1">
                    <mxGeometry relative="1" as="geometry">
                        <mxPoint x="2170" y="585" as="sourcePoint"/>
                        <mxPoint x="2170" y="625" as="targetPoint"/>
                    </mxGeometry>
                </mxCell>
                <mxCell id="274" value="是" style="text;html=1;align=center;verticalAlign=middle;resizable=0;points=[];autosize=1;strokeColor=#666666;fillColor=#f5f5f5;fontSize=18;fontStyle=1;fontColor=#333333;" parent="1" vertex="1">
                    <mxGeometry x="2176" y="580" width="28" height="26" as="geometry"/>
                </mxCell>
                <mxCell id="275" value="" style="endArrow=none;html=1;fontSize=18;strokeWidth=2;exitX=0;exitY=0.5;exitDx=0;exitDy=0;fontStyle=1;fillColor=#f5f5f5;strokeColor=#666666;" parent="1" target="334" edge="1">
                    <mxGeometry width="50" height="50" relative="1" as="geometry">
                        <mxPoint x="2074" y="537.0000000000002" as="sourcePoint"/>
                        <mxPoint x="2170" y="897.8600000000001" as="targetPoint"/>
                        <Array as="points">
                            <mxPoint x="2038" y="537"/>
                            <mxPoint x="2038" y="1010"/>
                            <mxPoint x="2170" y="1010"/>
                        </Array>
                    </mxGeometry>
                </mxCell>
                <mxCell id="276" value="" style="endArrow=none;html=1;fontSize=18;strokeWidth=2;entryX=1;entryY=0.5;entryDx=0;entryDy=0;fontStyle=1;fillColor=#f5f5f5;strokeColor=#666666;" parent="1" source="156" edge="1">
                    <mxGeometry width="50" height="50" relative="1" as="geometry">
                        <mxPoint x="2170" y="929" as="sourcePoint"/>
                        <mxPoint x="2266" y="537.0000000000002" as="targetPoint"/>
                        <Array as="points">
                            <mxPoint x="2329" y="1067"/>
                            <mxPoint x="2329" y="849"/>
                            <mxPoint x="2329" y="537"/>
                        </Array>
                    </mxGeometry>
                </mxCell>
                <mxCell id="277" value="否" style="text;html=1;align=center;verticalAlign=middle;resizable=0;points=[];autosize=1;strokeColor=#666666;fillColor=#f5f5f5;fontSize=18;fontStyle=1;fontColor=#333333;" parent="1" vertex="1">
                    <mxGeometry x="2272" y="508" width="28" height="26" as="geometry"/>
                </mxCell>
                <mxCell id="279" value="线程结束" style="text;html=1;align=center;verticalAlign=middle;resizable=0;points=[];autosize=1;strokeColor=#666666;fillColor=#f5f5f5;fontSize=18;fontStyle=1;fontColor=#333333;" parent="1" vertex="1">
                    <mxGeometry x="2211" y="1084" width="82" height="26" as="geometry"/>
                </mxCell>
                <mxCell id="280" value="否" style="text;html=1;align=center;verticalAlign=middle;resizable=0;points=[];autosize=1;strokeColor=#666666;fillColor=#f5f5f5;fontSize=18;fontStyle=1;fontColor=#333333;" parent="1" vertex="1">
                    <mxGeometry x="1899" y="488" width="28" height="26" as="geometry"/>
                </mxCell>
                <mxCell id="305" value="" style="endArrow=none;html=1;fontSize=18;strokeWidth=4;fontStyle=1;fillColor=#f5f5f5;strokeColor=#666666;" parent="1" edge="1">
                    <mxGeometry width="50" height="50" relative="1" as="geometry">
                        <mxPoint x="1280" y="1296" as="sourcePoint"/>
                        <mxPoint x="1280" as="targetPoint"/>
                    </mxGeometry>
                </mxCell>
                <mxCell id="308" value="&lt;span style=&quot;font-size: 18px;&quot;&gt;线程一，客户端监听服务端数据，留存cFIFO&lt;/span&gt;" style="text;html=1;strokeColor=#666666;fillColor=#f5f5f5;align=center;verticalAlign=middle;whiteSpace=wrap;rounded=0;fontColor=#333333;fontStyle=1" parent="1" vertex="1">
                    <mxGeometry x="1503" y="311" width="151" height="68" as="geometry"/>
                </mxCell>
                <mxCell id="309" value="" style="endArrow=none;html=1;exitX=0.483;exitY=-0.033;exitDx=0;exitDy=0;exitPerimeter=0;fillColor=#f5f5f5;strokeColor=#666666;fontStyle=1" parent="1" source="126" edge="1">
                    <mxGeometry width="50" height="50" relative="1" as="geometry">
                        <mxPoint x="1244" y="338" as="sourcePoint"/>
                        <mxPoint x="1356" y="336" as="targetPoint"/>
                        <Array as="points">
                            <mxPoint x="1443" y="336"/>
                        </Array>
                    </mxGeometry>
                </mxCell>
                <mxCell id="310" value="" style="ellipse;whiteSpace=wrap;html=1;aspect=fixed;fillColor=#f5f5f5;fontColor=#333333;strokeColor=#666666;fontStyle=1" parent="1" vertex="1">
                    <mxGeometry x="1337" y="316" width="48" height="48" as="geometry"/>
                </mxCell>
                <mxCell id="311" value="&lt;font style=&quot;font-size: 17px&quot;&gt;&lt;span&gt;开始&lt;/span&gt;&lt;/font&gt;" style="text;html=1;align=center;verticalAlign=middle;resizable=0;points=[];autosize=1;strokeColor=#666666;fillColor=#f5f5f5;fontColor=#333333;fontStyle=1" parent="1" vertex="1">
                    <mxGeometry x="1290" y="305" width="44" height="19" as="geometry"/>
                </mxCell>
                <mxCell id="312" value="&lt;span style=&quot;font-size: 18px&quot;&gt;根据间隔发送正常心跳包&lt;/span&gt;" style="rounded=0;whiteSpace=wrap;html=1;strokeWidth=2;fontStyle=1;fontSize=17;fillColor=#f5f5f5;fontColor=#333333;strokeColor=#666666;" parent="1" vertex="1">
                    <mxGeometry x="1883" y="842" width="120" height="60" as="geometry"/>
                </mxCell>
                <mxCell id="314" value="" style="endArrow=none;html=1;entryX=0.976;entryY=0.491;entryDx=0;entryDy=0;entryPerimeter=0;exitX=0.517;exitY=-0.017;exitDx=0;exitDy=0;exitPerimeter=0;strokeWidth=2;fillColor=#f5f5f5;strokeColor=#666666;fontStyle=1" parent="1" source="312" target="131" edge="1">
                    <mxGeometry width="50" height="50" relative="1" as="geometry">
                        <mxPoint x="1500" y="914" as="sourcePoint"/>
                        <mxPoint x="1550" y="864" as="targetPoint"/>
                        <Array as="points">
                            <mxPoint x="1945" y="755"/>
                        </Array>
                    </mxGeometry>
                </mxCell>
                <mxCell id="315" value="" style="endArrow=none;html=1;strokeWidth=2;exitX=0.538;exitY=1.004;exitDx=0;exitDy=0;exitPerimeter=0;fillColor=#f5f5f5;strokeColor=#666666;fontStyle=1" parent="1" source="312" edge="1">
                    <mxGeometry width="50" height="50" relative="1" as="geometry">
                        <mxPoint x="1947" y="912" as="sourcePoint"/>
                        <mxPoint x="1788" y="1019" as="targetPoint"/>
                        <Array as="points">
                            <mxPoint x="1947" y="1019"/>
                        </Array>
                    </mxGeometry>
                </mxCell>
                <mxCell id="320" value="" style="edgeStyle=none;html=1;strokeWidth=2;entryX=0.496;entryY=0.02;entryDx=0;entryDy=0;entryPerimeter=0;fillColor=#f5f5f5;strokeColor=#666666;fontStyle=1" parent="1" target="334" edge="1">
                    <mxGeometry relative="1" as="geometry">
                        <mxPoint x="2170" y="777" as="sourcePoint"/>
                        <mxPoint x="2170" y="858" as="targetPoint"/>
                    </mxGeometry>
                </mxCell>
                <mxCell id="321" value="&lt;span style=&quot;font-size: 18px;&quot;&gt;HIP解析数据成功？&lt;/span&gt;" style="rhombus;whiteSpace=wrap;html=1;strokeWidth=2;fillColor=#f5f5f5;fontColor=#333333;strokeColor=#666666;fontStyle=1" parent="1" vertex="1">
                    <mxGeometry x="2061" y="717" width="218" height="80" as="geometry"/>
                </mxCell>
                <mxCell id="324" value="是" style="text;html=1;align=center;verticalAlign=middle;resizable=0;points=[];autosize=1;strokeColor=#666666;fillColor=#f5f5f5;fontSize=18;fontStyle=1;fontColor=#333333;" parent="1" vertex="1">
                    <mxGeometry x="2185" y="796" width="28" height="26" as="geometry"/>
                </mxCell>
                <mxCell id="325" value="" style="endArrow=none;html=1;strokeWidth=2;entryX=0.999;entryY=0.522;entryDx=0;entryDy=0;entryPerimeter=0;fillColor=#f5f5f5;strokeColor=#666666;fontStyle=1" parent="1" edge="1">
                    <mxGeometry width="50" height="50" relative="1" as="geometry">
                        <mxPoint x="2159" y="1010" as="sourcePoint"/>
                        <mxPoint x="2278.782" y="757.76" as="targetPoint"/>
                        <Array as="points">
                            <mxPoint x="2159" y="1010"/>
                            <mxPoint x="2308" y="1010"/>
                            <mxPoint x="2308" y="758"/>
                        </Array>
                    </mxGeometry>
                </mxCell>
                <mxCell id="327" value="否" style="text;html=1;align=center;verticalAlign=middle;resizable=0;points=[];autosize=1;strokeColor=#666666;fillColor=#f5f5f5;fontSize=18;fontStyle=1;fontColor=#333333;" parent="1" vertex="1">
                    <mxGeometry x="2272" y="719" width="28" height="26" as="geometry"/>
                </mxCell>
                <mxCell id="328" value="&lt;span style=&quot;font-size: 18px;&quot;&gt;HIP解析数据成功？&lt;/span&gt;" style="rhombus;whiteSpace=wrap;html=1;strokeWidth=2;fillColor=#f5f5f5;fontColor=#333333;strokeColor=#666666;fontStyle=1" parent="1" vertex="1">
                    <mxGeometry x="955" y="739" width="218" height="80" as="geometry"/>
                </mxCell>
                <mxCell id="330" value="是" style="text;html=1;align=center;verticalAlign=middle;resizable=0;points=[];autosize=1;strokeColor=#666666;fillColor=#f5f5f5;fontSize=18;strokeWidth=2;fontStyle=1;fontColor=#333333;" parent="1" vertex="1">
                    <mxGeometry x="1083" y="822" width="28" height="26" as="geometry"/>
                </mxCell>
                <mxCell id="331" value="否" style="text;html=1;align=center;verticalAlign=middle;resizable=0;points=[];autosize=1;strokeColor=#666666;fillColor=#f5f5f5;fontSize=18;fontStyle=1;fontColor=#333333;" parent="1" vertex="1">
                    <mxGeometry x="1178" y="738" width="28" height="26" as="geometry"/>
                </mxCell>
                <mxCell id="332" value="" style="endArrow=none;html=1;strokeWidth=2;exitX=0.995;exitY=0.513;exitDx=0;exitDy=0;exitPerimeter=0;fillColor=#f5f5f5;strokeColor=#666666;fontStyle=1" parent="1" source="328" edge="1">
                    <mxGeometry width="50" height="50" relative="1" as="geometry">
                        <mxPoint x="1169" y="832" as="sourcePoint"/>
                        <mxPoint x="1042" y="980" as="targetPoint"/>
                        <Array as="points">
                            <mxPoint x="1196" y="780"/>
                            <mxPoint x="1196" y="980"/>
                        </Array>
                    </mxGeometry>
                </mxCell>
                <mxCell id="334" value="上报消息队列&lt;br&gt;是心跳包的话，更新心跳时间" style="whiteSpace=wrap;html=1;fontSize=18;fillColor=#f5f5f5;strokeWidth=2;fontStyle=1;fontColor=#333333;strokeColor=#666666;" parent="1" vertex="1">
                    <mxGeometry x="2110" y="842" width="122" height="100" as="geometry"/>
                </mxCell>
            </root>
        </mxGraphModel>
    </diagram>
    <diagram id="Ae7dGYoSZORemV4k_7QS" name="第 2 页">
        <mxGraphModel dx="4147" dy="2605" grid="0" gridSize="10" guides="1" tooltips="1" connect="1" arrows="1" fold="1" page="1" pageScale="1" pageWidth="827" pageHeight="1169" math="0" shadow="0">
            <root>
                <mxCell id="un4hN7DEQfM4jxaacSA7-0"/>
                <mxCell id="un4hN7DEQfM4jxaacSA7-1" parent="un4hN7DEQfM4jxaacSA7-0"/>
                <mxCell id="un4hN7DEQfM4jxaacSA7-2" value="结构体 tcp_server" style="swimlane;fontStyle=0;childLayout=stackLayout;horizontal=1;startSize=30;horizontalStack=0;resizeParent=1;resizeParentMax=0;resizeLast=0;collapsible=1;marginBottom=0;fontSize=18;strokeWidth=2;" parent="un4hN7DEQfM4jxaacSA7-1" vertex="1">
                    <mxGeometry x="845" y="202" width="496" height="360" as="geometry">
                        <mxRectangle x="-474" y="-65" width="170" height="30" as="alternateBounds"/>
                    </mxGeometry>
                </mxCell>
                <mxCell id="un4hN7DEQfM4jxaacSA7-3" value="listen_fd（监听客户端连接文件描述符）" style="text;strokeColor=none;fillColor=none;align=left;verticalAlign=middle;spacingLeft=4;spacingRight=4;overflow=hidden;points=[[0,0.5],[1,0.5]];portConstraint=eastwest;rotatable=0;fontSize=18;" parent="un4hN7DEQfM4jxaacSA7-2" vertex="1">
                    <mxGeometry y="30" width="496" height="30" as="geometry"/>
                </mxCell>
                <mxCell id="un4hN7DEQfM4jxaacSA7-5" value="msg_queue_id（消息队列ID）" style="text;strokeColor=none;fillColor=none;align=left;verticalAlign=middle;spacingLeft=4;spacingRight=4;overflow=hidden;points=[[0,0.5],[1,0.5]];portConstraint=eastwest;rotatable=0;fontSize=18;" parent="un4hN7DEQfM4jxaacSA7-2" vertex="1">
                    <mxGeometry y="60" width="496" height="30" as="geometry"/>
                </mxCell>
                <mxCell id="un4hN7DEQfM4jxaacSA7-6" value="add_position（下一次添加客户端表位置）" style="text;strokeColor=none;fillColor=none;align=left;verticalAlign=middle;spacingLeft=4;spacingRight=4;overflow=hidden;points=[[0,0.5],[1,0.5]];portConstraint=eastwest;rotatable=0;fontSize=18;" parent="un4hN7DEQfM4jxaacSA7-2" vertex="1">
                    <mxGeometry y="90" width="496" height="30" as="geometry"/>
                </mxCell>
                <mxCell id="un4hN7DEQfM4jxaacSA7-7" value="mng_flag（管理连接线程标志）" style="text;strokeColor=none;fillColor=none;align=left;verticalAlign=middle;spacingLeft=4;spacingRight=4;overflow=hidden;points=[[0,0.5],[1,0.5]];portConstraint=eastwest;rotatable=0;fontSize=18;" parent="un4hN7DEQfM4jxaacSA7-2" vertex="1">
                    <mxGeometry y="120" width="496" height="30" as="geometry"/>
                </mxCell>
                <mxCell id="un4hN7DEQfM4jxaacSA7-8" value="keep_flag（保持心跳线程标志）" style="text;strokeColor=none;fillColor=none;align=left;verticalAlign=middle;spacingLeft=4;spacingRight=4;overflow=hidden;points=[[0,0.5],[1,0.5]];portConstraint=eastwest;rotatable=0;fontSize=18;" parent="un4hN7DEQfM4jxaacSA7-2" vertex="1">
                    <mxGeometry y="150" width="496" height="30" as="geometry"/>
                </mxCell>
                <mxCell id="un4hN7DEQfM4jxaacSA7-9" value="mng_tid（管理连接线程ID）" style="text;strokeColor=none;fillColor=none;align=left;verticalAlign=middle;spacingLeft=4;spacingRight=4;overflow=hidden;points=[[0,0.5],[1,0.5]];portConstraint=eastwest;rotatable=0;fontSize=18;" parent="un4hN7DEQfM4jxaacSA7-2" vertex="1">
                    <mxGeometry y="180" width="496" height="30" as="geometry"/>
                </mxCell>
                <mxCell id="un4hN7DEQfM4jxaacSA7-10" value="keep_tid（保持心跳线程ID）" style="text;strokeColor=none;fillColor=none;align=left;verticalAlign=middle;spacingLeft=4;spacingRight=4;overflow=hidden;points=[[0,0.5],[1,0.5]];portConstraint=eastwest;rotatable=0;fontSize=18;" parent="un4hN7DEQfM4jxaacSA7-2" vertex="1">
                    <mxGeometry y="210" width="496" height="30" as="geometry"/>
                </mxCell>
                <mxCell id="un4hN7DEQfM4jxaacSA7-11" value="serve_addr（存放服务器IP和port）" style="text;strokeColor=none;fillColor=none;align=left;verticalAlign=middle;spacingLeft=4;spacingRight=4;overflow=hidden;points=[[0,0.5],[1,0.5]];portConstraint=eastwest;rotatable=0;fontSize=18;" parent="un4hN7DEQfM4jxaacSA7-2" vertex="1">
                    <mxGeometry y="240" width="496" height="30" as="geometry"/>
                </mxCell>
                <mxCell id="un4hN7DEQfM4jxaacSA7-12" value="mng_client_table[TCP_MAX_CLIENT]（存放客户端信息表）" style="text;strokeColor=none;fillColor=none;align=left;verticalAlign=middle;spacingLeft=4;spacingRight=4;overflow=hidden;points=[[0,0.5],[1,0.5]];portConstraint=eastwest;rotatable=0;fontSize=18;" parent="un4hN7DEQfM4jxaacSA7-2" vertex="1">
                    <mxGeometry y="270" width="496" height="30" as="geometry"/>
                </mxCell>
                <mxCell id="un4hN7DEQfM4jxaacSA7-13" value="keep_max_time（最大心跳间隔时间）" style="text;strokeColor=none;fillColor=none;align=left;verticalAlign=middle;spacingLeft=4;spacingRight=4;overflow=hidden;points=[[0,0.5],[1,0.5]];portConstraint=eastwest;rotatable=0;fontSize=18;" parent="un4hN7DEQfM4jxaacSA7-2" vertex="1">
                    <mxGeometry y="300" width="496" height="30" as="geometry"/>
                </mxCell>
                <mxCell id="un4hN7DEQfM4jxaacSA7-14" value="serve_fds（存放需监听文件描述符集合）" style="text;strokeColor=none;fillColor=none;align=left;verticalAlign=middle;spacingLeft=4;spacingRight=4;overflow=hidden;points=[[0,0.5],[1,0.5]];portConstraint=eastwest;rotatable=0;fontSize=18;" parent="un4hN7DEQfM4jxaacSA7-2" vertex="1">
                    <mxGeometry y="330" width="496" height="30" as="geometry"/>
                </mxCell>
                <mxCell id="un4hN7DEQfM4jxaacSA7-18" value="结构体 mng_clients_info" style="swimlane;fontStyle=0;childLayout=stackLayout;horizontal=1;startSize=30;horizontalStack=0;resizeParent=1;resizeParentMax=0;resizeLast=0;collapsible=1;marginBottom=0;fontSize=18;strokeWidth=2;" parent="un4hN7DEQfM4jxaacSA7-1" vertex="1">
                    <mxGeometry x="1402" y="295" width="320" height="300" as="geometry">
                        <mxRectangle x="127" y="70" width="221" height="30" as="alternateBounds"/>
                    </mxGeometry>
                </mxCell>
                <mxCell id="un4hN7DEQfM4jxaacSA7-19" value="client_fd（客户端socket）" style="text;strokeColor=none;fillColor=none;align=left;verticalAlign=middle;spacingLeft=4;spacingRight=4;overflow=hidden;points=[[0,0.5],[1,0.5]];portConstraint=eastwest;rotatable=0;fontSize=18;" parent="un4hN7DEQfM4jxaacSA7-18" vertex="1">
                    <mxGeometry y="30" width="320" height="30" as="geometry"/>
                </mxCell>
                <mxCell id="un4hN7DEQfM4jxaacSA7-20" value="is_online（客户端在线与否）" style="text;strokeColor=none;fillColor=none;align=left;verticalAlign=middle;spacingLeft=4;spacingRight=4;overflow=hidden;points=[[0,0.5],[1,0.5]];portConstraint=eastwest;rotatable=0;fontSize=18;" parent="un4hN7DEQfM4jxaacSA7-18" vertex="1">
                    <mxGeometry y="60" width="320" height="30" as="geometry"/>
                </mxCell>
                <mxCell id="un4hN7DEQfM4jxaacSA7-21" value="commit_flag（上报消息队列线程标志）" style="text;strokeColor=none;fillColor=none;align=left;verticalAlign=middle;spacingLeft=4;spacingRight=4;overflow=hidden;points=[[0,0.5],[1,0.5]];portConstraint=eastwest;rotatable=0;fontSize=18;" parent="un4hN7DEQfM4jxaacSA7-18" vertex="1">
                    <mxGeometry y="90" width="320" height="30" as="geometry"/>
                </mxCell>
                <mxCell id="un4hN7DEQfM4jxaacSA7-22" value="commit_tid（上报消息队列线程ID）" style="text;strokeColor=none;fillColor=none;align=left;verticalAlign=middle;spacingLeft=4;spacingRight=4;overflow=hidden;points=[[0,0.5],[1,0.5]];portConstraint=eastwest;rotatable=0;fontSize=18;" parent="un4hN7DEQfM4jxaacSA7-18" vertex="1">
                    <mxGeometry y="120" width="320" height="30" as="geometry"/>
                </mxCell>
                <mxCell id="un4hN7DEQfM4jxaacSA7-23" value="s_fifo（存储客户端信息的环形fifo）" style="text;strokeColor=none;fillColor=none;align=left;verticalAlign=middle;spacingLeft=4;spacingRight=4;overflow=hidden;points=[[0,0.5],[1,0.5]];portConstraint=eastwest;rotatable=0;fontSize=18;" parent="un4hN7DEQfM4jxaacSA7-18" vertex="1">
                    <mxGeometry y="150" width="320" height="30" as="geometry"/>
                </mxCell>
                <mxCell id="un4hN7DEQfM4jxaacSA7-24" value="keep_last_time（最近一次心跳时间戳）" style="text;strokeColor=none;fillColor=none;align=left;verticalAlign=middle;spacingLeft=4;spacingRight=4;overflow=hidden;points=[[0,0.5],[1,0.5]];portConstraint=eastwest;rotatable=0;fontSize=18;" parent="un4hN7DEQfM4jxaacSA7-18" vertex="1">
                    <mxGeometry y="180" width="320" height="30" as="geometry"/>
                </mxCell>
                <mxCell id="un4hN7DEQfM4jxaacSA7-32" value="client_addr（存储客户端IP和port）" style="text;strokeColor=none;fillColor=none;align=left;verticalAlign=middle;spacingLeft=4;spacingRight=4;overflow=hidden;points=[[0,0.5],[1,0.5]];portConstraint=eastwest;rotatable=0;fontSize=18;" parent="un4hN7DEQfM4jxaacSA7-18" vertex="1">
                    <mxGeometry y="210" width="320" height="30" as="geometry"/>
                </mxCell>
                <mxCell id="un4hN7DEQfM4jxaacSA7-33" value="client_addr（存储客户端IP和port）" style="text;strokeColor=none;fillColor=none;align=left;verticalAlign=middle;spacingLeft=4;spacingRight=4;overflow=hidden;points=[[0,0.5],[1,0.5]];portConstraint=eastwest;rotatable=0;fontSize=18;" parent="un4hN7DEQfM4jxaacSA7-18" vertex="1">
                    <mxGeometry y="240" width="320" height="30" as="geometry"/>
                </mxCell>
                <mxCell id="O2_Z6szDIbyAxI_acswC-3" value="hip（hip网络协议封装）" style="text;strokeColor=none;fillColor=none;align=left;verticalAlign=middle;spacingLeft=4;spacingRight=4;overflow=hidden;points=[[0,0.5],[1,0.5]];portConstraint=eastwest;rotatable=0;fontSize=18;" parent="un4hN7DEQfM4jxaacSA7-18" vertex="1">
                    <mxGeometry y="270" width="320" height="30" as="geometry"/>
                </mxCell>
                <mxCell id="un4hN7DEQfM4jxaacSA7-30" value="" style="endArrow=none;html=1;fontSize=18;entryX=1.002;entryY=0.033;entryDx=0;entryDy=0;exitX=0;exitY=-0.033;exitDx=0;exitDy=0;strokeWidth=2;entryPerimeter=0;exitPerimeter=0;" parent="un4hN7DEQfM4jxaacSA7-1" source="un4hN7DEQfM4jxaacSA7-19" target="un4hN7DEQfM4jxaacSA7-12" edge="1">
                    <mxGeometry width="50" height="50" relative="1" as="geometry">
                        <mxPoint x="1205" y="572" as="sourcePoint"/>
                        <mxPoint x="1255" y="522" as="targetPoint"/>
                    </mxGeometry>
                </mxCell>
                <mxCell id="un4hN7DEQfM4jxaacSA7-31" value="" style="endArrow=none;html=1;fontSize=18;entryX=0.998;entryY=-0.133;entryDx=0;entryDy=0;exitX=0;exitY=1;exitDx=0;exitDy=0;strokeWidth=2;entryPerimeter=0;" parent="un4hN7DEQfM4jxaacSA7-1" source="un4hN7DEQfM4jxaacSA7-18" target="un4hN7DEQfM4jxaacSA7-13" edge="1">
                    <mxGeometry width="50" height="50" relative="1" as="geometry">
                        <mxPoint x="1473" y="467" as="sourcePoint"/>
                        <mxPoint x="1349" y="545" as="targetPoint"/>
                    </mxGeometry>
                </mxCell>
                <mxCell id="un4hN7DEQfM4jxaacSA7-118" value="结构体 led" style="swimlane;fontStyle=0;childLayout=stackLayout;horizontal=1;startSize=30;horizontalStack=0;resizeParent=1;resizeParentMax=0;resizeLast=0;collapsible=1;marginBottom=0;fontSize=18;strokeWidth=2;" parent="un4hN7DEQfM4jxaacSA7-1" vertex="1">
                    <mxGeometry x="-540" y="46" width="507" height="204" as="geometry">
                        <mxRectangle x="-592" y="337" width="110" height="30" as="alternateBounds"/>
                    </mxGeometry>
                </mxCell>
                <mxCell id="un4hN7DEQfM4jxaacSA7-119" value="handle_flag（led处理线程标志）" style="text;strokeColor=none;fillColor=none;align=left;verticalAlign=middle;spacingLeft=4;spacingRight=4;overflow=hidden;points=[[0,0.5],[1,0.5]];portConstraint=eastwest;rotatable=0;fontSize=18;" parent="un4hN7DEQfM4jxaacSA7-118" vertex="1">
                    <mxGeometry y="30" width="507" height="30" as="geometry"/>
                </mxCell>
                <mxCell id="un4hN7DEQfM4jxaacSA7-120" value="led_count（结构体中的真实led数量）" style="text;strokeColor=none;fillColor=none;align=left;verticalAlign=middle;spacingLeft=4;spacingRight=4;overflow=hidden;points=[[0,0.5],[1,0.5]];portConstraint=eastwest;rotatable=0;fontSize=18;" parent="un4hN7DEQfM4jxaacSA7-118" vertex="1">
                    <mxGeometry y="60" width="507" height="30" as="geometry"/>
                </mxCell>
                <mxCell id="un4hN7DEQfM4jxaacSA7-121" value="leds_sort[LED_NUMBER_COUNT]（结构体中的led具体颜色）" style="text;strokeColor=none;fillColor=none;align=left;verticalAlign=middle;spacingLeft=4;spacingRight=4;overflow=hidden;points=[[0,0.5],[1,0.5]];portConstraint=eastwest;rotatable=0;fontSize=18;" parent="un4hN7DEQfM4jxaacSA7-118" vertex="1">
                    <mxGeometry y="90" width="507" height="38" as="geometry"/>
                </mxCell>
                <mxCell id="un4hN7DEQfM4jxaacSA7-122" value="handle_td（led处理线程ID）" style="text;strokeColor=none;fillColor=none;align=left;verticalAlign=middle;spacingLeft=4;spacingRight=4;overflow=hidden;points=[[0,0.5],[1,0.5]];portConstraint=eastwest;rotatable=0;fontSize=18;" parent="un4hN7DEQfM4jxaacSA7-118" vertex="1">
                    <mxGeometry y="128" width="507" height="38" as="geometry"/>
                </mxCell>
                <mxCell id="un4hN7DEQfM4jxaacSA7-125" value="led_mng（实际led）" style="text;strokeColor=none;fillColor=none;align=left;verticalAlign=middle;spacingLeft=4;spacingRight=4;overflow=hidden;points=[[0,0.5],[1,0.5]];portConstraint=eastwest;rotatable=0;fontSize=18;" parent="un4hN7DEQfM4jxaacSA7-118" vertex="1">
                    <mxGeometry y="166" width="507" height="38" as="geometry"/>
                </mxCell>
                <mxCell id="un4hN7DEQfM4jxaacSA7-126" value="" style="endArrow=none;html=1;fontSize=18;strokeWidth=2;entryX=0.998;entryY=0.184;entryDx=0;entryDy=0;entryPerimeter=0;exitX=0.015;exitY=0;exitDx=0;exitDy=0;exitPerimeter=0;" parent="un4hN7DEQfM4jxaacSA7-1" source="un4hN7DEQfM4jxaacSA7-129" target="un4hN7DEQfM4jxaacSA7-125" edge="1">
                    <mxGeometry width="50" height="50" relative="1" as="geometry">
                        <mxPoint x="335" y="221" as="sourcePoint"/>
                        <mxPoint x="125" y="33" as="targetPoint"/>
                    </mxGeometry>
                </mxCell>
                <mxCell id="un4hN7DEQfM4jxaacSA7-127" value="" style="endArrow=none;html=1;fontSize=18;strokeWidth=2;entryX=1.002;entryY=0.974;entryDx=0;entryDy=0;entryPerimeter=0;exitX=0.003;exitY=0.967;exitDx=0;exitDy=0;exitPerimeter=0;" parent="un4hN7DEQfM4jxaacSA7-1" source="un4hN7DEQfM4jxaacSA7-130" target="un4hN7DEQfM4jxaacSA7-125" edge="1">
                    <mxGeometry width="50" height="50" relative="1" as="geometry">
                        <mxPoint x="343.7739999999999" y="312.0100000000002" as="sourcePoint"/>
                        <mxPoint x="241" y="254" as="targetPoint"/>
                    </mxGeometry>
                </mxCell>
                <mxCell id="un4hN7DEQfM4jxaacSA7-128" value="结构体 led_mng" style="swimlane;fontStyle=0;childLayout=stackLayout;horizontal=1;startSize=30;horizontalStack=0;resizeParent=1;resizeParentMax=0;resizeLast=0;collapsible=1;marginBottom=0;fontSize=18;strokeWidth=2;" parent="un4hN7DEQfM4jxaacSA7-1" vertex="1">
                    <mxGeometry x="9" y="216" width="265" height="90" as="geometry">
                        <mxRectangle x="-238" y="362" width="155" height="30" as="alternateBounds"/>
                    </mxGeometry>
                </mxCell>
                <mxCell id="un4hN7DEQfM4jxaacSA7-129" value="led_green（led具体属性的封装）" style="text;strokeColor=none;fillColor=none;align=left;verticalAlign=middle;spacingLeft=4;spacingRight=4;overflow=hidden;points=[[0,0.5],[1,0.5]];portConstraint=eastwest;rotatable=0;fontSize=18;" parent="un4hN7DEQfM4jxaacSA7-128" vertex="1">
                    <mxGeometry y="30" width="265" height="30" as="geometry"/>
                </mxCell>
                <mxCell id="un4hN7DEQfM4jxaacSA7-130" value="led_red（led具体属性的封装）" style="text;strokeColor=none;fillColor=none;align=left;verticalAlign=middle;spacingLeft=4;spacingRight=4;overflow=hidden;points=[[0,0.5],[1,0.5]];portConstraint=eastwest;rotatable=0;fontSize=18;" parent="un4hN7DEQfM4jxaacSA7-128" vertex="1">
                    <mxGeometry y="60" width="265" height="30" as="geometry"/>
                </mxCell>
                <mxCell id="un4hN7DEQfM4jxaacSA7-132" value="" style="endArrow=none;html=1;fontSize=18;strokeWidth=2;exitX=1;exitY=0;exitDx=0;exitDy=0;entryX=0.01;entryY=-0.033;entryDx=0;entryDy=0;entryPerimeter=0;" parent="un4hN7DEQfM4jxaacSA7-1" source="un4hN7DEQfM4jxaacSA7-128" target="un4hN7DEQfM4jxaacSA7-135" edge="1">
                    <mxGeometry width="50" height="50" relative="1" as="geometry">
                        <mxPoint x="596" y="84" as="sourcePoint"/>
                        <mxPoint x="641" y="147" as="targetPoint"/>
                    </mxGeometry>
                </mxCell>
                <mxCell id="un4hN7DEQfM4jxaacSA7-133" value="" style="endArrow=none;html=1;fontSize=18;strokeWidth=2;exitX=1;exitY=-0.1;exitDx=0;exitDy=0;exitPerimeter=0;entryX=-0.004;entryY=1.011;entryDx=0;entryDy=0;entryPerimeter=0;" parent="un4hN7DEQfM4jxaacSA7-1" source="un4hN7DEQfM4jxaacSA7-129" target="un4hN7DEQfM4jxaacSA7-141" edge="1">
                    <mxGeometry width="50" height="50" relative="1" as="geometry">
                        <mxPoint x="344" y="84" as="sourcePoint"/>
                        <mxPoint x="659" y="270" as="targetPoint"/>
                    </mxGeometry>
                </mxCell>
                <mxCell id="un4hN7DEQfM4jxaacSA7-134" value="结构体 led_item_conf" style="swimlane;fontStyle=0;childLayout=stackLayout;horizontal=1;startSize=30;horizontalStack=0;resizeParent=1;resizeParentMax=0;resizeLast=0;collapsible=1;marginBottom=0;fontSize=18;strokeWidth=2;" parent="un4hN7DEQfM4jxaacSA7-1" vertex="1">
                    <mxGeometry x="325" y="46" width="306" height="270" as="geometry">
                        <mxRectangle x="78" y="362" width="198" height="30" as="alternateBounds"/>
                    </mxGeometry>
                </mxCell>
                <mxCell id="un4hN7DEQfM4jxaacSA7-135" value="dev_name（具体led文件的路径）" style="text;strokeColor=none;fillColor=none;align=left;verticalAlign=middle;spacingLeft=4;spacingRight=4;overflow=hidden;points=[[0,0.5],[1,0.5]];portConstraint=eastwest;rotatable=0;fontSize=18;" parent="un4hN7DEQfM4jxaacSA7-134" vertex="1">
                    <mxGeometry y="30" width="306" height="30" as="geometry"/>
                </mxCell>
                <mxCell id="un4hN7DEQfM4jxaacSA7-136" value="sort（具体led的种类，红、绿）" style="text;strokeColor=none;fillColor=none;align=left;verticalAlign=middle;spacingLeft=4;spacingRight=4;overflow=hidden;points=[[0,0.5],[1,0.5]];portConstraint=eastwest;rotatable=0;fontSize=18;" parent="un4hN7DEQfM4jxaacSA7-134" vertex="1">
                    <mxGeometry y="60" width="306" height="30" as="geometry"/>
                </mxCell>
                <mxCell id="un4hN7DEQfM4jxaacSA7-137" value="mode（led的运行模式，点灯、呼吸）" style="text;strokeColor=none;fillColor=none;align=left;verticalAlign=middle;spacingLeft=4;spacingRight=4;overflow=hidden;points=[[0,0.5],[1,0.5]];portConstraint=eastwest;rotatable=0;fontSize=18;" parent="un4hN7DEQfM4jxaacSA7-134" vertex="1">
                    <mxGeometry y="90" width="306" height="30" as="geometry"/>
                </mxCell>
                <mxCell id="un4hN7DEQfM4jxaacSA7-138" value="state（led的状态，亮、灭）" style="text;strokeColor=none;fillColor=none;align=left;verticalAlign=middle;spacingLeft=4;spacingRight=4;overflow=hidden;points=[[0,0.5],[1,0.5]];portConstraint=eastwest;rotatable=0;fontSize=18;" parent="un4hN7DEQfM4jxaacSA7-134" vertex="1">
                    <mxGeometry y="120" width="306" height="30" as="geometry"/>
                </mxCell>
                <mxCell id="un4hN7DEQfM4jxaacSA7-142" value="speed（led呼吸模式下的速率）" style="text;strokeColor=none;fillColor=none;align=left;verticalAlign=middle;spacingLeft=4;spacingRight=4;overflow=hidden;points=[[0,0.5],[1,0.5]];portConstraint=eastwest;rotatable=0;fontSize=18;" parent="un4hN7DEQfM4jxaacSA7-134" vertex="1">
                    <mxGeometry y="150" width="306" height="30" as="geometry"/>
                </mxCell>
                <mxCell id="un4hN7DEQfM4jxaacSA7-139" value="timer（定时器id，实现呼吸效果）" style="text;strokeColor=none;fillColor=none;align=left;verticalAlign=middle;spacingLeft=4;spacingRight=4;overflow=hidden;points=[[0,0.5],[1,0.5]];portConstraint=eastwest;rotatable=0;fontSize=18;" parent="un4hN7DEQfM4jxaacSA7-134" vertex="1">
                    <mxGeometry y="180" width="306" height="30" as="geometry"/>
                </mxCell>
                <mxCell id="un4hN7DEQfM4jxaacSA7-140" value="evp(设置到期的信号种类，回调函数)" style="text;strokeColor=none;fillColor=none;align=left;verticalAlign=middle;spacingLeft=4;spacingRight=4;overflow=hidden;points=[[0,0.5],[1,0.5]];portConstraint=eastwest;rotatable=0;fontSize=18;" parent="un4hN7DEQfM4jxaacSA7-134" vertex="1">
                    <mxGeometry y="210" width="306" height="30" as="geometry"/>
                </mxCell>
                <mxCell id="un4hN7DEQfM4jxaacSA7-141" value="ts（定时器的时间设置）" style="text;strokeColor=none;fillColor=none;align=left;verticalAlign=middle;spacingLeft=4;spacingRight=4;overflow=hidden;points=[[0,0.5],[1,0.5]];portConstraint=eastwest;rotatable=0;fontSize=18;" parent="un4hN7DEQfM4jxaacSA7-134" vertex="1">
                    <mxGeometry y="240" width="306" height="30" as="geometry"/>
                </mxCell>
                <mxCell id="un4hN7DEQfM4jxaacSA7-143" value="结构体 tty" style="swimlane;fontStyle=0;childLayout=stackLayout;horizontal=1;startSize=30;horizontalStack=0;resizeParent=1;resizeParentMax=0;resizeLast=0;collapsible=1;marginBottom=0;fontSize=18;strokeWidth=2;" parent="un4hN7DEQfM4jxaacSA7-1" vertex="1">
                    <mxGeometry x="-823" y="-761" width="322" height="300" as="geometry">
                        <mxRectangle x="-378.5" y="-701" width="105" height="30" as="alternateBounds"/>
                    </mxGeometry>
                </mxCell>
                <mxCell id="un4hN7DEQfM4jxaacSA7-144" value="tty_fd（串口结点文件描述符）" style="text;strokeColor=none;fillColor=none;align=left;verticalAlign=middle;spacingLeft=4;spacingRight=4;overflow=hidden;points=[[0,0.5],[1,0.5]];portConstraint=eastwest;rotatable=0;fontSize=18;" parent="un4hN7DEQfM4jxaacSA7-143" vertex="1">
                    <mxGeometry y="30" width="322" height="30" as="geometry"/>
                </mxCell>
                <mxCell id="un4hN7DEQfM4jxaacSA7-145" value="recive_buff（串口接受数据缓存）" style="text;strokeColor=none;fillColor=none;align=left;verticalAlign=middle;spacingLeft=4;spacingRight=4;overflow=hidden;points=[[0,0.5],[1,0.5]];portConstraint=eastwest;rotatable=0;fontSize=18;" parent="un4hN7DEQfM4jxaacSA7-143" vertex="1">
                    <mxGeometry y="60" width="322" height="30" as="geometry"/>
                </mxCell>
                <mxCell id="un4hN7DEQfM4jxaacSA7-146" value="send_buff（串口发送数据缓存）" style="text;strokeColor=none;fillColor=none;align=left;verticalAlign=middle;spacingLeft=4;spacingRight=4;overflow=hidden;points=[[0,0.5],[1,0.5]];portConstraint=eastwest;rotatable=0;fontSize=18;" parent="un4hN7DEQfM4jxaacSA7-143" vertex="1">
                    <mxGeometry y="90" width="322" height="30" as="geometry"/>
                </mxCell>
                <mxCell id="un4hN7DEQfM4jxaacSA7-147" value="recive_td（接受串口数据线程ID）" style="text;strokeColor=none;fillColor=none;align=left;verticalAlign=middle;spacingLeft=4;spacingRight=4;overflow=hidden;points=[[0,0.5],[1,0.5]];portConstraint=eastwest;rotatable=0;fontSize=18;" parent="un4hN7DEQfM4jxaacSA7-143" vertex="1">
                    <mxGeometry y="120" width="322" height="30" as="geometry"/>
                </mxCell>
                <mxCell id="un4hN7DEQfM4jxaacSA7-148" value="handle_td（处理串口数据线程ID）" style="text;strokeColor=none;fillColor=none;align=left;verticalAlign=middle;spacingLeft=4;spacingRight=4;overflow=hidden;points=[[0,0.5],[1,0.5]];portConstraint=eastwest;rotatable=0;fontSize=18;" parent="un4hN7DEQfM4jxaacSA7-143" vertex="1">
                    <mxGeometry y="150" width="322" height="30" as="geometry"/>
                </mxCell>
                <mxCell id="un4hN7DEQfM4jxaacSA7-149" value="send_td（发送串口数据ID）" style="text;strokeColor=none;fillColor=none;align=left;verticalAlign=middle;spacingLeft=4;spacingRight=4;overflow=hidden;points=[[0,0.5],[1,0.5]];portConstraint=eastwest;rotatable=0;fontSize=18;" parent="un4hN7DEQfM4jxaacSA7-143" vertex="1">
                    <mxGeometry y="180" width="322" height="30" as="geometry"/>
                </mxCell>
                <mxCell id="un4hN7DEQfM4jxaacSA7-150" value="r_fifo（存储接受串口数据的环形buff）" style="text;strokeColor=none;fillColor=none;align=left;verticalAlign=middle;spacingLeft=4;spacingRight=4;overflow=hidden;points=[[0,0.5],[1,0.5]];portConstraint=eastwest;rotatable=0;fontSize=18;" parent="un4hN7DEQfM4jxaacSA7-143" vertex="1">
                    <mxGeometry y="210" width="322" height="30" as="geometry"/>
                </mxCell>
                <mxCell id="un4hN7DEQfM4jxaacSA7-151" value="w_fifo（存储发送串口数据的环形buff）" style="text;strokeColor=none;fillColor=none;align=left;verticalAlign=middle;spacingLeft=4;spacingRight=4;overflow=hidden;points=[[0,0.5],[1,0.5]];portConstraint=eastwest;rotatable=0;fontSize=18;" parent="un4hN7DEQfM4jxaacSA7-143" vertex="1">
                    <mxGeometry y="240" width="322" height="30" as="geometry"/>
                </mxCell>
                <mxCell id="un4hN7DEQfM4jxaacSA7-152" value="hup_frame（hup帧结构封装）" style="text;strokeColor=none;fillColor=none;align=left;verticalAlign=middle;spacingLeft=4;spacingRight=4;overflow=hidden;points=[[0,0.5],[1,0.5]];portConstraint=eastwest;rotatable=0;fontSize=18;" parent="un4hN7DEQfM4jxaacSA7-143" vertex="1">
                    <mxGeometry y="270" width="322" height="30" as="geometry"/>
                </mxCell>
                <mxCell id="un4hN7DEQfM4jxaacSA7-154" value="结构体 hup_protocol_type" style="swimlane;fontStyle=0;childLayout=stackLayout;horizontal=1;startSize=30;horizontalStack=0;resizeParent=1;resizeParentMax=0;resizeLast=0;collapsible=1;marginBottom=0;fontSize=18;strokeWidth=2;" parent="un4hN7DEQfM4jxaacSA7-1" vertex="1">
                    <mxGeometry x="-307" y="-644" width="322" height="180" as="geometry">
                        <mxRectangle x="13" y="-623" width="234" height="30" as="alternateBounds"/>
                    </mxGeometry>
                </mxCell>
                <mxCell id="un4hN7DEQfM4jxaacSA7-155" value="hdr_h（hup高位头部）" style="text;strokeColor=none;fillColor=none;align=left;verticalAlign=middle;spacingLeft=4;spacingRight=4;overflow=hidden;points=[[0,0.5],[1,0.5]];portConstraint=eastwest;rotatable=0;fontSize=18;" parent="un4hN7DEQfM4jxaacSA7-154" vertex="1">
                    <mxGeometry y="30" width="322" height="30" as="geometry"/>
                </mxCell>
                <mxCell id="un4hN7DEQfM4jxaacSA7-156" value="hdr_l（hup低位头部）" style="text;strokeColor=none;fillColor=none;align=left;verticalAlign=middle;spacingLeft=4;spacingRight=4;overflow=hidden;points=[[0,0.5],[1,0.5]];portConstraint=eastwest;rotatable=0;fontSize=18;" parent="un4hN7DEQfM4jxaacSA7-154" vertex="1">
                    <mxGeometry y="60" width="322" height="30" as="geometry"/>
                </mxCell>
                <mxCell id="un4hN7DEQfM4jxaacSA7-157" value="cmd（hup帧包含命令）" style="text;strokeColor=none;fillColor=none;align=left;verticalAlign=middle;spacingLeft=4;spacingRight=4;overflow=hidden;points=[[0,0.5],[1,0.5]];portConstraint=eastwest;rotatable=0;fontSize=18;" parent="un4hN7DEQfM4jxaacSA7-154" vertex="1">
                    <mxGeometry y="90" width="322" height="30" as="geometry"/>
                </mxCell>
                <mxCell id="un4hN7DEQfM4jxaacSA7-158" value="data_len（hup帧负载数据长度）" style="text;strokeColor=none;fillColor=none;align=left;verticalAlign=middle;spacingLeft=4;spacingRight=4;overflow=hidden;points=[[0,0.5],[1,0.5]];portConstraint=eastwest;rotatable=0;fontSize=18;" parent="un4hN7DEQfM4jxaacSA7-154" vertex="1">
                    <mxGeometry y="120" width="322" height="30" as="geometry"/>
                </mxCell>
                <mxCell id="un4hN7DEQfM4jxaacSA7-159" value="xor8（hup帧的校验位）" style="text;strokeColor=none;fillColor=none;align=left;verticalAlign=middle;spacingLeft=4;spacingRight=4;overflow=hidden;points=[[0,0.5],[1,0.5]];portConstraint=eastwest;rotatable=0;fontSize=18;" parent="un4hN7DEQfM4jxaacSA7-154" vertex="1">
                    <mxGeometry y="150" width="322" height="30" as="geometry"/>
                </mxCell>
                <mxCell id="un4hN7DEQfM4jxaacSA7-164" value="" style="endArrow=none;html=1;fontSize=18;strokeWidth=2;entryX=0;entryY=1;entryDx=0;entryDy=0;exitX=0.998;exitY=0.933;exitDx=0;exitDy=0;exitPerimeter=0;" parent="un4hN7DEQfM4jxaacSA7-1" source="un4hN7DEQfM4jxaacSA7-152" target="un4hN7DEQfM4jxaacSA7-154" edge="1">
                    <mxGeometry width="50" height="50" relative="1" as="geometry">
                        <mxPoint x="-319" y="-368" as="sourcePoint"/>
                        <mxPoint x="-310" y="-397" as="targetPoint"/>
                    </mxGeometry>
                </mxCell>
                <mxCell id="un4hN7DEQfM4jxaacSA7-165" value="" style="endArrow=none;html=1;fontSize=18;strokeWidth=2;entryX=0.002;entryY=0;entryDx=0;entryDy=0;entryPerimeter=0;exitX=1.002;exitY=0.133;exitDx=0;exitDy=0;exitPerimeter=0;" parent="un4hN7DEQfM4jxaacSA7-1" source="un4hN7DEQfM4jxaacSA7-152" target="un4hN7DEQfM4jxaacSA7-155" edge="1">
                    <mxGeometry width="50" height="50" relative="1" as="geometry">
                        <mxPoint x="-283" y="-380" as="sourcePoint"/>
                        <mxPoint x="-310" y="-397" as="targetPoint"/>
                    </mxGeometry>
                </mxCell>
                <mxCell id="un4hN7DEQfM4jxaacSA7-175" value="结构体 app" style="swimlane;fontStyle=0;childLayout=stackLayout;horizontal=1;startSize=30;horizontalStack=0;resizeParent=1;resizeParentMax=0;resizeLast=0;collapsible=1;marginBottom=0;fontSize=18;strokeWidth=2;" parent="un4hN7DEQfM4jxaacSA7-1" vertex="1">
                    <mxGeometry x="-774" y="-426" width="299" height="240" as="geometry"/>
                </mxCell>
                <mxCell id="un4hN7DEQfM4jxaacSA7-176" value="app_td（app线程ID）" style="text;strokeColor=none;fillColor=none;align=left;verticalAlign=middle;spacingLeft=4;spacingRight=4;overflow=hidden;points=[[0,0.5],[1,0.5]];portConstraint=eastwest;rotatable=0;fontSize=18;" parent="un4hN7DEQfM4jxaacSA7-175" vertex="1">
                    <mxGeometry y="30" width="299" height="30" as="geometry"/>
                </mxCell>
                <mxCell id="un4hN7DEQfM4jxaacSA7-177" value="app_flag（app线程标志）" style="text;strokeColor=none;fillColor=none;align=left;verticalAlign=middle;spacingLeft=4;spacingRight=4;overflow=hidden;points=[[0,0.5],[1,0.5]];portConstraint=eastwest;rotatable=0;fontSize=18;" parent="un4hN7DEQfM4jxaacSA7-175" vertex="1">
                    <mxGeometry y="60" width="299" height="30" as="geometry"/>
                </mxCell>
                <mxCell id="un4hN7DEQfM4jxaacSA7-178" value="msg_id（消息队列ID）" style="text;strokeColor=none;fillColor=none;align=left;verticalAlign=middle;spacingLeft=4;spacingRight=4;overflow=hidden;points=[[0,0.5],[1,0.5]];portConstraint=eastwest;rotatable=0;fontSize=18;" parent="un4hN7DEQfM4jxaacSA7-175" vertex="1">
                    <mxGeometry y="90" width="299" height="30" as="geometry"/>
                </mxCell>
                <mxCell id="un4hN7DEQfM4jxaacSA7-179" value="message（消息队列消息结构体）" style="text;strokeColor=none;fillColor=none;align=left;verticalAlign=middle;spacingLeft=4;spacingRight=4;overflow=hidden;points=[[0,0.5],[1,0.5]];portConstraint=eastwest;rotatable=0;fontSize=18;" parent="un4hN7DEQfM4jxaacSA7-175" vertex="1">
                    <mxGeometry y="120" width="299" height="30" as="geometry"/>
                </mxCell>
                <mxCell id="un4hN7DEQfM4jxaacSA7-180" value="uart（串口模块结构体）" style="text;strokeColor=none;fillColor=none;align=left;verticalAlign=middle;spacingLeft=4;spacingRight=4;overflow=hidden;points=[[0,0.5],[1,0.5]];portConstraint=eastwest;rotatable=0;fontSize=18;" parent="un4hN7DEQfM4jxaacSA7-175" vertex="1">
                    <mxGeometry y="150" width="299" height="30" as="geometry"/>
                </mxCell>
                <mxCell id="un4hN7DEQfM4jxaacSA7-181" value="led（led_app模块结构体）" style="text;strokeColor=none;fillColor=none;align=left;verticalAlign=middle;spacingLeft=4;spacingRight=4;overflow=hidden;points=[[0,0.5],[1,0.5]];portConstraint=eastwest;rotatable=0;fontSize=18;" parent="un4hN7DEQfM4jxaacSA7-175" vertex="1">
                    <mxGeometry y="180" width="299" height="30" as="geometry"/>
                </mxCell>
                <mxCell id="un4hN7DEQfM4jxaacSA7-182" value="cmds（解析app线程状态机结构体）" style="text;strokeColor=none;fillColor=none;align=left;verticalAlign=middle;spacingLeft=4;spacingRight=4;overflow=hidden;points=[[0,0.5],[1,0.5]];portConstraint=eastwest;rotatable=0;fontSize=18;" parent="un4hN7DEQfM4jxaacSA7-175" vertex="1">
                    <mxGeometry y="210" width="299" height="30" as="geometry"/>
                </mxCell>
                <mxCell id="un4hN7DEQfM4jxaacSA7-183" value="" style="endArrow=none;html=1;fontSize=18;strokeWidth=2;exitX=1.002;exitY=1;exitDx=0;exitDy=0;exitPerimeter=0;entryX=0;entryY=1;entryDx=0;entryDy=0;" parent="un4hN7DEQfM4jxaacSA7-1" source="un4hN7DEQfM4jxaacSA7-182" target="un4hN7DEQfM4jxaacSA7-185" edge="1">
                    <mxGeometry width="50" height="50" relative="1" as="geometry">
                        <mxPoint x="-551" y="-267" as="sourcePoint"/>
                        <mxPoint x="-395" y="-186" as="targetPoint"/>
                    </mxGeometry>
                </mxCell>
                <mxCell id="un4hN7DEQfM4jxaacSA7-184" value="" style="endArrow=none;html=1;fontSize=18;strokeWidth=2;exitX=1.002;exitY=0.013;exitDx=0;exitDy=0;exitPerimeter=0;entryX=-0.007;entryY=0.013;entryDx=0;entryDy=0;entryPerimeter=0;" parent="un4hN7DEQfM4jxaacSA7-1" source="un4hN7DEQfM4jxaacSA7-182" target="un4hN7DEQfM4jxaacSA7-186" edge="1">
                    <mxGeometry width="50" height="50" relative="1" as="geometry">
                        <mxPoint x="-551" y="-267" as="sourcePoint"/>
                        <mxPoint x="-402" y="-246" as="targetPoint"/>
                    </mxGeometry>
                </mxCell>
                <mxCell id="un4hN7DEQfM4jxaacSA7-185" value="结构体 cmd" style="swimlane;fontStyle=0;childLayout=stackLayout;horizontal=1;startSize=30;horizontalStack=0;resizeParent=1;resizeParentMax=0;resizeLast=0;collapsible=1;marginBottom=0;fontSize=18;strokeWidth=2;" parent="un4hN7DEQfM4jxaacSA7-1" vertex="1">
                    <mxGeometry x="-396" y="-279" width="262" height="120" as="geometry"/>
                </mxCell>
                <mxCell id="un4hN7DEQfM4jxaacSA7-186" value="led_cmds（led的命令结构体）" style="text;strokeColor=none;fillColor=none;align=left;verticalAlign=middle;spacingLeft=4;spacingRight=4;overflow=hidden;points=[[0,0.5],[1,0.5]];portConstraint=eastwest;rotatable=0;fontSize=18;" parent="un4hN7DEQfM4jxaacSA7-185" vertex="1">
                    <mxGeometry y="30" width="262" height="30" as="geometry"/>
                </mxCell>
                <mxCell id="un4hN7DEQfM4jxaacSA7-187" value="uart_cmds（uart的命令结构体）" style="text;strokeColor=none;fillColor=none;align=left;verticalAlign=middle;spacingLeft=4;spacingRight=4;overflow=hidden;points=[[0,0.5],[1,0.5]];portConstraint=eastwest;rotatable=0;fontSize=18;" parent="un4hN7DEQfM4jxaacSA7-185" vertex="1">
                    <mxGeometry y="60" width="262" height="30" as="geometry"/>
                </mxCell>
                <mxCell id="O2_Z6szDIbyAxI_acswC-0" value="inet_cmds（网络的命令结构体）" style="text;strokeColor=none;fillColor=none;align=left;verticalAlign=middle;spacingLeft=4;spacingRight=4;overflow=hidden;points=[[0,0.5],[1,0.5]];portConstraint=eastwest;rotatable=0;fontSize=18;" parent="un4hN7DEQfM4jxaacSA7-185" vertex="1">
                    <mxGeometry y="90" width="262" height="30" as="geometry"/>
                </mxCell>
                <mxCell id="quoVftJnNVVa7SOU51AK-0" value="&lt;font style=&quot;font-size: 21px&quot;&gt;&lt;b&gt;led_app模块&lt;br&gt;&lt;/b&gt;&lt;/font&gt;" style="text;html=1;align=center;verticalAlign=middle;resizable=0;points=[];autosize=1;strokeColor=none;fillColor=none;fontSize=15;" parent="un4hN7DEQfM4jxaacSA7-1" vertex="1">
                    <mxGeometry x="28" y="64" width="131" height="24" as="geometry"/>
                </mxCell>
                <mxCell id="quoVftJnNVVa7SOU51AK-2" value="uart_app模块" style="text;html=1;strokeColor=none;fillColor=none;align=center;verticalAlign=middle;whiteSpace=wrap;rounded=0;fontSize=21;fontStyle=1" parent="un4hN7DEQfM4jxaacSA7-1" vertex="1">
                    <mxGeometry x="-456" y="-757" width="300" height="70" as="geometry"/>
                </mxCell>
                <mxCell id="quoVftJnNVVa7SOU51AK-3" value="Linux网络编程 服务端思路" style="text;html=1;strokeColor=none;fillColor=none;align=center;verticalAlign=middle;whiteSpace=wrap;rounded=0;fontSize=21;fontStyle=1" parent="un4hN7DEQfM4jxaacSA7-1" vertex="1">
                    <mxGeometry x="1399" y="202" width="300" height="70" as="geometry"/>
                </mxCell>
                <mxCell id="YGP7-ok9dXWyamN5NRIe-4" value="结构体 tcp_client" style="swimlane;fontStyle=0;childLayout=stackLayout;horizontal=1;startSize=30;horizontalStack=0;resizeParent=1;resizeParentMax=0;resizeLast=0;collapsible=1;marginBottom=0;fontSize=18;strokeWidth=2;" parent="un4hN7DEQfM4jxaacSA7-1" vertex="1">
                    <mxGeometry x="157" y="-650" width="550" height="420" as="geometry">
                        <mxRectangle x="-474" y="-65" width="170" height="30" as="alternateBounds"/>
                    </mxGeometry>
                </mxCell>
                <mxCell id="YGP7-ok9dXWyamN5NRIe-5" value="msg_queue_id（消息队列ID）" style="text;strokeColor=none;fillColor=none;align=left;verticalAlign=middle;spacingLeft=4;spacingRight=4;overflow=hidden;points=[[0,0.5],[1,0.5]];portConstraint=eastwest;rotatable=0;fontSize=18;" parent="YGP7-ok9dXWyamN5NRIe-4" vertex="1">
                    <mxGeometry y="30" width="550" height="30" as="geometry"/>
                </mxCell>
                <mxCell id="YGP7-ok9dXWyamN5NRIe-6" value="comm_fd（同服务端通信的文件描述符）" style="text;strokeColor=none;fillColor=none;align=left;verticalAlign=middle;spacingLeft=4;spacingRight=4;overflow=hidden;points=[[0,0.5],[1,0.5]];portConstraint=eastwest;rotatable=0;fontSize=18;" parent="YGP7-ok9dXWyamN5NRIe-4" vertex="1">
                    <mxGeometry y="60" width="550" height="30" as="geometry"/>
                </mxCell>
                <mxCell id="YGP7-ok9dXWyamN5NRIe-7" value="connect_flag（连接并接受服务端数据线程标志）" style="text;strokeColor=none;fillColor=none;align=left;verticalAlign=middle;spacingLeft=4;spacingRight=4;overflow=hidden;points=[[0,0.5],[1,0.5]];portConstraint=eastwest;rotatable=0;fontSize=18;" parent="YGP7-ok9dXWyamN5NRIe-4" vertex="1">
                    <mxGeometry y="90" width="550" height="30" as="geometry"/>
                </mxCell>
                <mxCell id="YGP7-ok9dXWyamN5NRIe-16" value="keep_flag（保持与服务端心跳线程的标志）" style="text;strokeColor=none;fillColor=none;align=left;verticalAlign=middle;spacingLeft=4;spacingRight=4;overflow=hidden;points=[[0,0.5],[1,0.5]];portConstraint=eastwest;rotatable=0;fontSize=18;" parent="YGP7-ok9dXWyamN5NRIe-4" vertex="1">
                    <mxGeometry y="120" width="550" height="30" as="geometry"/>
                </mxCell>
                <mxCell id="YGP7-ok9dXWyamN5NRIe-10" value="commit_flag（上报消息队列线程标志）" style="text;strokeColor=none;fillColor=none;align=left;verticalAlign=middle;spacingLeft=4;spacingRight=4;overflow=hidden;points=[[0,0.5],[1,0.5]];portConstraint=eastwest;rotatable=0;fontSize=18;" parent="YGP7-ok9dXWyamN5NRIe-4" vertex="1">
                    <mxGeometry y="150" width="550" height="30" as="geometry"/>
                </mxCell>
                <mxCell id="YGP7-ok9dXWyamN5NRIe-8" value="connect_tid（连接并接受服务端数据线程ID）" style="text;strokeColor=none;fillColor=none;align=left;verticalAlign=middle;spacingLeft=4;spacingRight=4;overflow=hidden;points=[[0,0.5],[1,0.5]];portConstraint=eastwest;rotatable=0;fontSize=18;" parent="YGP7-ok9dXWyamN5NRIe-4" vertex="1">
                    <mxGeometry y="180" width="550" height="30" as="geometry"/>
                </mxCell>
                <mxCell id="YGP7-ok9dXWyamN5NRIe-9" value="keep_tid（保持与服务端心跳线程的ID）" style="text;strokeColor=none;fillColor=none;align=left;verticalAlign=middle;spacingLeft=4;spacingRight=4;overflow=hidden;points=[[0,0.5],[1,0.5]];portConstraint=eastwest;rotatable=0;fontSize=18;" parent="YGP7-ok9dXWyamN5NRIe-4" vertex="1">
                    <mxGeometry y="210" width="550" height="30" as="geometry"/>
                </mxCell>
                <mxCell id="YGP7-ok9dXWyamN5NRIe-11" value="commit_tid（上报消息队列线程ID）" style="text;strokeColor=none;fillColor=none;align=left;verticalAlign=middle;spacingLeft=4;spacingRight=4;overflow=hidden;points=[[0,0.5],[1,0.5]];portConstraint=eastwest;rotatable=0;fontSize=18;" parent="YGP7-ok9dXWyamN5NRIe-4" vertex="1">
                    <mxGeometry y="240" width="550" height="30" as="geometry"/>
                </mxCell>
                <mxCell id="YGP7-ok9dXWyamN5NRIe-12" value="c_fifo（存储服务端发送的数据的环形缓存区）" style="text;strokeColor=none;fillColor=none;align=left;verticalAlign=middle;spacingLeft=4;spacingRight=4;overflow=hidden;points=[[0,0.5],[1,0.5]];portConstraint=eastwest;rotatable=0;fontSize=18;" parent="YGP7-ok9dXWyamN5NRIe-4" vertex="1">
                    <mxGeometry y="270" width="550" height="30" as="geometry"/>
                </mxCell>
                <mxCell id="YGP7-ok9dXWyamN5NRIe-13" value="serve_addr（存放需绑定的服务器IP和端口）" style="text;strokeColor=none;fillColor=none;align=left;verticalAlign=middle;spacingLeft=4;spacingRight=4;overflow=hidden;points=[[0,0.5],[1,0.5]];portConstraint=eastwest;rotatable=0;fontSize=18;" parent="YGP7-ok9dXWyamN5NRIe-4" vertex="1">
                    <mxGeometry y="300" width="550" height="30" as="geometry"/>
                </mxCell>
                <mxCell id="YGP7-ok9dXWyamN5NRIe-14" value="keep_last_time（上一次服务器的心跳时间戳）" style="text;strokeColor=none;fillColor=none;align=left;verticalAlign=middle;spacingLeft=4;spacingRight=4;overflow=hidden;points=[[0,0.5],[1,0.5]];portConstraint=eastwest;rotatable=0;fontSize=18;" parent="YGP7-ok9dXWyamN5NRIe-4" vertex="1">
                    <mxGeometry y="330" width="550" height="30" as="geometry"/>
                </mxCell>
                <mxCell id="YGP7-ok9dXWyamN5NRIe-15" value="client_fds（存放客户端需要监听的文件描述符，如服务端socket）" style="text;strokeColor=none;fillColor=none;align=left;verticalAlign=middle;spacingLeft=4;spacingRight=4;overflow=hidden;points=[[0,0.5],[1,0.5]];portConstraint=eastwest;rotatable=0;fontSize=18;" parent="YGP7-ok9dXWyamN5NRIe-4" vertex="1">
                    <mxGeometry y="360" width="550" height="30" as="geometry"/>
                </mxCell>
                <mxCell id="O2_Z6szDIbyAxI_acswC-26" value="hip（hip网络协议封装）" style="text;strokeColor=none;fillColor=none;align=left;verticalAlign=middle;spacingLeft=4;spacingRight=4;overflow=hidden;points=[[0,0.5],[1,0.5]];portConstraint=eastwest;rotatable=0;fontSize=18;" parent="YGP7-ok9dXWyamN5NRIe-4" vertex="1">
                    <mxGeometry y="390" width="550" height="30" as="geometry"/>
                </mxCell>
                <mxCell id="YGP7-ok9dXWyamN5NRIe-17" value="Linux网络编程 客户端思路" style="text;html=1;strokeColor=none;fillColor=none;align=center;verticalAlign=middle;whiteSpace=wrap;rounded=0;fontSize=21;fontStyle=1" parent="un4hN7DEQfM4jxaacSA7-1" vertex="1">
                    <mxGeometry x="185" y="-736" width="300" height="70" as="geometry"/>
                </mxCell>
                <mxCell id="O2_Z6szDIbyAxI_acswC-4" value="" style="endArrow=none;html=1;strokeWidth=2;entryX=0;entryY=1;entryDx=0;entryDy=0;exitX=0.998;exitY=1.017;exitDx=0;exitDy=0;exitPerimeter=0;" parent="un4hN7DEQfM4jxaacSA7-1" source="O2_Z6szDIbyAxI_acswC-3" target="O2_Z6szDIbyAxI_acswC-6" edge="1">
                    <mxGeometry width="50" height="50" relative="1" as="geometry">
                        <mxPoint x="1735" y="609" as="sourcePoint"/>
                        <mxPoint x="1760" y="574" as="targetPoint"/>
                    </mxGeometry>
                </mxCell>
                <mxCell id="O2_Z6szDIbyAxI_acswC-5" value="" style="endArrow=none;html=1;strokeWidth=2;exitX=1;exitY=0.008;exitDx=0;exitDy=0;exitPerimeter=0;entryX=-0.002;entryY=0.027;entryDx=0;entryDy=0;entryPerimeter=0;" parent="un4hN7DEQfM4jxaacSA7-1" source="O2_Z6szDIbyAxI_acswC-3" target="O2_Z6szDIbyAxI_acswC-7" edge="1">
                    <mxGeometry width="50" height="50" relative="1" as="geometry">
                        <mxPoint x="1750" y="563" as="sourcePoint"/>
                        <mxPoint x="1816" y="524" as="targetPoint"/>
                    </mxGeometry>
                </mxCell>
                <mxCell id="O2_Z6szDIbyAxI_acswC-6" value="结构体 hip" style="swimlane;fontStyle=0;childLayout=stackLayout;horizontal=1;startSize=30;horizontalStack=0;resizeParent=1;resizeParentMax=0;resizeLast=0;collapsible=1;marginBottom=0;fontSize=18;strokeWidth=2;" parent="un4hN7DEQfM4jxaacSA7-1" vertex="1">
                    <mxGeometry x="1766" y="346" width="320" height="210" as="geometry">
                        <mxRectangle x="127" y="70" width="221" height="30" as="alternateBounds"/>
                    </mxGeometry>
                </mxCell>
                <mxCell id="O2_Z6szDIbyAxI_acswC-7" value="state（hip解析状态机解析）" style="text;strokeColor=none;fillColor=none;align=left;verticalAlign=middle;spacingLeft=4;spacingRight=4;overflow=hidden;points=[[0,0.5],[1,0.5]];portConstraint=eastwest;rotatable=0;fontSize=18;" parent="O2_Z6szDIbyAxI_acswC-6" vertex="1">
                    <mxGeometry y="30" width="320" height="30" as="geometry"/>
                </mxCell>
                <mxCell id="O2_Z6szDIbyAxI_acswC-8" value="read_len（hip状态机解析数据长度）" style="text;strokeColor=none;fillColor=none;align=left;verticalAlign=middle;spacingLeft=4;spacingRight=4;overflow=hidden;points=[[0,0.5],[1,0.5]];portConstraint=eastwest;rotatable=0;fontSize=18;" parent="O2_Z6szDIbyAxI_acswC-6" vertex="1">
                    <mxGeometry y="60" width="320" height="30" as="geometry"/>
                </mxCell>
                <mxCell id="O2_Z6szDIbyAxI_acswC-9" value="dev_type（设备的类型，tx，rx)" style="text;strokeColor=none;fillColor=none;align=left;verticalAlign=middle;spacingLeft=4;spacingRight=4;overflow=hidden;points=[[0,0.5],[1,0.5]];portConstraint=eastwest;rotatable=0;fontSize=18;" parent="O2_Z6szDIbyAxI_acswC-6" vertex="1">
                    <mxGeometry y="90" width="320" height="30" as="geometry"/>
                </mxCell>
                <mxCell id="O2_Z6szDIbyAxI_acswC-10" value="dev_id（设备的id）" style="text;strokeColor=none;fillColor=none;align=left;verticalAlign=middle;spacingLeft=4;spacingRight=4;overflow=hidden;points=[[0,0.5],[1,0.5]];portConstraint=eastwest;rotatable=0;fontSize=18;" parent="O2_Z6szDIbyAxI_acswC-6" vertex="1">
                    <mxGeometry y="120" width="320" height="30" as="geometry"/>
                </mxCell>
                <mxCell id="O2_Z6szDIbyAxI_acswC-11" value="cur_seq（当前序列号）" style="text;strokeColor=none;fillColor=none;align=left;verticalAlign=middle;spacingLeft=4;spacingRight=4;overflow=hidden;points=[[0,0.5],[1,0.5]];portConstraint=eastwest;rotatable=0;fontSize=18;" parent="O2_Z6szDIbyAxI_acswC-6" vertex="1">
                    <mxGeometry y="150" width="320" height="30" as="geometry"/>
                </mxCell>
                <mxCell id="O2_Z6szDIbyAxI_acswC-12" value="hip_frame（hip帧结构）" style="text;strokeColor=none;fillColor=none;align=left;verticalAlign=middle;spacingLeft=4;spacingRight=4;overflow=hidden;points=[[0,0.5],[1,0.5]];portConstraint=eastwest;rotatable=0;fontSize=18;" parent="O2_Z6szDIbyAxI_acswC-6" vertex="1">
                    <mxGeometry y="180" width="320" height="30" as="geometry"/>
                </mxCell>
                <mxCell id="O2_Z6szDIbyAxI_acswC-16" value="" style="endArrow=none;html=1;strokeWidth=2;exitX=1.001;exitY=1.033;exitDx=0;exitDy=0;exitPerimeter=0;entryX=0;entryY=1;entryDx=0;entryDy=0;" parent="un4hN7DEQfM4jxaacSA7-1" source="O2_Z6szDIbyAxI_acswC-12" target="O2_Z6szDIbyAxI_acswC-18" edge="1">
                    <mxGeometry width="50" height="50" relative="1" as="geometry">
                        <mxPoint x="1878" y="578" as="sourcePoint"/>
                        <mxPoint x="2140" y="606" as="targetPoint"/>
                    </mxGeometry>
                </mxCell>
                <mxCell id="O2_Z6szDIbyAxI_acswC-17" value="" style="endArrow=none;html=1;strokeWidth=2;entryX=1.004;entryY=-0.025;entryDx=0;entryDy=0;entryPerimeter=0;exitX=0.001;exitY=0.139;exitDx=0;exitDy=0;exitPerimeter=0;" parent="un4hN7DEQfM4jxaacSA7-1" source="O2_Z6szDIbyAxI_acswC-18" target="O2_Z6szDIbyAxI_acswC-12" edge="1">
                    <mxGeometry width="50" height="50" relative="1" as="geometry">
                        <mxPoint x="2145" y="505" as="sourcePoint"/>
                        <mxPoint x="1928" y="528" as="targetPoint"/>
                    </mxGeometry>
                </mxCell>
                <mxCell id="O2_Z6szDIbyAxI_acswC-18" value="结构体 hip_frame" style="swimlane;fontStyle=0;childLayout=stackLayout;horizontal=1;startSize=30;horizontalStack=0;resizeParent=1;resizeParentMax=0;resizeLast=0;collapsible=1;marginBottom=0;fontSize=18;strokeWidth=2;" parent="un4hN7DEQfM4jxaacSA7-1" vertex="1">
                    <mxGeometry x="2141" y="322" width="320" height="240" as="geometry">
                        <mxRectangle x="127" y="70" width="221" height="30" as="alternateBounds"/>
                    </mxGeometry>
                </mxCell>
                <mxCell id="O2_Z6szDIbyAxI_acswC-19" value="version（hip版本）" style="text;strokeColor=none;fillColor=none;align=left;verticalAlign=middle;spacingLeft=4;spacingRight=4;overflow=hidden;points=[[0,0.5],[1,0.5]];portConstraint=eastwest;rotatable=0;fontSize=18;" parent="O2_Z6szDIbyAxI_acswC-18" vertex="1">
                    <mxGeometry y="30" width="320" height="30" as="geometry"/>
                </mxCell>
                <mxCell id="O2_Z6szDIbyAxI_acswC-20" value="command（hip帧的命令）" style="text;strokeColor=none;fillColor=none;align=left;verticalAlign=middle;spacingLeft=4;spacingRight=4;overflow=hidden;points=[[0,0.5],[1,0.5]];portConstraint=eastwest;rotatable=0;fontSize=18;" parent="O2_Z6szDIbyAxI_acswC-18" vertex="1">
                    <mxGeometry y="60" width="320" height="30" as="geometry"/>
                </mxCell>
                <mxCell id="O2_Z6szDIbyAxI_acswC-21" value="length（hip帧的负载数据长度）" style="text;strokeColor=none;fillColor=none;align=left;verticalAlign=middle;spacingLeft=4;spacingRight=4;overflow=hidden;points=[[0,0.5],[1,0.5]];portConstraint=eastwest;rotatable=0;fontSize=18;" parent="O2_Z6szDIbyAxI_acswC-18" vertex="1">
                    <mxGeometry y="90" width="320" height="30" as="geometry"/>
                </mxCell>
                <mxCell id="O2_Z6szDIbyAxI_acswC-22" value="device_type（hip帧发送者的设备型号）" style="text;strokeColor=none;fillColor=none;align=left;verticalAlign=middle;spacingLeft=4;spacingRight=4;overflow=hidden;points=[[0,0.5],[1,0.5]];portConstraint=eastwest;rotatable=0;fontSize=18;" parent="O2_Z6szDIbyAxI_acswC-18" vertex="1">
                    <mxGeometry y="120" width="320" height="30" as="geometry"/>
                </mxCell>
                <mxCell id="O2_Z6szDIbyAxI_acswC-23" value="decive_id（hip帧发送者的设备id）" style="text;strokeColor=none;fillColor=none;align=left;verticalAlign=middle;spacingLeft=4;spacingRight=4;overflow=hidden;points=[[0,0.5],[1,0.5]];portConstraint=eastwest;rotatable=0;fontSize=18;" parent="O2_Z6szDIbyAxI_acswC-18" vertex="1">
                    <mxGeometry y="150" width="320" height="30" as="geometry"/>
                </mxCell>
                <mxCell id="O2_Z6szDIbyAxI_acswC-24" value="seq（hip帧的序列号）" style="text;strokeColor=none;fillColor=none;align=left;verticalAlign=middle;spacingLeft=4;spacingRight=4;overflow=hidden;points=[[0,0.5],[1,0.5]];portConstraint=eastwest;rotatable=0;fontSize=18;" parent="O2_Z6szDIbyAxI_acswC-18" vertex="1">
                    <mxGeometry y="180" width="320" height="30" as="geometry"/>
                </mxCell>
                <mxCell id="O2_Z6szDIbyAxI_acswC-25" value="payload（hip帧的负载数据）" style="text;strokeColor=none;fillColor=none;align=left;verticalAlign=middle;spacingLeft=4;spacingRight=4;overflow=hidden;points=[[0,0.5],[1,0.5]];portConstraint=eastwest;rotatable=0;fontSize=18;" parent="O2_Z6szDIbyAxI_acswC-18" vertex="1">
                    <mxGeometry y="210" width="320" height="30" as="geometry"/>
                </mxCell>
                <mxCell id="O2_Z6szDIbyAxI_acswC-29" value="结构体 hip" style="swimlane;fontStyle=0;childLayout=stackLayout;horizontal=1;startSize=30;horizontalStack=0;resizeParent=1;resizeParentMax=0;resizeLast=0;collapsible=1;marginBottom=0;fontSize=18;strokeWidth=2;" parent="un4hN7DEQfM4jxaacSA7-1" vertex="1">
                    <mxGeometry x="765" y="-442" width="320" height="210" as="geometry">
                        <mxRectangle x="127" y="70" width="221" height="30" as="alternateBounds"/>
                    </mxGeometry>
                </mxCell>
                <mxCell id="O2_Z6szDIbyAxI_acswC-30" value="state（hip解析状态机解析）" style="text;strokeColor=none;fillColor=none;align=left;verticalAlign=middle;spacingLeft=4;spacingRight=4;overflow=hidden;points=[[0,0.5],[1,0.5]];portConstraint=eastwest;rotatable=0;fontSize=18;" parent="O2_Z6szDIbyAxI_acswC-29" vertex="1">
                    <mxGeometry y="30" width="320" height="30" as="geometry"/>
                </mxCell>
                <mxCell id="O2_Z6szDIbyAxI_acswC-31" value="read_len（hip状态机解析数据长度）" style="text;strokeColor=none;fillColor=none;align=left;verticalAlign=middle;spacingLeft=4;spacingRight=4;overflow=hidden;points=[[0,0.5],[1,0.5]];portConstraint=eastwest;rotatable=0;fontSize=18;" parent="O2_Z6szDIbyAxI_acswC-29" vertex="1">
                    <mxGeometry y="60" width="320" height="30" as="geometry"/>
                </mxCell>
                <mxCell id="O2_Z6szDIbyAxI_acswC-32" value="dev_type（设备的类型，tx，rx)" style="text;strokeColor=none;fillColor=none;align=left;verticalAlign=middle;spacingLeft=4;spacingRight=4;overflow=hidden;points=[[0,0.5],[1,0.5]];portConstraint=eastwest;rotatable=0;fontSize=18;" parent="O2_Z6szDIbyAxI_acswC-29" vertex="1">
                    <mxGeometry y="90" width="320" height="30" as="geometry"/>
                </mxCell>
                <mxCell id="O2_Z6szDIbyAxI_acswC-33" value="dev_id（设备的id）" style="text;strokeColor=none;fillColor=none;align=left;verticalAlign=middle;spacingLeft=4;spacingRight=4;overflow=hidden;points=[[0,0.5],[1,0.5]];portConstraint=eastwest;rotatable=0;fontSize=18;" parent="O2_Z6szDIbyAxI_acswC-29" vertex="1">
                    <mxGeometry y="120" width="320" height="30" as="geometry"/>
                </mxCell>
                <mxCell id="O2_Z6szDIbyAxI_acswC-34" value="cur_seq（当前序列号）" style="text;strokeColor=none;fillColor=none;align=left;verticalAlign=middle;spacingLeft=4;spacingRight=4;overflow=hidden;points=[[0,0.5],[1,0.5]];portConstraint=eastwest;rotatable=0;fontSize=18;" parent="O2_Z6szDIbyAxI_acswC-29" vertex="1">
                    <mxGeometry y="150" width="320" height="30" as="geometry"/>
                </mxCell>
                <mxCell id="O2_Z6szDIbyAxI_acswC-35" value="hip_frame（hip帧结构）" style="text;strokeColor=none;fillColor=none;align=left;verticalAlign=middle;spacingLeft=4;spacingRight=4;overflow=hidden;points=[[0,0.5],[1,0.5]];portConstraint=eastwest;rotatable=0;fontSize=18;" parent="O2_Z6szDIbyAxI_acswC-29" vertex="1">
                    <mxGeometry y="180" width="320" height="30" as="geometry"/>
                </mxCell>
                <mxCell id="O2_Z6szDIbyAxI_acswC-36" value="" style="endArrow=none;html=1;strokeWidth=2;exitX=1.001;exitY=1.033;exitDx=0;exitDy=0;exitPerimeter=0;entryX=0.013;entryY=1;entryDx=0;entryDy=0;entryPerimeter=0;" parent="un4hN7DEQfM4jxaacSA7-1" source="O2_Z6szDIbyAxI_acswC-35" target="O2_Z6szDIbyAxI_acswC-45" edge="1">
                    <mxGeometry width="50" height="50" relative="1" as="geometry">
                        <mxPoint x="877" y="-210" as="sourcePoint"/>
                        <mxPoint x="1139" y="-182" as="targetPoint"/>
                    </mxGeometry>
                </mxCell>
                <mxCell id="O2_Z6szDIbyAxI_acswC-37" value="" style="endArrow=none;html=1;strokeWidth=2;entryX=1.004;entryY=-0.025;entryDx=0;entryDy=0;entryPerimeter=0;exitX=0.001;exitY=0.139;exitDx=0;exitDy=0;exitPerimeter=0;" parent="un4hN7DEQfM4jxaacSA7-1" source="O2_Z6szDIbyAxI_acswC-38" target="O2_Z6szDIbyAxI_acswC-35" edge="1">
                    <mxGeometry width="50" height="50" relative="1" as="geometry">
                        <mxPoint x="1144" y="-283" as="sourcePoint"/>
                        <mxPoint x="927" y="-260" as="targetPoint"/>
                    </mxGeometry>
                </mxCell>
                <mxCell id="O2_Z6szDIbyAxI_acswC-38" value="结构体 hip_frame" style="swimlane;fontStyle=0;childLayout=stackLayout;horizontal=1;startSize=30;horizontalStack=0;resizeParent=1;resizeParentMax=0;resizeLast=0;collapsible=1;marginBottom=0;fontSize=18;strokeWidth=2;" parent="un4hN7DEQfM4jxaacSA7-1" vertex="1">
                    <mxGeometry x="1140" y="-466" width="320" height="240" as="geometry">
                        <mxRectangle x="127" y="70" width="221" height="30" as="alternateBounds"/>
                    </mxGeometry>
                </mxCell>
                <mxCell id="O2_Z6szDIbyAxI_acswC-39" value="version（hip版本）" style="text;strokeColor=none;fillColor=none;align=left;verticalAlign=middle;spacingLeft=4;spacingRight=4;overflow=hidden;points=[[0,0.5],[1,0.5]];portConstraint=eastwest;rotatable=0;fontSize=18;" parent="O2_Z6szDIbyAxI_acswC-38" vertex="1">
                    <mxGeometry y="30" width="320" height="30" as="geometry"/>
                </mxCell>
                <mxCell id="O2_Z6szDIbyAxI_acswC-40" value="command（hip帧的命令）" style="text;strokeColor=none;fillColor=none;align=left;verticalAlign=middle;spacingLeft=4;spacingRight=4;overflow=hidden;points=[[0,0.5],[1,0.5]];portConstraint=eastwest;rotatable=0;fontSize=18;" parent="O2_Z6szDIbyAxI_acswC-38" vertex="1">
                    <mxGeometry y="60" width="320" height="30" as="geometry"/>
                </mxCell>
                <mxCell id="O2_Z6szDIbyAxI_acswC-41" value="length（hip帧的负载数据长度）" style="text;strokeColor=none;fillColor=none;align=left;verticalAlign=middle;spacingLeft=4;spacingRight=4;overflow=hidden;points=[[0,0.5],[1,0.5]];portConstraint=eastwest;rotatable=0;fontSize=18;" parent="O2_Z6szDIbyAxI_acswC-38" vertex="1">
                    <mxGeometry y="90" width="320" height="30" as="geometry"/>
                </mxCell>
                <mxCell id="O2_Z6szDIbyAxI_acswC-42" value="device_type（hip帧发送者的设备型号）" style="text;strokeColor=none;fillColor=none;align=left;verticalAlign=middle;spacingLeft=4;spacingRight=4;overflow=hidden;points=[[0,0.5],[1,0.5]];portConstraint=eastwest;rotatable=0;fontSize=18;" parent="O2_Z6szDIbyAxI_acswC-38" vertex="1">
                    <mxGeometry y="120" width="320" height="30" as="geometry"/>
                </mxCell>
                <mxCell id="O2_Z6szDIbyAxI_acswC-43" value="decive_id（hip帧发送者的设备id）" style="text;strokeColor=none;fillColor=none;align=left;verticalAlign=middle;spacingLeft=4;spacingRight=4;overflow=hidden;points=[[0,0.5],[1,0.5]];portConstraint=eastwest;rotatable=0;fontSize=18;" parent="O2_Z6szDIbyAxI_acswC-38" vertex="1">
                    <mxGeometry y="150" width="320" height="30" as="geometry"/>
                </mxCell>
                <mxCell id="O2_Z6szDIbyAxI_acswC-44" value="seq（hip帧的序列号）" style="text;strokeColor=none;fillColor=none;align=left;verticalAlign=middle;spacingLeft=4;spacingRight=4;overflow=hidden;points=[[0,0.5],[1,0.5]];portConstraint=eastwest;rotatable=0;fontSize=18;" parent="O2_Z6szDIbyAxI_acswC-38" vertex="1">
                    <mxGeometry y="180" width="320" height="30" as="geometry"/>
                </mxCell>
                <mxCell id="O2_Z6szDIbyAxI_acswC-45" value="payload（hip帧的负载数据）" style="text;strokeColor=none;fillColor=none;align=left;verticalAlign=middle;spacingLeft=4;spacingRight=4;overflow=hidden;points=[[0,0.5],[1,0.5]];portConstraint=eastwest;rotatable=0;fontSize=18;" parent="O2_Z6szDIbyAxI_acswC-38" vertex="1">
                    <mxGeometry y="210" width="320" height="30" as="geometry"/>
                </mxCell>
                <mxCell id="O2_Z6szDIbyAxI_acswC-46" value="" style="endArrow=none;html=1;strokeWidth=2;exitX=0.995;exitY=1.008;exitDx=0;exitDy=0;exitPerimeter=0;entryX=0.004;entryY=0.944;entryDx=0;entryDy=0;entryPerimeter=0;" parent="un4hN7DEQfM4jxaacSA7-1" source="O2_Z6szDIbyAxI_acswC-26" target="O2_Z6szDIbyAxI_acswC-35" edge="1">
                    <mxGeometry width="50" height="50" relative="1" as="geometry">
                        <mxPoint x="1095.3199999999997" y="-221.01" as="sourcePoint"/>
                        <mxPoint x="755" y="-211" as="targetPoint"/>
                    </mxGeometry>
                </mxCell>
                <mxCell id="O2_Z6szDIbyAxI_acswC-47" value="" style="endArrow=none;html=1;strokeWidth=2;exitX=-0.003;exitY=0.075;exitDx=0;exitDy=0;exitPerimeter=0;entryX=1.001;entryY=0.027;entryDx=0;entryDy=0;entryPerimeter=0;" parent="un4hN7DEQfM4jxaacSA7-1" source="O2_Z6szDIbyAxI_acswC-30" target="O2_Z6szDIbyAxI_acswC-26" edge="1">
                    <mxGeometry width="50" height="50" relative="1" as="geometry">
                        <mxPoint x="1105.3199999999997" y="-211.01" as="sourcePoint"/>
                        <mxPoint x="716" y="-263" as="targetPoint"/>
                    </mxGeometry>
                </mxCell>
            </root>
        </mxGraphModel>
    </diagram>
    <diagram name="第 2 页 的副本" id="bjMOFdHAQyz6n8NB4hjT">
        <mxGraphModel dx="3436" dy="2298" grid="0" gridSize="10" guides="1" tooltips="1" connect="1" arrows="1" fold="1" page="1" pageScale="1" pageWidth="827" pageHeight="1169" math="0" shadow="0">
            <root>
                <mxCell id="BbSURMVsBQSTmqa1E9u--0"/>
                <mxCell id="BbSURMVsBQSTmqa1E9u--1" parent="BbSURMVsBQSTmqa1E9u--0"/>
                <mxCell id="BbSURMVsBQSTmqa1E9u--2" value="结构体 tcp_server" style="swimlane;fontStyle=0;childLayout=stackLayout;horizontal=1;startSize=30;horizontalStack=0;resizeParent=1;resizeParentMax=0;resizeLast=0;collapsible=1;marginBottom=0;fontSize=18;strokeWidth=2;" parent="BbSURMVsBQSTmqa1E9u--1" vertex="1">
                    <mxGeometry x="-472" y="-113" width="496" height="360" as="geometry">
                        <mxRectangle x="-474" y="-65" width="170" height="30" as="alternateBounds"/>
                    </mxGeometry>
                </mxCell>
                <mxCell id="BbSURMVsBQSTmqa1E9u--3" value="listen_fd（监听客户端连接文件描述符）" style="text;strokeColor=none;fillColor=none;align=left;verticalAlign=middle;spacingLeft=4;spacingRight=4;overflow=hidden;points=[[0,0.5],[1,0.5]];portConstraint=eastwest;rotatable=0;fontSize=18;" parent="BbSURMVsBQSTmqa1E9u--2" vertex="1">
                    <mxGeometry y="30" width="496" height="30" as="geometry"/>
                </mxCell>
                <mxCell id="BbSURMVsBQSTmqa1E9u--4" value="msg_queue_id（消息队列ID）" style="text;strokeColor=none;fillColor=none;align=left;verticalAlign=middle;spacingLeft=4;spacingRight=4;overflow=hidden;points=[[0,0.5],[1,0.5]];portConstraint=eastwest;rotatable=0;fontSize=18;" parent="BbSURMVsBQSTmqa1E9u--2" vertex="1">
                    <mxGeometry y="60" width="496" height="30" as="geometry"/>
                </mxCell>
                <mxCell id="BbSURMVsBQSTmqa1E9u--5" value="add_position（下一次添加客户端表位置）" style="text;strokeColor=none;fillColor=none;align=left;verticalAlign=middle;spacingLeft=4;spacingRight=4;overflow=hidden;points=[[0,0.5],[1,0.5]];portConstraint=eastwest;rotatable=0;fontSize=18;" parent="BbSURMVsBQSTmqa1E9u--2" vertex="1">
                    <mxGeometry y="90" width="496" height="30" as="geometry"/>
                </mxCell>
                <mxCell id="BbSURMVsBQSTmqa1E9u--6" value="mng_flag（管理连接线程标志）" style="text;strokeColor=none;fillColor=none;align=left;verticalAlign=middle;spacingLeft=4;spacingRight=4;overflow=hidden;points=[[0,0.5],[1,0.5]];portConstraint=eastwest;rotatable=0;fontSize=18;" parent="BbSURMVsBQSTmqa1E9u--2" vertex="1">
                    <mxGeometry y="120" width="496" height="30" as="geometry"/>
                </mxCell>
                <mxCell id="BbSURMVsBQSTmqa1E9u--7" value="keep_flag（保持心跳线程标志）" style="text;strokeColor=none;fillColor=none;align=left;verticalAlign=middle;spacingLeft=4;spacingRight=4;overflow=hidden;points=[[0,0.5],[1,0.5]];portConstraint=eastwest;rotatable=0;fontSize=18;" parent="BbSURMVsBQSTmqa1E9u--2" vertex="1">
                    <mxGeometry y="150" width="496" height="30" as="geometry"/>
                </mxCell>
                <mxCell id="BbSURMVsBQSTmqa1E9u--8" value="mng_tid（管理连接线程ID）" style="text;strokeColor=none;fillColor=none;align=left;verticalAlign=middle;spacingLeft=4;spacingRight=4;overflow=hidden;points=[[0,0.5],[1,0.5]];portConstraint=eastwest;rotatable=0;fontSize=18;" parent="BbSURMVsBQSTmqa1E9u--2" vertex="1">
                    <mxGeometry y="180" width="496" height="30" as="geometry"/>
                </mxCell>
                <mxCell id="BbSURMVsBQSTmqa1E9u--9" value="keep_tid（保持心跳线程ID）" style="text;strokeColor=none;fillColor=none;align=left;verticalAlign=middle;spacingLeft=4;spacingRight=4;overflow=hidden;points=[[0,0.5],[1,0.5]];portConstraint=eastwest;rotatable=0;fontSize=18;" parent="BbSURMVsBQSTmqa1E9u--2" vertex="1">
                    <mxGeometry y="210" width="496" height="30" as="geometry"/>
                </mxCell>
                <mxCell id="BbSURMVsBQSTmqa1E9u--10" value="serve_addr（存放服务器IP和port）" style="text;strokeColor=none;fillColor=none;align=left;verticalAlign=middle;spacingLeft=4;spacingRight=4;overflow=hidden;points=[[0,0.5],[1,0.5]];portConstraint=eastwest;rotatable=0;fontSize=18;" parent="BbSURMVsBQSTmqa1E9u--2" vertex="1">
                    <mxGeometry y="240" width="496" height="30" as="geometry"/>
                </mxCell>
                <mxCell id="BbSURMVsBQSTmqa1E9u--11" value="mng_client_table[TCP_MAX_CLIENT]（存放客户端信息表）" style="text;strokeColor=none;fillColor=none;align=left;verticalAlign=middle;spacingLeft=4;spacingRight=4;overflow=hidden;points=[[0,0.5],[1,0.5]];portConstraint=eastwest;rotatable=0;fontSize=18;" parent="BbSURMVsBQSTmqa1E9u--2" vertex="1">
                    <mxGeometry y="270" width="496" height="30" as="geometry"/>
                </mxCell>
                <mxCell id="BbSURMVsBQSTmqa1E9u--12" value="keep_max_time（最大心跳间隔时间）" style="text;strokeColor=none;fillColor=none;align=left;verticalAlign=middle;spacingLeft=4;spacingRight=4;overflow=hidden;points=[[0,0.5],[1,0.5]];portConstraint=eastwest;rotatable=0;fontSize=18;" parent="BbSURMVsBQSTmqa1E9u--2" vertex="1">
                    <mxGeometry y="300" width="496" height="30" as="geometry"/>
                </mxCell>
                <mxCell id="BbSURMVsBQSTmqa1E9u--13" value="serve_fds（存放需监听文件描述符集合）" style="text;strokeColor=none;fillColor=none;align=left;verticalAlign=middle;spacingLeft=4;spacingRight=4;overflow=hidden;points=[[0,0.5],[1,0.5]];portConstraint=eastwest;rotatable=0;fontSize=18;" parent="BbSURMVsBQSTmqa1E9u--2" vertex="1">
                    <mxGeometry y="330" width="496" height="30" as="geometry"/>
                </mxCell>
                <mxCell id="BbSURMVsBQSTmqa1E9u--14" value="结构体 mng_clients_info" style="swimlane;fontStyle=0;childLayout=stackLayout;horizontal=1;startSize=30;horizontalStack=0;resizeParent=1;resizeParentMax=0;resizeLast=0;collapsible=1;marginBottom=0;fontSize=18;strokeWidth=2;" parent="BbSURMVsBQSTmqa1E9u--1" vertex="1">
                    <mxGeometry x="85" y="-20" width="496" height="270" as="geometry">
                        <mxRectangle x="127" y="70" width="221" height="30" as="alternateBounds"/>
                    </mxGeometry>
                </mxCell>
                <mxCell id="BbSURMVsBQSTmqa1E9u--15" value="client_fd（客户端socket）" style="text;strokeColor=none;fillColor=none;align=left;verticalAlign=middle;spacingLeft=4;spacingRight=4;overflow=hidden;points=[[0,0.5],[1,0.5]];portConstraint=eastwest;rotatable=0;fontSize=18;" parent="BbSURMVsBQSTmqa1E9u--14" vertex="1">
                    <mxGeometry y="30" width="496" height="30" as="geometry"/>
                </mxCell>
                <mxCell id="BbSURMVsBQSTmqa1E9u--16" value="is_online（客户端在线与否）" style="text;strokeColor=none;fillColor=none;align=left;verticalAlign=middle;spacingLeft=4;spacingRight=4;overflow=hidden;points=[[0,0.5],[1,0.5]];portConstraint=eastwest;rotatable=0;fontSize=18;" parent="BbSURMVsBQSTmqa1E9u--14" vertex="1">
                    <mxGeometry y="60" width="496" height="30" as="geometry"/>
                </mxCell>
                <mxCell id="BbSURMVsBQSTmqa1E9u--17" value="commit_flag（上报消息队列线程标志）" style="text;strokeColor=none;fillColor=none;align=left;verticalAlign=middle;spacingLeft=4;spacingRight=4;overflow=hidden;points=[[0,0.5],[1,0.5]];portConstraint=eastwest;rotatable=0;fontSize=18;" parent="BbSURMVsBQSTmqa1E9u--14" vertex="1">
                    <mxGeometry y="90" width="496" height="30" as="geometry"/>
                </mxCell>
                <mxCell id="BbSURMVsBQSTmqa1E9u--18" value="commit_tid（上报消息队列线程ID）" style="text;strokeColor=none;fillColor=none;align=left;verticalAlign=middle;spacingLeft=4;spacingRight=4;overflow=hidden;points=[[0,0.5],[1,0.5]];portConstraint=eastwest;rotatable=0;fontSize=18;" parent="BbSURMVsBQSTmqa1E9u--14" vertex="1">
                    <mxGeometry y="120" width="496" height="30" as="geometry"/>
                </mxCell>
                <mxCell id="BbSURMVsBQSTmqa1E9u--19" value="s_fifo（存储客户端信息的环形fifo）" style="text;strokeColor=none;fillColor=none;align=left;verticalAlign=middle;spacingLeft=4;spacingRight=4;overflow=hidden;points=[[0,0.5],[1,0.5]];portConstraint=eastwest;rotatable=0;fontSize=18;" parent="BbSURMVsBQSTmqa1E9u--14" vertex="1">
                    <mxGeometry y="150" width="496" height="30" as="geometry"/>
                </mxCell>
                <mxCell id="BbSURMVsBQSTmqa1E9u--20" value="keep_last_time（最近一次心跳时间戳）" style="text;strokeColor=none;fillColor=none;align=left;verticalAlign=middle;spacingLeft=4;spacingRight=4;overflow=hidden;points=[[0,0.5],[1,0.5]];portConstraint=eastwest;rotatable=0;fontSize=18;" parent="BbSURMVsBQSTmqa1E9u--14" vertex="1">
                    <mxGeometry y="180" width="496" height="30" as="geometry"/>
                </mxCell>
                <mxCell id="BbSURMVsBQSTmqa1E9u--21" value="client_addr（存储客户端IP和port）" style="text;strokeColor=none;fillColor=none;align=left;verticalAlign=middle;spacingLeft=4;spacingRight=4;overflow=hidden;points=[[0,0.5],[1,0.5]];portConstraint=eastwest;rotatable=0;fontSize=18;" parent="BbSURMVsBQSTmqa1E9u--14" vertex="1">
                    <mxGeometry y="210" width="496" height="30" as="geometry"/>
                </mxCell>
                <mxCell id="BbSURMVsBQSTmqa1E9u--22" value="client_addr（存储客户端IP和port）" style="text;strokeColor=none;fillColor=none;align=left;verticalAlign=middle;spacingLeft=4;spacingRight=4;overflow=hidden;points=[[0,0.5],[1,0.5]];portConstraint=eastwest;rotatable=0;fontSize=18;" parent="BbSURMVsBQSTmqa1E9u--14" vertex="1">
                    <mxGeometry y="240" width="496" height="30" as="geometry"/>
                </mxCell>
                <mxCell id="BbSURMVsBQSTmqa1E9u--23" value="" style="endArrow=none;html=1;fontSize=18;entryX=1.002;entryY=0.033;entryDx=0;entryDy=0;exitX=0;exitY=-0.033;exitDx=0;exitDy=0;strokeWidth=2;entryPerimeter=0;exitPerimeter=0;" parent="BbSURMVsBQSTmqa1E9u--1" source="BbSURMVsBQSTmqa1E9u--15" target="BbSURMVsBQSTmqa1E9u--11" edge="1">
                    <mxGeometry width="50" height="50" relative="1" as="geometry">
                        <mxPoint x="-112" y="257" as="sourcePoint"/>
                        <mxPoint x="-62" y="207" as="targetPoint"/>
                    </mxGeometry>
                </mxCell>
                <mxCell id="BbSURMVsBQSTmqa1E9u--24" value="" style="endArrow=none;html=1;fontSize=18;entryX=0.998;entryY=-0.133;entryDx=0;entryDy=0;exitX=0;exitY=1;exitDx=0;exitDy=0;strokeWidth=2;entryPerimeter=0;" parent="BbSURMVsBQSTmqa1E9u--1" source="BbSURMVsBQSTmqa1E9u--14" target="BbSURMVsBQSTmqa1E9u--12" edge="1">
                    <mxGeometry width="50" height="50" relative="1" as="geometry">
                        <mxPoint x="156" y="152" as="sourcePoint"/>
                        <mxPoint x="32" y="230" as="targetPoint"/>
                    </mxGeometry>
                </mxCell>
                <mxCell id="BbSURMVsBQSTmqa1E9u--25" value="结构体 led" style="swimlane;fontStyle=0;childLayout=stackLayout;horizontal=1;startSize=30;horizontalStack=0;resizeParent=1;resizeParentMax=0;resizeLast=0;collapsible=1;marginBottom=0;fontSize=18;strokeWidth=2;" parent="BbSURMVsBQSTmqa1E9u--1" vertex="1">
                    <mxGeometry x="-752" y="329" width="507" height="204" as="geometry">
                        <mxRectangle x="-592" y="337" width="110" height="30" as="alternateBounds"/>
                    </mxGeometry>
                </mxCell>
                <mxCell id="BbSURMVsBQSTmqa1E9u--26" value="handle_flag（led处理线程标志）" style="text;strokeColor=none;fillColor=none;align=left;verticalAlign=middle;spacingLeft=4;spacingRight=4;overflow=hidden;points=[[0,0.5],[1,0.5]];portConstraint=eastwest;rotatable=0;fontSize=18;" parent="BbSURMVsBQSTmqa1E9u--25" vertex="1">
                    <mxGeometry y="30" width="507" height="30" as="geometry"/>
                </mxCell>
                <mxCell id="BbSURMVsBQSTmqa1E9u--27" value="led_count（结构体中的真实led数量）" style="text;strokeColor=none;fillColor=none;align=left;verticalAlign=middle;spacingLeft=4;spacingRight=4;overflow=hidden;points=[[0,0.5],[1,0.5]];portConstraint=eastwest;rotatable=0;fontSize=18;" parent="BbSURMVsBQSTmqa1E9u--25" vertex="1">
                    <mxGeometry y="60" width="507" height="30" as="geometry"/>
                </mxCell>
                <mxCell id="BbSURMVsBQSTmqa1E9u--28" value="leds_sort[LED_NUMBER_COUNT]（结构体中的led具体颜色）" style="text;strokeColor=none;fillColor=none;align=left;verticalAlign=middle;spacingLeft=4;spacingRight=4;overflow=hidden;points=[[0,0.5],[1,0.5]];portConstraint=eastwest;rotatable=0;fontSize=18;" parent="BbSURMVsBQSTmqa1E9u--25" vertex="1">
                    <mxGeometry y="90" width="507" height="38" as="geometry"/>
                </mxCell>
                <mxCell id="BbSURMVsBQSTmqa1E9u--29" value="handle_td（led处理线程ID）" style="text;strokeColor=none;fillColor=none;align=left;verticalAlign=middle;spacingLeft=4;spacingRight=4;overflow=hidden;points=[[0,0.5],[1,0.5]];portConstraint=eastwest;rotatable=0;fontSize=18;" parent="BbSURMVsBQSTmqa1E9u--25" vertex="1">
                    <mxGeometry y="128" width="507" height="38" as="geometry"/>
                </mxCell>
                <mxCell id="BbSURMVsBQSTmqa1E9u--30" value="led_mng（实际led）" style="text;strokeColor=none;fillColor=none;align=left;verticalAlign=middle;spacingLeft=4;spacingRight=4;overflow=hidden;points=[[0,0.5],[1,0.5]];portConstraint=eastwest;rotatable=0;fontSize=18;" parent="BbSURMVsBQSTmqa1E9u--25" vertex="1">
                    <mxGeometry y="166" width="507" height="38" as="geometry"/>
                </mxCell>
                <mxCell id="BbSURMVsBQSTmqa1E9u--31" value="" style="endArrow=none;html=1;fontSize=18;strokeWidth=2;entryX=0.998;entryY=0.184;entryDx=0;entryDy=0;entryPerimeter=0;exitX=0.015;exitY=0;exitDx=0;exitDy=0;exitPerimeter=0;" parent="BbSURMVsBQSTmqa1E9u--1" source="BbSURMVsBQSTmqa1E9u--34" target="BbSURMVsBQSTmqa1E9u--30" edge="1">
                    <mxGeometry width="50" height="50" relative="1" as="geometry">
                        <mxPoint x="123" y="504" as="sourcePoint"/>
                        <mxPoint x="-87" y="316" as="targetPoint"/>
                    </mxGeometry>
                </mxCell>
                <mxCell id="BbSURMVsBQSTmqa1E9u--32" value="" style="endArrow=none;html=1;fontSize=18;strokeWidth=2;entryX=1.002;entryY=0.974;entryDx=0;entryDy=0;entryPerimeter=0;exitX=0.003;exitY=0.967;exitDx=0;exitDy=0;exitPerimeter=0;" parent="BbSURMVsBQSTmqa1E9u--1" source="BbSURMVsBQSTmqa1E9u--35" target="BbSURMVsBQSTmqa1E9u--30" edge="1">
                    <mxGeometry width="50" height="50" relative="1" as="geometry">
                        <mxPoint x="131.7739999999999" y="595.0100000000002" as="sourcePoint"/>
                        <mxPoint x="29" y="537" as="targetPoint"/>
                    </mxGeometry>
                </mxCell>
                <mxCell id="BbSURMVsBQSTmqa1E9u--33" value="结构体 led_mng" style="swimlane;fontStyle=0;childLayout=stackLayout;horizontal=1;startSize=30;horizontalStack=0;resizeParent=1;resizeParentMax=0;resizeLast=0;collapsible=1;marginBottom=0;fontSize=18;strokeWidth=2;" parent="BbSURMVsBQSTmqa1E9u--1" vertex="1">
                    <mxGeometry x="-203" y="499" width="265" height="90" as="geometry">
                        <mxRectangle x="-238" y="362" width="155" height="30" as="alternateBounds"/>
                    </mxGeometry>
                </mxCell>
                <mxCell id="BbSURMVsBQSTmqa1E9u--34" value="led_green（led具体属性的封装）" style="text;strokeColor=none;fillColor=none;align=left;verticalAlign=middle;spacingLeft=4;spacingRight=4;overflow=hidden;points=[[0,0.5],[1,0.5]];portConstraint=eastwest;rotatable=0;fontSize=18;" parent="BbSURMVsBQSTmqa1E9u--33" vertex="1">
                    <mxGeometry y="30" width="265" height="30" as="geometry"/>
                </mxCell>
                <mxCell id="BbSURMVsBQSTmqa1E9u--35" value="led_red（led具体属性的封装）" style="text;strokeColor=none;fillColor=none;align=left;verticalAlign=middle;spacingLeft=4;spacingRight=4;overflow=hidden;points=[[0,0.5],[1,0.5]];portConstraint=eastwest;rotatable=0;fontSize=18;" parent="BbSURMVsBQSTmqa1E9u--33" vertex="1">
                    <mxGeometry y="60" width="265" height="30" as="geometry"/>
                </mxCell>
                <mxCell id="BbSURMVsBQSTmqa1E9u--36" value="" style="endArrow=none;html=1;fontSize=18;strokeWidth=2;exitX=1;exitY=0;exitDx=0;exitDy=0;entryX=0.01;entryY=-0.033;entryDx=0;entryDy=0;entryPerimeter=0;" parent="BbSURMVsBQSTmqa1E9u--1" source="BbSURMVsBQSTmqa1E9u--33" target="BbSURMVsBQSTmqa1E9u--39" edge="1">
                    <mxGeometry width="50" height="50" relative="1" as="geometry">
                        <mxPoint x="384" y="367" as="sourcePoint"/>
                        <mxPoint x="429" y="430" as="targetPoint"/>
                    </mxGeometry>
                </mxCell>
                <mxCell id="BbSURMVsBQSTmqa1E9u--37" value="" style="endArrow=none;html=1;fontSize=18;strokeWidth=2;exitX=1;exitY=-0.1;exitDx=0;exitDy=0;exitPerimeter=0;entryX=-0.004;entryY=1.011;entryDx=0;entryDy=0;entryPerimeter=0;" parent="BbSURMVsBQSTmqa1E9u--1" source="BbSURMVsBQSTmqa1E9u--34" target="BbSURMVsBQSTmqa1E9u--46" edge="1">
                    <mxGeometry width="50" height="50" relative="1" as="geometry">
                        <mxPoint x="132" y="367" as="sourcePoint"/>
                        <mxPoint x="447" y="553" as="targetPoint"/>
                    </mxGeometry>
                </mxCell>
                <mxCell id="BbSURMVsBQSTmqa1E9u--38" value="结构体 led_item_conf" style="swimlane;fontStyle=0;childLayout=stackLayout;horizontal=1;startSize=30;horizontalStack=0;resizeParent=1;resizeParentMax=0;resizeLast=0;collapsible=1;marginBottom=0;fontSize=18;strokeWidth=2;" parent="BbSURMVsBQSTmqa1E9u--1" vertex="1">
                    <mxGeometry x="113" y="329" width="306" height="270" as="geometry">
                        <mxRectangle x="78" y="362" width="198" height="30" as="alternateBounds"/>
                    </mxGeometry>
                </mxCell>
                <mxCell id="BbSURMVsBQSTmqa1E9u--39" value="dev_name（具体led文件的路径）" style="text;strokeColor=none;fillColor=none;align=left;verticalAlign=middle;spacingLeft=4;spacingRight=4;overflow=hidden;points=[[0,0.5],[1,0.5]];portConstraint=eastwest;rotatable=0;fontSize=18;" parent="BbSURMVsBQSTmqa1E9u--38" vertex="1">
                    <mxGeometry y="30" width="306" height="30" as="geometry"/>
                </mxCell>
                <mxCell id="BbSURMVsBQSTmqa1E9u--40" value="sort（具体led的种类，红、绿）" style="text;strokeColor=none;fillColor=none;align=left;verticalAlign=middle;spacingLeft=4;spacingRight=4;overflow=hidden;points=[[0,0.5],[1,0.5]];portConstraint=eastwest;rotatable=0;fontSize=18;" parent="BbSURMVsBQSTmqa1E9u--38" vertex="1">
                    <mxGeometry y="60" width="306" height="30" as="geometry"/>
                </mxCell>
                <mxCell id="BbSURMVsBQSTmqa1E9u--41" value="mode（led的运行模式，点灯、呼吸）" style="text;strokeColor=none;fillColor=none;align=left;verticalAlign=middle;spacingLeft=4;spacingRight=4;overflow=hidden;points=[[0,0.5],[1,0.5]];portConstraint=eastwest;rotatable=0;fontSize=18;" parent="BbSURMVsBQSTmqa1E9u--38" vertex="1">
                    <mxGeometry y="90" width="306" height="30" as="geometry"/>
                </mxCell>
                <mxCell id="BbSURMVsBQSTmqa1E9u--42" value="state（led的状态，亮、灭）" style="text;strokeColor=none;fillColor=none;align=left;verticalAlign=middle;spacingLeft=4;spacingRight=4;overflow=hidden;points=[[0,0.5],[1,0.5]];portConstraint=eastwest;rotatable=0;fontSize=18;" parent="BbSURMVsBQSTmqa1E9u--38" vertex="1">
                    <mxGeometry y="120" width="306" height="30" as="geometry"/>
                </mxCell>
                <mxCell id="BbSURMVsBQSTmqa1E9u--43" value="speed（led呼吸模式下的速率）" style="text;strokeColor=none;fillColor=none;align=left;verticalAlign=middle;spacingLeft=4;spacingRight=4;overflow=hidden;points=[[0,0.5],[1,0.5]];portConstraint=eastwest;rotatable=0;fontSize=18;" parent="BbSURMVsBQSTmqa1E9u--38" vertex="1">
                    <mxGeometry y="150" width="306" height="30" as="geometry"/>
                </mxCell>
                <mxCell id="BbSURMVsBQSTmqa1E9u--44" value="timer（定时器id，实现呼吸效果）" style="text;strokeColor=none;fillColor=none;align=left;verticalAlign=middle;spacingLeft=4;spacingRight=4;overflow=hidden;points=[[0,0.5],[1,0.5]];portConstraint=eastwest;rotatable=0;fontSize=18;" parent="BbSURMVsBQSTmqa1E9u--38" vertex="1">
                    <mxGeometry y="180" width="306" height="30" as="geometry"/>
                </mxCell>
                <mxCell id="BbSURMVsBQSTmqa1E9u--45" value="evp(设置到期的信号种类，回调函数)" style="text;strokeColor=none;fillColor=none;align=left;verticalAlign=middle;spacingLeft=4;spacingRight=4;overflow=hidden;points=[[0,0.5],[1,0.5]];portConstraint=eastwest;rotatable=0;fontSize=18;" parent="BbSURMVsBQSTmqa1E9u--38" vertex="1">
                    <mxGeometry y="210" width="306" height="30" as="geometry"/>
                </mxCell>
                <mxCell id="BbSURMVsBQSTmqa1E9u--46" value="ts（定时器的时间设置）" style="text;strokeColor=none;fillColor=none;align=left;verticalAlign=middle;spacingLeft=4;spacingRight=4;overflow=hidden;points=[[0,0.5],[1,0.5]];portConstraint=eastwest;rotatable=0;fontSize=18;" parent="BbSURMVsBQSTmqa1E9u--38" vertex="1">
                    <mxGeometry y="240" width="306" height="30" as="geometry"/>
                </mxCell>
                <mxCell id="BbSURMVsBQSTmqa1E9u--47" value="结构体 tty" style="swimlane;fontStyle=0;childLayout=stackLayout;horizontal=1;startSize=30;horizontalStack=0;resizeParent=1;resizeParentMax=0;resizeLast=0;collapsible=1;marginBottom=0;fontSize=18;strokeWidth=2;" parent="BbSURMVsBQSTmqa1E9u--1" vertex="1">
                    <mxGeometry x="-551" y="-808" width="322" height="300" as="geometry">
                        <mxRectangle x="-378.5" y="-701" width="105" height="30" as="alternateBounds"/>
                    </mxGeometry>
                </mxCell>
                <mxCell id="BbSURMVsBQSTmqa1E9u--48" value="tty_fd（串口结点文件描述符）" style="text;strokeColor=none;fillColor=none;align=left;verticalAlign=middle;spacingLeft=4;spacingRight=4;overflow=hidden;points=[[0,0.5],[1,0.5]];portConstraint=eastwest;rotatable=0;fontSize=18;" parent="BbSURMVsBQSTmqa1E9u--47" vertex="1">
                    <mxGeometry y="30" width="322" height="30" as="geometry"/>
                </mxCell>
                <mxCell id="BbSURMVsBQSTmqa1E9u--49" value="recive_buff（串口接受数据缓存）" style="text;strokeColor=none;fillColor=none;align=left;verticalAlign=middle;spacingLeft=4;spacingRight=4;overflow=hidden;points=[[0,0.5],[1,0.5]];portConstraint=eastwest;rotatable=0;fontSize=18;" parent="BbSURMVsBQSTmqa1E9u--47" vertex="1">
                    <mxGeometry y="60" width="322" height="30" as="geometry"/>
                </mxCell>
                <mxCell id="BbSURMVsBQSTmqa1E9u--50" value="send_buff（串口发送数据缓存）" style="text;strokeColor=none;fillColor=none;align=left;verticalAlign=middle;spacingLeft=4;spacingRight=4;overflow=hidden;points=[[0,0.5],[1,0.5]];portConstraint=eastwest;rotatable=0;fontSize=18;" parent="BbSURMVsBQSTmqa1E9u--47" vertex="1">
                    <mxGeometry y="90" width="322" height="30" as="geometry"/>
                </mxCell>
                <mxCell id="BbSURMVsBQSTmqa1E9u--51" value="recive_td（接受串口数据线程ID）" style="text;strokeColor=none;fillColor=none;align=left;verticalAlign=middle;spacingLeft=4;spacingRight=4;overflow=hidden;points=[[0,0.5],[1,0.5]];portConstraint=eastwest;rotatable=0;fontSize=18;" parent="BbSURMVsBQSTmqa1E9u--47" vertex="1">
                    <mxGeometry y="120" width="322" height="30" as="geometry"/>
                </mxCell>
                <mxCell id="BbSURMVsBQSTmqa1E9u--52" value="handle_td（处理串口数据线程ID）" style="text;strokeColor=none;fillColor=none;align=left;verticalAlign=middle;spacingLeft=4;spacingRight=4;overflow=hidden;points=[[0,0.5],[1,0.5]];portConstraint=eastwest;rotatable=0;fontSize=18;" parent="BbSURMVsBQSTmqa1E9u--47" vertex="1">
                    <mxGeometry y="150" width="322" height="30" as="geometry"/>
                </mxCell>
                <mxCell id="BbSURMVsBQSTmqa1E9u--53" value="send_td（发送串口数据ID）" style="text;strokeColor=none;fillColor=none;align=left;verticalAlign=middle;spacingLeft=4;spacingRight=4;overflow=hidden;points=[[0,0.5],[1,0.5]];portConstraint=eastwest;rotatable=0;fontSize=18;" parent="BbSURMVsBQSTmqa1E9u--47" vertex="1">
                    <mxGeometry y="180" width="322" height="30" as="geometry"/>
                </mxCell>
                <mxCell id="BbSURMVsBQSTmqa1E9u--54" value="r_fifo（存储接受串口数据的环形buff）" style="text;strokeColor=none;fillColor=none;align=left;verticalAlign=middle;spacingLeft=4;spacingRight=4;overflow=hidden;points=[[0,0.5],[1,0.5]];portConstraint=eastwest;rotatable=0;fontSize=18;" parent="BbSURMVsBQSTmqa1E9u--47" vertex="1">
                    <mxGeometry y="210" width="322" height="30" as="geometry"/>
                </mxCell>
                <mxCell id="BbSURMVsBQSTmqa1E9u--55" value="w_fifo（存储发送串口数据的环形buff）" style="text;strokeColor=none;fillColor=none;align=left;verticalAlign=middle;spacingLeft=4;spacingRight=4;overflow=hidden;points=[[0,0.5],[1,0.5]];portConstraint=eastwest;rotatable=0;fontSize=18;" parent="BbSURMVsBQSTmqa1E9u--47" vertex="1">
                    <mxGeometry y="240" width="322" height="30" as="geometry"/>
                </mxCell>
                <mxCell id="BbSURMVsBQSTmqa1E9u--56" value="hup_frame（hup帧结构封装）" style="text;strokeColor=none;fillColor=none;align=left;verticalAlign=middle;spacingLeft=4;spacingRight=4;overflow=hidden;points=[[0,0.5],[1,0.5]];portConstraint=eastwest;rotatable=0;fontSize=18;" parent="BbSURMVsBQSTmqa1E9u--47" vertex="1">
                    <mxGeometry y="270" width="322" height="30" as="geometry"/>
                </mxCell>
                <mxCell id="BbSURMVsBQSTmqa1E9u--57" value="结构体 hup_protocol_type" style="swimlane;fontStyle=0;childLayout=stackLayout;horizontal=1;startSize=30;horizontalStack=0;resizeParent=1;resizeParentMax=0;resizeLast=0;collapsible=1;marginBottom=0;fontSize=18;strokeWidth=2;" parent="BbSURMVsBQSTmqa1E9u--1" vertex="1">
                    <mxGeometry x="-35" y="-691" width="322" height="180" as="geometry">
                        <mxRectangle x="13" y="-623" width="234" height="30" as="alternateBounds"/>
                    </mxGeometry>
                </mxCell>
                <mxCell id="BbSURMVsBQSTmqa1E9u--58" value="hdr_h（hup高位头部）" style="text;strokeColor=none;fillColor=none;align=left;verticalAlign=middle;spacingLeft=4;spacingRight=4;overflow=hidden;points=[[0,0.5],[1,0.5]];portConstraint=eastwest;rotatable=0;fontSize=18;" parent="BbSURMVsBQSTmqa1E9u--57" vertex="1">
                    <mxGeometry y="30" width="322" height="30" as="geometry"/>
                </mxCell>
                <mxCell id="BbSURMVsBQSTmqa1E9u--59" value="hdr_l（hup低位头部）" style="text;strokeColor=none;fillColor=none;align=left;verticalAlign=middle;spacingLeft=4;spacingRight=4;overflow=hidden;points=[[0,0.5],[1,0.5]];portConstraint=eastwest;rotatable=0;fontSize=18;" parent="BbSURMVsBQSTmqa1E9u--57" vertex="1">
                    <mxGeometry y="60" width="322" height="30" as="geometry"/>
                </mxCell>
                <mxCell id="BbSURMVsBQSTmqa1E9u--60" value="cmd（hup帧包含命令）" style="text;strokeColor=none;fillColor=none;align=left;verticalAlign=middle;spacingLeft=4;spacingRight=4;overflow=hidden;points=[[0,0.5],[1,0.5]];portConstraint=eastwest;rotatable=0;fontSize=18;" parent="BbSURMVsBQSTmqa1E9u--57" vertex="1">
                    <mxGeometry y="90" width="322" height="30" as="geometry"/>
                </mxCell>
                <mxCell id="BbSURMVsBQSTmqa1E9u--61" value="data_len（hup帧负载数据长度）" style="text;strokeColor=none;fillColor=none;align=left;verticalAlign=middle;spacingLeft=4;spacingRight=4;overflow=hidden;points=[[0,0.5],[1,0.5]];portConstraint=eastwest;rotatable=0;fontSize=18;" parent="BbSURMVsBQSTmqa1E9u--57" vertex="1">
                    <mxGeometry y="120" width="322" height="30" as="geometry"/>
                </mxCell>
                <mxCell id="BbSURMVsBQSTmqa1E9u--62" value="xor8（hup帧的校验位）" style="text;strokeColor=none;fillColor=none;align=left;verticalAlign=middle;spacingLeft=4;spacingRight=4;overflow=hidden;points=[[0,0.5],[1,0.5]];portConstraint=eastwest;rotatable=0;fontSize=18;" parent="BbSURMVsBQSTmqa1E9u--57" vertex="1">
                    <mxGeometry y="150" width="322" height="30" as="geometry"/>
                </mxCell>
                <mxCell id="BbSURMVsBQSTmqa1E9u--63" value="" style="endArrow=none;html=1;fontSize=18;strokeWidth=2;entryX=0;entryY=1;entryDx=0;entryDy=0;exitX=0.998;exitY=0.933;exitDx=0;exitDy=0;exitPerimeter=0;" parent="BbSURMVsBQSTmqa1E9u--1" source="BbSURMVsBQSTmqa1E9u--56" target="BbSURMVsBQSTmqa1E9u--57" edge="1">
                    <mxGeometry width="50" height="50" relative="1" as="geometry">
                        <mxPoint x="-47" y="-415" as="sourcePoint"/>
                        <mxPoint x="-38" y="-444" as="targetPoint"/>
                    </mxGeometry>
                </mxCell>
                <mxCell id="BbSURMVsBQSTmqa1E9u--64" value="" style="endArrow=none;html=1;fontSize=18;strokeWidth=2;entryX=0.002;entryY=0;entryDx=0;entryDy=0;entryPerimeter=0;exitX=1.002;exitY=0.133;exitDx=0;exitDy=0;exitPerimeter=0;" parent="BbSURMVsBQSTmqa1E9u--1" source="BbSURMVsBQSTmqa1E9u--56" target="BbSURMVsBQSTmqa1E9u--58" edge="1">
                    <mxGeometry width="50" height="50" relative="1" as="geometry">
                        <mxPoint x="-11" y="-427" as="sourcePoint"/>
                        <mxPoint x="-38" y="-444" as="targetPoint"/>
                    </mxGeometry>
                </mxCell>
                <mxCell id="BbSURMVsBQSTmqa1E9u--65" value="结构体 app" style="swimlane;fontStyle=0;childLayout=stackLayout;horizontal=1;startSize=30;horizontalStack=0;resizeParent=1;resizeParentMax=0;resizeLast=0;collapsible=1;marginBottom=0;fontSize=18;strokeWidth=2;" parent="BbSURMVsBQSTmqa1E9u--1" vertex="1">
                    <mxGeometry x="-502" y="-473" width="299" height="240" as="geometry"/>
                </mxCell>
                <mxCell id="BbSURMVsBQSTmqa1E9u--66" value="app_td（app线程ID）" style="text;strokeColor=none;fillColor=none;align=left;verticalAlign=middle;spacingLeft=4;spacingRight=4;overflow=hidden;points=[[0,0.5],[1,0.5]];portConstraint=eastwest;rotatable=0;fontSize=18;" parent="BbSURMVsBQSTmqa1E9u--65" vertex="1">
                    <mxGeometry y="30" width="299" height="30" as="geometry"/>
                </mxCell>
                <mxCell id="BbSURMVsBQSTmqa1E9u--67" value="app_flag（app线程标志）" style="text;strokeColor=none;fillColor=none;align=left;verticalAlign=middle;spacingLeft=4;spacingRight=4;overflow=hidden;points=[[0,0.5],[1,0.5]];portConstraint=eastwest;rotatable=0;fontSize=18;" parent="BbSURMVsBQSTmqa1E9u--65" vertex="1">
                    <mxGeometry y="60" width="299" height="30" as="geometry"/>
                </mxCell>
                <mxCell id="BbSURMVsBQSTmqa1E9u--68" value="msg_id（消息队列ID）" style="text;strokeColor=none;fillColor=none;align=left;verticalAlign=middle;spacingLeft=4;spacingRight=4;overflow=hidden;points=[[0,0.5],[1,0.5]];portConstraint=eastwest;rotatable=0;fontSize=18;" parent="BbSURMVsBQSTmqa1E9u--65" vertex="1">
                    <mxGeometry y="90" width="299" height="30" as="geometry"/>
                </mxCell>
                <mxCell id="BbSURMVsBQSTmqa1E9u--69" value="message（消息队列消息结构体）" style="text;strokeColor=none;fillColor=none;align=left;verticalAlign=middle;spacingLeft=4;spacingRight=4;overflow=hidden;points=[[0,0.5],[1,0.5]];portConstraint=eastwest;rotatable=0;fontSize=18;" parent="BbSURMVsBQSTmqa1E9u--65" vertex="1">
                    <mxGeometry y="120" width="299" height="30" as="geometry"/>
                </mxCell>
                <mxCell id="BbSURMVsBQSTmqa1E9u--70" value="uart（串口模块结构体）" style="text;strokeColor=none;fillColor=none;align=left;verticalAlign=middle;spacingLeft=4;spacingRight=4;overflow=hidden;points=[[0,0.5],[1,0.5]];portConstraint=eastwest;rotatable=0;fontSize=18;" parent="BbSURMVsBQSTmqa1E9u--65" vertex="1">
                    <mxGeometry y="150" width="299" height="30" as="geometry"/>
                </mxCell>
                <mxCell id="BbSURMVsBQSTmqa1E9u--71" value="led（led_app模块结构体）" style="text;strokeColor=none;fillColor=none;align=left;verticalAlign=middle;spacingLeft=4;spacingRight=4;overflow=hidden;points=[[0,0.5],[1,0.5]];portConstraint=eastwest;rotatable=0;fontSize=18;" parent="BbSURMVsBQSTmqa1E9u--65" vertex="1">
                    <mxGeometry y="180" width="299" height="30" as="geometry"/>
                </mxCell>
                <mxCell id="BbSURMVsBQSTmqa1E9u--72" value="cmds（解析app线程状态机结构体）" style="text;strokeColor=none;fillColor=none;align=left;verticalAlign=middle;spacingLeft=4;spacingRight=4;overflow=hidden;points=[[0,0.5],[1,0.5]];portConstraint=eastwest;rotatable=0;fontSize=18;" parent="BbSURMVsBQSTmqa1E9u--65" vertex="1">
                    <mxGeometry y="210" width="299" height="30" as="geometry"/>
                </mxCell>
                <mxCell id="BbSURMVsBQSTmqa1E9u--73" value="" style="endArrow=none;html=1;fontSize=18;strokeWidth=2;exitX=1.002;exitY=1;exitDx=0;exitDy=0;exitPerimeter=0;entryX=0;entryY=1;entryDx=0;entryDy=0;" parent="BbSURMVsBQSTmqa1E9u--1" source="BbSURMVsBQSTmqa1E9u--72" target="BbSURMVsBQSTmqa1E9u--75" edge="1">
                    <mxGeometry width="50" height="50" relative="1" as="geometry">
                        <mxPoint x="-279" y="-314" as="sourcePoint"/>
                        <mxPoint x="-123" y="-233" as="targetPoint"/>
                    </mxGeometry>
                </mxCell>
                <mxCell id="BbSURMVsBQSTmqa1E9u--74" value="" style="endArrow=none;html=1;fontSize=18;strokeWidth=2;exitX=1.002;exitY=0.013;exitDx=0;exitDy=0;exitPerimeter=0;entryX=-0.007;entryY=0.013;entryDx=0;entryDy=0;entryPerimeter=0;" parent="BbSURMVsBQSTmqa1E9u--1" source="BbSURMVsBQSTmqa1E9u--72" target="BbSURMVsBQSTmqa1E9u--76" edge="1">
                    <mxGeometry width="50" height="50" relative="1" as="geometry">
                        <mxPoint x="-279" y="-314" as="sourcePoint"/>
                        <mxPoint x="-130" y="-293" as="targetPoint"/>
                    </mxGeometry>
                </mxCell>
                <mxCell id="BbSURMVsBQSTmqa1E9u--75" value="结构体 cmd" style="swimlane;fontStyle=0;childLayout=stackLayout;horizontal=1;startSize=30;horizontalStack=0;resizeParent=1;resizeParentMax=0;resizeLast=0;collapsible=1;marginBottom=0;fontSize=18;strokeWidth=2;" parent="BbSURMVsBQSTmqa1E9u--1" vertex="1">
                    <mxGeometry x="-146" y="-251" width="262" height="90" as="geometry"/>
                </mxCell>
                <mxCell id="BbSURMVsBQSTmqa1E9u--76" value="led_cmds（led的命令结构体）" style="text;strokeColor=none;fillColor=none;align=left;verticalAlign=middle;spacingLeft=4;spacingRight=4;overflow=hidden;points=[[0,0.5],[1,0.5]];portConstraint=eastwest;rotatable=0;fontSize=18;" parent="BbSURMVsBQSTmqa1E9u--75" vertex="1">
                    <mxGeometry y="30" width="262" height="30" as="geometry"/>
                </mxCell>
                <mxCell id="BbSURMVsBQSTmqa1E9u--77" value="uart_cmds（uart的命令结构体）" style="text;strokeColor=none;fillColor=none;align=left;verticalAlign=middle;spacingLeft=4;spacingRight=4;overflow=hidden;points=[[0,0.5],[1,0.5]];portConstraint=eastwest;rotatable=0;fontSize=18;" parent="BbSURMVsBQSTmqa1E9u--75" vertex="1">
                    <mxGeometry y="60" width="262" height="30" as="geometry"/>
                </mxCell>
                <mxCell id="BbSURMVsBQSTmqa1E9u--78" value="&lt;font style=&quot;font-size: 21px&quot;&gt;&lt;b&gt;led_app模块&lt;br&gt;&lt;/b&gt;&lt;/font&gt;" style="text;html=1;align=center;verticalAlign=middle;resizable=0;points=[];autosize=1;strokeColor=none;fillColor=none;fontSize=15;" parent="BbSURMVsBQSTmqa1E9u--1" vertex="1">
                    <mxGeometry x="-184" y="347" width="131" height="24" as="geometry"/>
                </mxCell>
                <mxCell id="BbSURMVsBQSTmqa1E9u--79" value="uart_app模块" style="text;html=1;strokeColor=none;fillColor=none;align=center;verticalAlign=middle;whiteSpace=wrap;rounded=0;fontSize=21;fontStyle=1" parent="BbSURMVsBQSTmqa1E9u--1" vertex="1">
                    <mxGeometry x="-184" y="-804" width="300" height="70" as="geometry"/>
                </mxCell>
                <mxCell id="BbSURMVsBQSTmqa1E9u--80" value="Linux网络编程 服务端思路" style="text;html=1;strokeColor=none;fillColor=none;align=center;verticalAlign=middle;whiteSpace=wrap;rounded=0;fontSize=21;fontStyle=1" parent="BbSURMVsBQSTmqa1E9u--1" vertex="1">
                    <mxGeometry x="82" y="-113" width="300" height="70" as="geometry"/>
                </mxCell>
                <mxCell id="BbSURMVsBQSTmqa1E9u--81" value="结构体 tcp_client" style="swimlane;fontStyle=0;childLayout=stackLayout;horizontal=1;startSize=30;horizontalStack=0;resizeParent=1;resizeParentMax=0;resizeLast=0;collapsible=1;marginBottom=0;fontSize=18;strokeWidth=2;" parent="BbSURMVsBQSTmqa1E9u--1" vertex="1">
                    <mxGeometry x="382" y="-776" width="550" height="390" as="geometry">
                        <mxRectangle x="-474" y="-65" width="170" height="30" as="alternateBounds"/>
                    </mxGeometry>
                </mxCell>
                <mxCell id="BbSURMVsBQSTmqa1E9u--82" value="msg_queue_id（消息队列ID）" style="text;strokeColor=none;fillColor=none;align=left;verticalAlign=middle;spacingLeft=4;spacingRight=4;overflow=hidden;points=[[0,0.5],[1,0.5]];portConstraint=eastwest;rotatable=0;fontSize=18;" parent="BbSURMVsBQSTmqa1E9u--81" vertex="1">
                    <mxGeometry y="30" width="550" height="30" as="geometry"/>
                </mxCell>
                <mxCell id="BbSURMVsBQSTmqa1E9u--83" value="comm_fd（同服务端通信的文件描述符）" style="text;strokeColor=none;fillColor=none;align=left;verticalAlign=middle;spacingLeft=4;spacingRight=4;overflow=hidden;points=[[0,0.5],[1,0.5]];portConstraint=eastwest;rotatable=0;fontSize=18;" parent="BbSURMVsBQSTmqa1E9u--81" vertex="1">
                    <mxGeometry y="60" width="550" height="30" as="geometry"/>
                </mxCell>
                <mxCell id="BbSURMVsBQSTmqa1E9u--84" value="connect_flag（连接并接受服务端数据线程标志）" style="text;strokeColor=none;fillColor=none;align=left;verticalAlign=middle;spacingLeft=4;spacingRight=4;overflow=hidden;points=[[0,0.5],[1,0.5]];portConstraint=eastwest;rotatable=0;fontSize=18;" parent="BbSURMVsBQSTmqa1E9u--81" vertex="1">
                    <mxGeometry y="90" width="550" height="30" as="geometry"/>
                </mxCell>
                <mxCell id="BbSURMVsBQSTmqa1E9u--85" value="keep_flag（保持与服务端心跳线程的标志）" style="text;strokeColor=none;fillColor=none;align=left;verticalAlign=middle;spacingLeft=4;spacingRight=4;overflow=hidden;points=[[0,0.5],[1,0.5]];portConstraint=eastwest;rotatable=0;fontSize=18;" parent="BbSURMVsBQSTmqa1E9u--81" vertex="1">
                    <mxGeometry y="120" width="550" height="30" as="geometry"/>
                </mxCell>
                <mxCell id="BbSURMVsBQSTmqa1E9u--86" value="commit_flag（上报消息队列线程标志）" style="text;strokeColor=none;fillColor=none;align=left;verticalAlign=middle;spacingLeft=4;spacingRight=4;overflow=hidden;points=[[0,0.5],[1,0.5]];portConstraint=eastwest;rotatable=0;fontSize=18;" parent="BbSURMVsBQSTmqa1E9u--81" vertex="1">
                    <mxGeometry y="150" width="550" height="30" as="geometry"/>
                </mxCell>
                <mxCell id="BbSURMVsBQSTmqa1E9u--87" value="connect_tid（连接并接受服务端数据线程ID）" style="text;strokeColor=none;fillColor=none;align=left;verticalAlign=middle;spacingLeft=4;spacingRight=4;overflow=hidden;points=[[0,0.5],[1,0.5]];portConstraint=eastwest;rotatable=0;fontSize=18;" parent="BbSURMVsBQSTmqa1E9u--81" vertex="1">
                    <mxGeometry y="180" width="550" height="30" as="geometry"/>
                </mxCell>
                <mxCell id="BbSURMVsBQSTmqa1E9u--88" value="keep_tid（保持与服务端心跳线程的ID）" style="text;strokeColor=none;fillColor=none;align=left;verticalAlign=middle;spacingLeft=4;spacingRight=4;overflow=hidden;points=[[0,0.5],[1,0.5]];portConstraint=eastwest;rotatable=0;fontSize=18;" parent="BbSURMVsBQSTmqa1E9u--81" vertex="1">
                    <mxGeometry y="210" width="550" height="30" as="geometry"/>
                </mxCell>
                <mxCell id="BbSURMVsBQSTmqa1E9u--89" value="commit_tid（上报消息队列线程ID）" style="text;strokeColor=none;fillColor=none;align=left;verticalAlign=middle;spacingLeft=4;spacingRight=4;overflow=hidden;points=[[0,0.5],[1,0.5]];portConstraint=eastwest;rotatable=0;fontSize=18;" parent="BbSURMVsBQSTmqa1E9u--81" vertex="1">
                    <mxGeometry y="240" width="550" height="30" as="geometry"/>
                </mxCell>
                <mxCell id="BbSURMVsBQSTmqa1E9u--90" value="c_fifo（存储服务端发送的数据的环形缓存区）" style="text;strokeColor=none;fillColor=none;align=left;verticalAlign=middle;spacingLeft=4;spacingRight=4;overflow=hidden;points=[[0,0.5],[1,0.5]];portConstraint=eastwest;rotatable=0;fontSize=18;" parent="BbSURMVsBQSTmqa1E9u--81" vertex="1">
                    <mxGeometry y="270" width="550" height="30" as="geometry"/>
                </mxCell>
                <mxCell id="BbSURMVsBQSTmqa1E9u--91" value="serve_addr（存放需绑定的服务器IP和端口）" style="text;strokeColor=none;fillColor=none;align=left;verticalAlign=middle;spacingLeft=4;spacingRight=4;overflow=hidden;points=[[0,0.5],[1,0.5]];portConstraint=eastwest;rotatable=0;fontSize=18;" parent="BbSURMVsBQSTmqa1E9u--81" vertex="1">
                    <mxGeometry y="300" width="550" height="30" as="geometry"/>
                </mxCell>
                <mxCell id="BbSURMVsBQSTmqa1E9u--92" value="keep_last_time（上一次服务器的心跳时间戳）" style="text;strokeColor=none;fillColor=none;align=left;verticalAlign=middle;spacingLeft=4;spacingRight=4;overflow=hidden;points=[[0,0.5],[1,0.5]];portConstraint=eastwest;rotatable=0;fontSize=18;" parent="BbSURMVsBQSTmqa1E9u--81" vertex="1">
                    <mxGeometry y="330" width="550" height="30" as="geometry"/>
                </mxCell>
                <mxCell id="BbSURMVsBQSTmqa1E9u--93" value="client_fds（存放客户端需要监听的文件描述符，如服务端socket）" style="text;strokeColor=none;fillColor=none;align=left;verticalAlign=middle;spacingLeft=4;spacingRight=4;overflow=hidden;points=[[0,0.5],[1,0.5]];portConstraint=eastwest;rotatable=0;fontSize=18;" parent="BbSURMVsBQSTmqa1E9u--81" vertex="1">
                    <mxGeometry y="360" width="550" height="30" as="geometry"/>
                </mxCell>
                <mxCell id="BbSURMVsBQSTmqa1E9u--94" value="Linux网络编程 客户端思路" style="text;html=1;strokeColor=none;fillColor=none;align=center;verticalAlign=middle;whiteSpace=wrap;rounded=0;fontSize=21;fontStyle=1" parent="BbSURMVsBQSTmqa1E9u--1" vertex="1">
                    <mxGeometry x="410" y="-862" width="300" height="70" as="geometry"/>
                </mxCell>
            </root>
        </mxGraphModel>
    </diagram>
</mxfile>